<svg xmlns="http://www.w3.org/2000/svg" xmlns:xlink="http://www.w3.org/1999/xlink" width="529" height="634.667" viewBox="0 0 529 634.667">
  <defs>
    <linearGradient id="linear-gradient" x1="1" y1="0.5" x2="0" y2="0.5" gradientUnits="objectBoundingBox">
      <stop offset="0" stop-color="#23a5d6"/>
      <stop offset="1" stop-color="#60bb7d"/>
    </linearGradient>
    <filter id="Rectangle_7343" x="0" y="389" width="529" height="105" filterUnits="userSpaceOnUse">
      <feOffset dy="3" input="SourceAlpha"/>
      <feGaussianBlur stdDeviation="3" result="blur"/>
      <feFlood flood-opacity="0.161"/>
      <feComposite operator="in" in2="blur"/>
      <feComposite in="SourceGraphic"/>
    </filter>
  </defs>
  <g id="Group_20438" data-name="Group 20438" transform="translate(-1070 -196)">
    <g id="Group_15763" data-name="Group 15763" transform="translate(950.411 131.295)">
      <rect id="Rectangle_7307" data-name="Rectangle 7307" width="310.833" height="634.667" rx="48" transform="translate(228.589 64.705)" fill="#fbfafc"/>
      <g id="Group_15696" data-name="Group 15696" style="mix-blend-mode: multiply;isolation: isolate">
        <rect id="Rectangle_7308" data-name="Rectangle 7308" width="310.833" height="634.667" rx="48" transform="translate(228.589 64.705)" fill="#ecebed"/>
        <rect id="Rectangle_7309" data-name="Rectangle 7309" width="310.214" height="634.048" rx="47.69" transform="translate(228.899 65.015)" fill="#edecee" opacity="0.952"/>
        <rect id="Rectangle_7310" data-name="Rectangle 7310" width="309.595" height="633.429" rx="47.381" transform="translate(229.208 65.324)" fill="#eeedef" opacity="0.905"/>
        <rect id="Rectangle_7311" data-name="Rectangle 7311" width="308.976" height="632.81" rx="47.071" transform="translate(229.518 65.634)" fill="#efeef0" opacity="0.857"/>
        <rect id="Rectangle_7312" data-name="Rectangle 7312" width="308.357" height="632.19" rx="46.762" transform="translate(229.827 65.943)" fill="#f0eff0" opacity="0.81"/>
        <rect id="Rectangle_7313" data-name="Rectangle 7313" width="307.738" height="631.571" rx="46.452" transform="translate(230.137 66.253)" fill="#f1f0f1" opacity="0.762"/>
        <rect id="Rectangle_7314" data-name="Rectangle 7314" width="307.119" height="630.952" rx="46.143" transform="translate(230.447 66.562)" fill="#f1f1f2" opacity="0.714"/>
        <rect id="Rectangle_7315" data-name="Rectangle 7315" width="306.5" height="630.333" rx="45.833" transform="translate(230.756 66.872)" fill="#f2f2f3" opacity="0.667"/>
        <rect id="Rectangle_7316" data-name="Rectangle 7316" width="305.881" height="629.714" rx="45.524" transform="translate(231.066 67.181)" fill="#f3f3f4" opacity="0.619"/>
        <rect id="Rectangle_7317" data-name="Rectangle 7317" width="305.262" height="629.095" rx="45.214" transform="translate(231.375 67.491)" fill="#f4f4f5" opacity="0.571"/>
        <rect id="Rectangle_7318" data-name="Rectangle 7318" width="304.643" height="628.476" rx="44.905" transform="translate(231.685 67.8)" fill="#f5f5f6" opacity="0.524"/>
        <rect id="Rectangle_7319" data-name="Rectangle 7319" width="304.024" height="627.857" rx="44.595" transform="translate(231.994 68.11)" fill="#f6f5f6" opacity="0.476"/>
        <rect id="Rectangle_7320" data-name="Rectangle 7320" width="303.405" height="627.238" rx="44.286" transform="translate(232.304 68.419)" fill="#f7f6f7" opacity="0.429"/>
        <rect id="Rectangle_7321" data-name="Rectangle 7321" width="302.785" height="626.619" rx="43.976" transform="translate(232.613 68.729)" fill="#f8f7f8" opacity="0.381"/>
        <rect id="Rectangle_7322" data-name="Rectangle 7322" width="302.166" height="626" rx="43.667" transform="translate(232.923 69.038)" fill="#f9f8f9" opacity="0.333"/>
        <rect id="Rectangle_7323" data-name="Rectangle 7323" width="301.547" height="625.381" rx="43.357" transform="translate(233.232 69.348)" fill="#faf9fa" opacity="0.286"/>
        <rect id="Rectangle_7324" data-name="Rectangle 7324" width="300.928" height="624.762" rx="43.048" transform="translate(233.542 69.658)" fill="#fafafb" opacity="0.238"/>
        <rect id="Rectangle_7325" data-name="Rectangle 7325" width="300.309" height="624.143" rx="42.738" transform="translate(233.851 69.967)" fill="#fbfbfc" opacity="0.19"/>
        <rect id="Rectangle_7326" data-name="Rectangle 7326" width="299.69" height="623.524" rx="42.429" transform="translate(234.161 70.277)" fill="#fcfcfc" opacity="0.143"/>
        <rect id="Rectangle_7327" data-name="Rectangle 7327" width="299.071" height="622.905" rx="42.119" transform="translate(234.471 70.586)" fill="#fdfdfd" opacity="0.095"/>
        <rect id="Rectangle_7328" data-name="Rectangle 7328" width="298.452" height="622.286" rx="41.81" transform="translate(234.78 70.896)" fill="#fefefe" opacity="0.048"/>
        <rect id="Rectangle_7329" data-name="Rectangle 7329" width="297.833" height="621.667" rx="41.5" transform="translate(235.09 71.205)" fill="#fff" opacity="0"/>
      </g>
      <path id="Path_93403" data-name="Path 93403" d="M491.423,79.205H461.257a3.5,3.5,0,0,0-3.5,3.5V85a15.518,15.518,0,0,1-15.5,15.5h-116.5a15.517,15.517,0,0,1-15.5-15.5V82.705a3.5,3.5,0,0,0-3.5-3.5H276.59a33.538,33.538,0,0,0-33.5,33.5V651.372a33.538,33.538,0,0,0,33.5,33.5H491.423a33.539,33.539,0,0,0,33.5-33.5V112.705A33.539,33.539,0,0,0,491.423,79.205Z" fill="#fff"/>
      <g id="Group_15697" data-name="Group 15697">
        <path id="Path_93404" data-name="Path 93404" d="M491.423,79.205H461.257a3.5,3.5,0,0,0-3.5,3.5V85a15.518,15.518,0,0,1-15.5,15.5h-116.5a15.517,15.517,0,0,1-15.5-15.5V82.705a3.5,3.5,0,0,0-3.5-3.5H276.59a33.538,33.538,0,0,0-33.5,33.5v45.628H524.923V112.705A33.539,33.539,0,0,0,491.423,79.205Z" fill="#fff"/>
      </g>
      <g id="Group_15698" data-name="Group 15698">
        <path id="Path_93405" data-name="Path 93405" d="M399.214,83.25H368.8a2.75,2.75,0,0,0,0,5.5h30.416a2.75,2.75,0,0,0,0-5.5Z" fill="#d6d9e5" style="mix-blend-mode: multiply;isolation: isolate"/>
        <circle id="Ellipse_334" data-name="Ellipse 334" cx="4.5" cy="4.5" r="4.5" transform="translate(417.162 81.5)" fill="#d6d9e5" style="mix-blend-mode: multiply;isolation: isolate"/>
      </g>
      <g id="Group_15703" data-name="Group 15703">
        <g id="Group_15699" data-name="Group 15699">
          <path id="Path_93406" data-name="Path 93406" d="M270.244,94.727a2.654,2.654,0,0,1-.811.65,2.207,2.207,0,0,1-1.035.246,2.274,2.274,0,0,1-1.286-.363,2.358,2.358,0,0,1-.846-1.023,3.47,3.47,0,0,1-.3-1.456,3.55,3.55,0,0,1,.325-1.541,2.392,2.392,0,0,1,.923-1.049,2.631,2.631,0,0,1,1.394-.363,2.384,2.384,0,0,1,1.995.946,4.125,4.125,0,0,1,.73,2.581v.317a5.518,5.518,0,0,1-.984,3.636,3.784,3.784,0,0,1-2.971,1.174h-.211v-.919h.228a2.583,2.583,0,0,0,2.848-2.836Zm-1.67,0a1.68,1.68,0,0,0,1.005-.334,1.968,1.968,0,0,0,.671-.827v-.433a2.983,2.983,0,0,0-.463-1.735,1.415,1.415,0,0,0-2.32-.12,2.263,2.263,0,0,0-.434,1.445,2.353,2.353,0,0,0,.419,1.438A1.326,1.326,0,0,0,268.574,94.727Z" fill="#e6e4ea"/>
          <path id="Path_93407" data-name="Path 93407" d="M272.9,97.908a.679.679,0,0,1,.167-.468.638.638,0,0,1,.5-.188.655.655,0,0,1,.507.188.665.665,0,0,1,.173.468.629.629,0,0,1-.173.451.667.667,0,0,1-.507.182.65.65,0,0,1-.5-.182A.642.642,0,0,1,272.9,97.908Zm.006-5.174a.679.679,0,0,1,.167-.468.636.636,0,0,1,.5-.188.655.655,0,0,1,.507.188.665.665,0,0,1,.173.468.627.627,0,0,1-.173.451.663.663,0,0,1-.507.182.6.6,0,0,1-.668-.633Z" fill="#e6e4ea"/>
          <path id="Path_93408" data-name="Path 93408" d="M280.31,95.611h1.184V96.5H280.31v1.981h-1.089V96.5h-3.885v-.639l3.82-5.912h1.154Zm-3.744,0h2.655V91.428l-.129.234Z" fill="#e6e4ea"/>
          <path id="Path_93409" data-name="Path 93409" d="M286.035,98.477h-1.09V91.252l-2.185.8V91.07l3.1-1.166h.17Z" fill="#e6e4ea"/>
        </g>
        <g id="Group_15700" data-name="Group 15700">
          <path id="Path_93410" data-name="Path 93410" d="M473.433,98.226h-2.5v-6.75a1.25,1.25,0,0,1,1.25-1.25h0a1.25,1.25,0,0,1,1.25,1.25Z" fill="#e6e4ea"/>
          <path id="Path_93411" data-name="Path 93411" d="M462.183,98.226h-2.5v-.75a1.25,1.25,0,0,1,1.25-1.25h0a1.25,1.25,0,0,1,1.25,1.25Z" fill="#e6e4ea"/>
          <path id="Path_93412" data-name="Path 93412" d="M469.683,98.226h-2.5v-4.75a1.25,1.25,0,0,1,1.25-1.25h0a1.25,1.25,0,0,1,1.25,1.25Z" fill="#e6e4ea"/>
          <path id="Path_93413" data-name="Path 93413" d="M465.933,98.226h-2.5v-2.75a1.25,1.25,0,0,1,1.25-1.25h0a1.25,1.25,0,0,1,1.25,1.25Z" fill="#e6e4ea"/>
        </g>
        <g id="Group_15701" data-name="Group 15701">
          <path id="Path_93414" data-name="Path 93414" d="M482.829,93.226a4.966,4.966,0,0,0-3.813,1.8l.126.106a1.593,1.593,0,0,0,1.873.111,3.433,3.433,0,0,1,3.627,0,1.593,1.593,0,0,0,1.873-.111l.127-.106A4.969,4.969,0,0,0,482.829,93.226Z" fill="#e6e4ea"/>
          <path id="Path_93415" data-name="Path 93415" d="M476.824,92.953c-.04.045-.083.087-.121.133l.1.081a1.5,1.5,0,0,0,1.911.034,6.489,6.489,0,0,1,8.238,0,1.5,1.5,0,0,0,1.911-.034l.1-.081c-.04-.048-.084-.091-.125-.137-.135-.154-.273-.305-.418-.447-.073-.071-.151-.137-.226-.205-.131-.118-.264-.234-.4-.343-.08-.064-.164-.124-.247-.185q-.216-.157-.442-.3c-.081-.051-.162-.1-.245-.149q-.246-.143-.5-.267c-.076-.038-.153-.076-.231-.111-.184-.084-.373-.157-.563-.227-.071-.025-.141-.054-.213-.077-.2-.067-.408-.123-.615-.174-.067-.016-.131-.036-.2-.05-.217-.048-.438-.081-.66-.11-.061-.008-.121-.022-.182-.028a7.868,7.868,0,0,0-.857-.047h0a7.868,7.868,0,0,0-.857.048c-.061.006-.121.019-.181.027-.223.03-.444.063-.662.111-.067.014-.131.034-.2.05-.208.051-.415.107-.617.174-.072.023-.141.051-.211.077-.191.069-.38.143-.565.227-.078.035-.153.073-.23.11-.17.084-.338.173-.5.269-.082.048-.164.1-.244.148-.152.1-.3.2-.444.3-.082.06-.165.12-.245.183-.139.11-.273.227-.4.346-.075.068-.152.133-.223.2C477.1,92.645,476.96,92.8,476.824,92.953Z" fill="#e6e4ea"/>
          <path id="Path_93416" data-name="Path 93416" d="M481.527,97.134a2.024,2.024,0,0,0,2.6,0l.224-.187a1.973,1.973,0,0,0-3.05,0Z" fill="#e6e4ea"/>
        </g>
        <g id="Group_15702" data-name="Group 15702">
          <rect id="Rectangle_7330" data-name="Rectangle 7330" width="8" height="16" rx="1" transform="translate(508.87 90.477) rotate(90)" fill="none" stroke="#e6e4ea" stroke-miterlimit="10" stroke-width="0.5"/>
          <path id="Path_93417" data-name="Path 93417" d="M504.87,97.476h-8a3,3,0,0,1-3-3h0a3,3,0,0,1,3-3h8a3,3,0,0,1,3,3h0A3,3,0,0,1,504.87,97.476Z" fill="#e6e4ea"/>
        </g>
      </g>
      <g id="Group_15762" data-name="Group 15762">
        <g id="Group_15704" data-name="Group 15704">
          <rect id="Rectangle_7331" data-name="Rectangle 7331" width="281.833" height="1" transform="translate(243.09 157.833)" fill="#e6e4ea"/>
        </g>
        <g id="Group_15710" data-name="Group 15710">
          <g id="Group_15706" data-name="Group 15706">
            <path id="Path_93419" data-name="Path 93419" d="M382.089,661.01l-14.011-8.089a3.823,3.823,0,0,1-1.911-3.309V633.433a3.821,3.821,0,0,1,1.911-3.309l14.011-8.09a3.826,3.826,0,0,1,3.822,0l14.011,8.09a3.82,3.82,0,0,1,1.91,3.309v16.179a3.822,3.822,0,0,1-1.91,3.309l-14.011,8.089A3.821,3.821,0,0,1,382.089,661.01Z" fill="#23a5d6"/>
          </g>
          <g id="Group_15709" data-name="Group 15709">
            <g id="Group_15707" data-name="Group 15707">
              <path id="Path_93420" data-name="Path 93420" d="M391.506,642.167h-15a.5.5,0,0,1,0-1h15a.5.5,0,0,1,0,1Z" fill="#fff"/>
            </g>
            <g id="Group_15708" data-name="Group 15708">
              <path id="Path_93421" data-name="Path 93421" d="M384.006,649.667a.5.5,0,0,1-.5-.5v-15a.5.5,0,0,1,1,0v15A.5.5,0,0,1,384.006,649.667Z" fill="#fff"/>
            </g>
          </g>
        </g>
        <path id="Path_93422" data-name="Path 93422" d="M274.411,630.487l-11,14h3.436v8h7.564v-5.825h2.927v5.825h4.637v-8h3.436Z" fill="none" stroke="#b5b5c6" stroke-linecap="round" stroke-linejoin="round" stroke-width="1.108"/>
        <g id="Group_15716" data-name="Group 15716">
          <g id="Group_15711" data-name="Group 15711">
            <rect id="Rectangle_7332" data-name="Rectangle 7332" width="1" height="7.396" transform="translate(489.411 645.063)" fill="#b5b5c6"/>
          </g>
          <g id="Group_15712" data-name="Group 15712">
            <rect id="Rectangle_7333" data-name="Rectangle 7333" width="1" height="13.215" transform="translate(493.161 639.243)" fill="#b5b5c6"/>
          </g>
          <g id="Group_15713" data-name="Group 15713">
            <rect id="Rectangle_7334" data-name="Rectangle 7334" width="1" height="5.378" transform="translate(496.911 647.18)" fill="#b5b5c6"/>
          </g>
          <g id="Group_15714" data-name="Group 15714">
            <rect id="Rectangle_7335" data-name="Rectangle 7335" width="1" height="13.215" transform="translate(500.661 639.243)" fill="#b5b5c6"/>
          </g>
          <g id="Group_15715" data-name="Group 15715">
            <rect id="Rectangle_7336" data-name="Rectangle 7336" width="1" height="21.9" transform="translate(504.411 630.558)" fill="#b5b5c6"/>
          </g>
        </g>
        <g id="Group_15731" data-name="Group 15731">
          <g id="Group_15718" data-name="Group 15718">
            <g id="Group_15717" data-name="Group 15717">
              <path id="Path_93423" data-name="Path 93423" d="M261.057,485.166h-1.09v-7.225l-2.186.8v-.984l3.106-1.166h.17Z" fill="#b5b5c6"/>
              <path id="Path_93424" data-name="Path 93424" d="M264.514,485.166v-8.531h2.408a3.881,3.881,0,0,1,1.969.492,3.334,3.334,0,0,1,1.321,1.4,4.569,4.569,0,0,1,.472,2.086v.545a4.577,4.577,0,0,1-.466,2.115,3.277,3.277,0,0,1-1.33,1.395,4.13,4.13,0,0,1-2.013.5Zm1.125-7.611v6.691h1.183a2.573,2.573,0,0,0,2.025-.81,3.342,3.342,0,0,0,.723-2.3v-.5a3.4,3.4,0,0,0-.682-2.26,2.429,2.429,0,0,0-1.937-.818Z" fill="#b5b5c6"/>
            </g>
          </g>
          <g id="Group_15720" data-name="Group 15720">
            <g id="Group_15719" data-name="Group 15719">
              <path id="Path_93425" data-name="Path 93425" d="M299.792,485.166H298.7v-7.225l-2.185.8v-.984l3.105-1.166h.17Z" fill="#b5b5c6"/>
              <path id="Path_93426" data-name="Path 93426" d="M305.089,482.477l.164,1.125.24-1.014,1.688-5.953h.949l1.646,5.953.235,1.031.181-1.148,1.325-5.836h1.13l-2.068,8.531h-1.025l-1.758-6.217-.135-.65-.135.65-1.822,6.217h-1.025l-2.063-8.531h1.125Z" fill="#b5b5c6"/>
            </g>
          </g>
          <g id="Group_15722" data-name="Group 15722">
            <g id="Group_15721" data-name="Group 15721">
              <path id="Path_93427" data-name="Path 93427" d="M339.877,485.166h-1.09v-7.225l-2.185.8v-.984l3.105-1.166h.17Z" fill="#b5b5c6"/>
              <path id="Path_93428" data-name="Path 93428" d="M344.787,476.635l2.789,6.961,2.789-6.961h1.459v8.531H350.7v-3.322l.106-3.586-2.8,6.908h-.861l-2.8-6.891.111,3.569v3.322h-1.125v-8.531Z" fill="#b5b5c6"/>
            </g>
          </g>
          <g id="Group_15724" data-name="Group 15724">
            <g id="Group_15723" data-name="Group 15723">
              <path id="Path_93429" data-name="Path 93429" d="M377.684,480.373h.814a1.794,1.794,0,0,0,1.207-.4,1.352,1.352,0,0,0,.439-1.061,1.323,1.323,0,0,0-1.494-1.5,1.555,1.555,0,0,0-1.122.4,1.4,1.4,0,0,0-.419,1.063h-1.084a2.172,2.172,0,0,1,.742-1.684,2.7,2.7,0,0,1,1.883-.671,2.668,2.668,0,0,1,1.893.638,2.308,2.308,0,0,1,.685,1.776,1.875,1.875,0,0,1-.36,1.078,2.178,2.178,0,0,1-.981.779,2.107,2.107,0,0,1,1.087.738,2.057,2.057,0,0,1,.383,1.26,2.326,2.326,0,0,1-.75,1.822,2.8,2.8,0,0,1-1.951.674,2.885,2.885,0,0,1-1.954-.65,2.158,2.158,0,0,1-.753-1.717h1.09a1.393,1.393,0,0,0,.439,1.078,1.67,1.67,0,0,0,1.178.4,1.636,1.636,0,0,0,1.2-.41,1.578,1.578,0,0,0,.416-1.178,1.434,1.434,0,0,0-.457-1.142,1.988,1.988,0,0,0-1.318-.41h-.814Z" fill="#b5b5c6"/>
              <path id="Path_93430" data-name="Path 93430" d="M384.58,476.635l2.789,6.961,2.789-6.961h1.459v8.531h-1.125v-3.322l.106-3.586-2.8,6.908h-.862l-2.794-6.891.111,3.569v3.322h-1.125v-8.531Z" fill="#b5b5c6"/>
            </g>
          </g>
          <g id="Group_15726" data-name="Group 15726">
            <rect id="Rectangle_7337" data-name="Rectangle 7337" width="40" height="2.5" transform="translate(404.006 489.5)" fill="#60bb7d"/>
            <g id="Group_15725" data-name="Group 15725">
              <path id="Path_93431" data-name="Path 93431" d="M420.361,476.629v.92h-.2a2.858,2.858,0,0,0-2.016.75,3.119,3.119,0,0,0-.867,2.045,2.314,2.314,0,0,1,1.84-.774,2.213,2.213,0,0,1,1.778.785,3.443,3.443,0,0,1-.052,4.137,2.47,2.47,0,0,1-1.925.791,2.432,2.432,0,0,1-1.986-.94,3.727,3.727,0,0,1-.762-2.423V481.5a5.617,5.617,0,0,1,1.005-3.6,3.689,3.689,0,0,1,2.991-1.274Zm-1.424,3.844a1.821,1.821,0,0,0-1.675,1.172v.4a2.8,2.8,0,0,0,.474,1.7,1.423,1.423,0,0,0,1.184.645,1.378,1.378,0,0,0,1.151-.539,2.588,2.588,0,0,0-.006-2.833A1.359,1.359,0,0,0,418.937,480.473Z" fill="#60bb7d"/>
              <path id="Path_93432" data-name="Path 93432" d="M424.58,476.635l2.789,6.961,2.789-6.961h1.459v8.531h-1.125v-3.322l.106-3.586-2.8,6.908h-.862l-2.794-6.891.111,3.569v3.322h-1.125v-8.531Z" fill="#60bb7d"/>
            </g>
          </g>
          <g id="Group_15728" data-name="Group 15728">
            <g id="Group_15727" data-name="Group 15727">
              <path id="Path_93433" data-name="Path 93433" d="M461.429,485.166h-1.09v-7.225l-2.186.8v-.984l3.106-1.166h.17Z" fill="#b5b5c6"/>
              <path id="Path_93434" data-name="Path 93434" d="M467.487,480.918l2.227-4.283h1.277l-2.941,5.349v3.182h-1.125v-3.182l-2.942-5.349h1.289Z" fill="#b5b5c6"/>
            </g>
          </g>
          <g id="Group_15730" data-name="Group 15730">
            <g id="Group_15729" data-name="Group 15729">
              <path id="Path_93435" data-name="Path 93435" d="M503.456,485.166h-5.59v-.779l2.953-3.282a7.02,7.02,0,0,0,.906-1.209,2.022,2.022,0,0,0,.249-.964,1.529,1.529,0,0,0-.4-1.1,1.414,1.414,0,0,0-1.078-.428,1.673,1.673,0,0,0-1.257.46,1.757,1.757,0,0,0-.448,1.28H497.7a2.515,2.515,0,0,1,.759-1.9,2.815,2.815,0,0,1,2.03-.726,2.7,2.7,0,0,1,1.881.624,2.127,2.127,0,0,1,.691,1.661,4.88,4.88,0,0,1-1.6,3l-2.285,2.478h4.283Z" fill="#b5b5c6"/>
              <path id="Path_93436" data-name="Path 93436" d="M507.487,480.918l2.227-4.283h1.277l-2.941,5.349v3.182h-1.125v-3.182l-2.942-5.349h1.289Z" fill="#b5b5c6"/>
            </g>
          </g>
        </g>
        <g id="Group_15736" data-name="Group 15736">
          <g id="Group_15733" data-name="Group 15733">
            <path id="Path_93437" data-name="Path 93437" d="M379.268,563.75V595.5h-128V563.75h128m1-1h-130V596.5h130V562.75Z" fill="#c60021"/>
            <g id="Group_15732" data-name="Group 15732">
              <path id="Path_93438" data-name="Path 93438" d="M304.519,580.3a5.725,5.725,0,0,1-2.283-1.108,2.121,2.121,0,0,1-.714-1.622,2.235,2.235,0,0,1,.873-1.806,3.473,3.473,0,0,1,2.269-.713,3.791,3.791,0,0,1,1.7.367,2.8,2.8,0,0,1,1.156,1.016,2.6,2.6,0,0,1,.41,1.416H306.7a1.7,1.7,0,0,0-.533-1.323,2.173,2.173,0,0,0-1.505-.48,2.222,2.222,0,0,0-1.4.4,1.325,1.325,0,0,0-.505,1.1,1.2,1.2,0,0,0,.479.958,4.719,4.719,0,0,0,1.631.716,7.476,7.476,0,0,1,1.8.715,2.708,2.708,0,0,1,.965.91,2.323,2.323,0,0,1,.314,1.224,2.161,2.161,0,0,1-.876,1.8,3.746,3.746,0,0,1-2.342.676,4.349,4.349,0,0,1-1.777-.365,2.99,2.99,0,0,1-1.273-1,2.446,2.446,0,0,1-.448-1.442h1.225a1.594,1.594,0,0,0,.619,1.324,2.6,2.6,0,0,0,1.654.486,2.4,2.4,0,0,0,1.479-.394,1.275,1.275,0,0,0,.514-1.072,1.257,1.257,0,0,0-.476-1.051A5.472,5.472,0,0,0,304.519,580.3Z" fill="#c60021"/>
              <path id="Path_93439" data-name="Path 93439" d="M314.731,580.144h-4v3.275h4.653v1h-5.872v-9.242h5.808v1h-4.589v2.977h4Z" fill="#c60021"/>
              <path id="Path_93440" data-name="Path 93440" d="M318.121,583.419h4.38v1h-5.606v-9.242h1.226Z" fill="#c60021"/>
              <path id="Path_93441" data-name="Path 93441" d="M325.117,583.419h4.38v1h-5.605v-9.242h1.225Z" fill="#c60021"/>
            </g>
          </g>
          <g id="Group_15735" data-name="Group 15735">
            <rect id="Rectangle_7338" data-name="Rectangle 7338" width="33.75" height="130" transform="translate(517.745 562.75) rotate(90)" fill="#60bb7d"/>
            <g id="Group_15734" data-name="Group 15734">
              <path id="Path_93442" data-name="Path 93442" d="M441.651,584.416v-9.242h3.022a3.5,3.5,0,0,1,2.263.622,2.241,2.241,0,0,1,.758,1.841,1.878,1.878,0,0,1-.367,1.145,2.392,2.392,0,0,1-1,.772,2.139,2.139,0,0,1,1.185.8,2.283,2.283,0,0,1,.434,1.4,2.47,2.47,0,0,1-.806,1.955,3.328,3.328,0,0,1-2.279.711Zm1.219-5.3h1.842a1.927,1.927,0,0,0,1.278-.4,1.343,1.343,0,0,0,.48-1.088,1.318,1.318,0,0,0-.445-1.109,2.176,2.176,0,0,0-1.352-.348h-1.8Zm0,.979v3.326h2.013a1.942,1.942,0,0,0,1.343-.442,1.548,1.548,0,0,0,.492-1.215q0-1.669-1.817-1.669Z" fill="#fff"/>
              <path id="Path_93443" data-name="Path 93443" d="M456.251,575.174v6.284a2.949,2.949,0,0,1-.822,2.14,3.317,3.317,0,0,1-2.212.932l-.324.013a3.461,3.461,0,0,1-2.418-.818,2.933,2.933,0,0,1-.915-2.254v-6.3h1.207v6.259a1.927,1.927,0,0,0,2.126,2.114,2.139,2.139,0,0,0,1.584-.553,2.109,2.109,0,0,0,.548-1.554v-6.266Z" fill="#fff"/>
              <path id="Path_93444" data-name="Path 93444" d="M460.992,579.815l2.412-4.641h1.385l-3.187,5.795v3.447h-1.219v-3.447l-3.186-5.795h1.4Z" fill="#fff"/>
            </g>
          </g>
        </g>
        <g id="Group_15737" data-name="Group 15737">
          <path id="Path_93445" data-name="Path 93445" d="M348.669,418.96c-4.777,0-7.919-7.538-11.9-17.081-3.969-9.525-8.909-21.379-15.1-21.379-6.346,0-9.395,7.27-12.084,13.685-2.325,5.543-4.521,10.779-8.869,10.779-3.352,0-5.116-3.239-6.671-6.1-1.168-2.146-2.376-4.366-3.793-4.366-2.372,0-4.946,4.906-7.216,9.235-2.434,4.639-4.949,9.436-8.4,11.713-5.549,3.655-11.44,1.8-17.676-.17-4.33-1.366-8.808-2.778-13.87-2.778v-3c5.524,0,10.438,1.55,14.773,2.918,6.015,1.9,10.768,3.395,15.122.524,2.809-1.85,5.142-6.3,7.4-10.6,2.925-5.575,5.686-10.842,9.873-10.842,3.2,0,4.915,3.151,6.429,5.932,1.211,2.228,2.465,4.532,4.035,4.532,2.353,0,4.174-4.343,6.1-8.941,2.9-6.916,6.51-15.523,14.851-15.523,8.192,0,13.334,12.339,17.87,23.226,2.976,7.14,6.349,15.234,9.126,15.234,4.817,0,10.393-7,16.3-14.409C372.64,391.918,381.338,381,391.923,381c10.01,0,14.052-15.552,17.96-30.593,4.022-15.477,8.181-31.482,19.552-31.7,6.932-.156,9.892,3.985,12.3,7.292,1.938,2.655,3.147,4.166,5.306,4.166h.056c3.48-.042,7.522-6.691,11.431-13.121,5.791-9.528,12.352-20.32,21.87-20.32h.179l.23,0c10.091,0,18.63-9.342,26.172-17.591,6.445-7.05,12.011-13.138,17.939-13.138v3c-4.606,0-10.007,5.908-15.725,12.162-7.96,8.707-16.974,18.566-28.379,18.567l-.41,0c-7.838,0-13.932,10.026-19.312,18.878-4.731,7.781-8.815,14.5-13.959,14.563-3.823.038-5.868-2.722-7.821-5.4-2.274-3.116-4.425-6.063-9.563-6.063l-.262,0c-9.1.173-12.965,15.059-16.706,29.454-4.2,16.144-8.534,32.838-20.863,32.838-9.14,0-17.36,10.317-24.612,19.42C360.669,411.759,354.932,418.96,348.669,418.96Z" fill="url(#linear-gradient)"/>
        </g>
        <g id="Group_15744" data-name="Group 15744">
          <g id="Group_15738" data-name="Group 15738">
            <path id="Path_93446" data-name="Path 93446" d="M327.18,207.428a1.9,1.9,0,0,0-.586-1.409,5.257,5.257,0,0,0-1.977-1.036,6.34,6.34,0,0,1-2.821-1.54,3.4,3.4,0,0,1-.886-2.413,3.5,3.5,0,0,1,.867-2.444,3.689,3.689,0,0,1,2.386-1.136v-1.99h1.355v2a3.506,3.506,0,0,1,2.376,1.281,4.609,4.609,0,0,1,.849,2.935h-1.672a3.165,3.165,0,0,0-.609-2.042,2,2,0,0,0-1.645-.756,2.277,2.277,0,0,0-1.654.559,2.088,2.088,0,0,0-.572,1.562,1.9,1.9,0,0,0,.6,1.479,5.588,5.588,0,0,0,1.99,1,8.371,8.371,0,0,1,2.164.991,3.476,3.476,0,0,1,1.144,1.259,3.641,3.641,0,0,1,.368,1.681,3.363,3.363,0,0,1-.923,2.471,4.085,4.085,0,0,1-2.585,1.109v1.736h-1.344V210.99a3.926,3.926,0,0,1-2.65-1.2,4.068,4.068,0,0,1-.958-2.849h1.681a2.677,2.677,0,0,0,.663,1.945,2.506,2.506,0,0,0,1.882.681,2.817,2.817,0,0,0,1.871-.572A1.933,1.933,0,0,0,327.18,207.428Z" fill="#292744"/>
            <path id="Path_93447" data-name="Path 93447" d="M338.376,200.222l1.076-10.556H350.3v2.486h-8.565l-.639,5.772a6.838,6.838,0,0,1,3.533-.916,5.84,5.84,0,0,1,4.6,1.912,7.5,7.5,0,0,1,1.7,5.169,7.23,7.23,0,0,1-1.767,5.154,6.44,6.44,0,0,1-4.936,1.884,6.689,6.689,0,0,1-4.58-1.557,6.207,6.207,0,0,1-2.021-4.3h2.544a4.273,4.273,0,0,0,1.294,2.74,4.023,4.023,0,0,0,2.763.924,3.628,3.628,0,0,0,2.944-1.28,5.345,5.345,0,0,0,1.069-3.533,4.909,4.909,0,0,0-1.156-3.41A3.934,3.934,0,0,0,344,199.422a4.441,4.441,0,0,0-2.763.77l-.712.582Z" fill="#292744"/>
            <path id="Path_93448" data-name="Path 93448" d="M374.07,195.191a4.911,4.911,0,0,1-.836,2.821,5.686,5.686,0,0,1-2.26,1.933,6.075,6.075,0,0,1,2.624,2.079,5.237,5.237,0,0,1,.966,3.1,5.532,5.532,0,0,1-1.853,4.376,8.127,8.127,0,0,1-9.771-.007,5.558,5.558,0,0,1-1.838-4.369,5.39,5.39,0,0,1,.937-3.1,5.839,5.839,0,0,1,2.6-2.093A5.558,5.558,0,0,1,362.409,198a4.991,4.991,0,0,1-.813-2.806,5.471,5.471,0,0,1,1.715-4.246,7.287,7.287,0,0,1,9.037,0A5.462,5.462,0,0,1,374.07,195.191Zm-2.2,9.872a3.9,3.9,0,0,0-1.127-2.893,3.992,3.992,0,0,0-2.944-1.12,3.786,3.786,0,0,0-4.013,4.013,3.758,3.758,0,0,0,1.068,2.835,4.773,4.773,0,0,0,5.94-.007A3.747,3.747,0,0,0,371.875,205.063Zm-4.042-13.478a3.47,3.47,0,0,0-2.566.981,4.06,4.06,0,0,0-.015,5.278,3.842,3.842,0,0,0,5.162,0,3.978,3.978,0,0,0-.037-5.242A3.422,3.422,0,0,0,367.833,191.585Z" fill="#292744"/>
            <path id="Path_93449" data-name="Path 93449" d="M388.509,189.651v2.283h-.495a7.08,7.08,0,0,0-5,1.861,7.746,7.746,0,0,0-2.153,5.074,5.746,5.746,0,0,1,4.566-1.919,5.493,5.493,0,0,1,4.413,1.948,8.54,8.54,0,0,1-.131,10.266,6.135,6.135,0,0,1-4.776,1.963A6.042,6.042,0,0,1,380,208.792a9.241,9.241,0,0,1-1.891-6.012v-1.032q0-5.844,2.494-8.934t7.422-3.163Zm-3.533,9.538a4.522,4.522,0,0,0-4.159,2.908v.989a6.943,6.943,0,0,0,1.178,4.216,3.528,3.528,0,0,0,2.937,1.6,3.419,3.419,0,0,0,2.857-1.338,6.426,6.426,0,0,0-.015-7.03A3.379,3.379,0,0,0,384.976,199.189Z" fill="#292744"/>
            <path id="Path_93450" data-name="Path 93450" d="M406.029,203.726h2.937v2.2h-2.937v4.914h-2.7v-4.914h-9.639v-1.585l9.479-14.67h2.865Zm-9.291,0h6.586V193.344l-.319.582Z" fill="#292744"/>
            <path id="Path_93451" data-name="Path 93451" d="M411.583,215.052l-1.526-1.047a7.017,7.017,0,0,0,1.424-3.925v-2.429h2.632v2.108a6.63,6.63,0,0,1-.719,2.937A6.9,6.9,0,0,1,411.583,215.052Z" fill="#292744"/>
            <path id="Path_93452" data-name="Path 93452" d="M430.077,195.191a4.911,4.911,0,0,1-.836,2.821,5.682,5.682,0,0,1-2.261,1.933,6.064,6.064,0,0,1,2.624,2.079,5.231,5.231,0,0,1,.967,3.1,5.532,5.532,0,0,1-1.853,4.376,8.127,8.127,0,0,1-9.771-.007,5.559,5.559,0,0,1-1.839-4.369,5.391,5.391,0,0,1,.938-3.1,5.839,5.839,0,0,1,2.6-2.093A5.558,5.558,0,0,1,418.416,198a4.991,4.991,0,0,1-.814-2.806,5.472,5.472,0,0,1,1.716-4.246,7.286,7.286,0,0,1,9.036,0A5.46,5.46,0,0,1,430.077,195.191Zm-2.2,9.872a3.9,3.9,0,0,0-1.127-2.893,4,4,0,0,0-2.945-1.12,3.784,3.784,0,0,0-4.012,4.013,3.758,3.758,0,0,0,1.068,2.835,4.773,4.773,0,0,0,5.94-.007A3.75,3.75,0,0,0,427.882,205.063Zm-4.042-13.478a3.474,3.474,0,0,0-2.567.981,4.062,4.062,0,0,0-.014,5.278,3.842,3.842,0,0,0,5.162,0,3.978,3.978,0,0,0-.037-5.242A3.422,3.422,0,0,0,423.84,191.585Z" fill="#292744"/>
            <path id="Path_93453" data-name="Path 93453" d="M442.8,210.835h-2.7V192.908l-5.424,1.992v-2.442l7.706-2.894h.422Z" fill="#292744"/>
          </g>
          <g id="Group_15743" data-name="Group 15743">
            <g id="Group_15741" data-name="Group 15741">
              <g id="Group_15739" data-name="Group 15739">
                <rect id="Rectangle_7339" data-name="Rectangle 7339" width="1" height="12.984" transform="translate(324.295 223.906)" fill="#60bb7d"/>
              </g>
              <g id="Group_15740" data-name="Group 15740">
                <path id="Path_93454" data-name="Path 93454" d="M318.952,230.744l-.723-.69,6.565-6.871,6.564,6.871-.723.69-5.842-6.114Z" fill="#60bb7d"/>
              </g>
            </g>
            <g id="Group_15742" data-name="Group 15742">
              <path id="Path_93455" data-name="Path 93455" d="M342.075,230.74h3.2v1.379h-3.2v3.622H340.61v-3.622h-3.2V230.74h3.2v-3.347h1.465Z" fill="#60bb7d"/>
              <path id="Path_93456" data-name="Path 93456" d="M354.086,232a6.666,6.666,0,0,1-.874,3.8,3.632,3.632,0,0,1-5.45.028,6.328,6.328,0,0,1-.914-3.635v-1.945a6.515,6.515,0,0,1,.875-3.757,3.7,3.7,0,0,1,5.464-.043,6.285,6.285,0,0,1,.9,3.658Zm-1.457-1.993a5.348,5.348,0,0,0-.52-2.7,1.789,1.789,0,0,0-1.646-.846,1.765,1.765,0,0,0-1.63.843,5.2,5.2,0,0,0-.528,2.591v2.331a5.412,5.412,0,0,0,.54,2.745,1.784,1.784,0,0,0,1.633.885,1.76,1.76,0,0,0,1.6-.835,5.217,5.217,0,0,0,.548-2.63Z" fill="#60bb7d"/>
              <path id="Path_93457" data-name="Path 93457" d="M356.055,239.175l-.828-.567a3.8,3.8,0,0,0,.772-2.127v-1.314h1.426v1.141a3.583,3.583,0,0,1-.39,1.591A3.726,3.726,0,0,1,356.055,239.175Z" fill="#60bb7d"/>
              <path id="Path_93458" data-name="Path 93458" d="M366.072,228.417a2.665,2.665,0,0,1-.453,1.528,3.081,3.081,0,0,1-1.225,1.047,3.281,3.281,0,0,1,1.422,1.127,2.832,2.832,0,0,1,.524,1.677,3,3,0,0,1-1,2.371,4.4,4.4,0,0,1-5.293,0,3.012,3.012,0,0,1-1-2.367,2.922,2.922,0,0,1,.508-1.677,3.167,3.167,0,0,1,1.406-1.135,3,3,0,0,1-1.2-1.047,2.7,2.7,0,0,1-.442-1.52,2.967,2.967,0,0,1,.93-2.3,3.949,3.949,0,0,1,4.9,0A2.959,2.959,0,0,1,366.072,228.417Zm-1.189,5.348a2.112,2.112,0,0,0-.611-1.568,2.164,2.164,0,0,0-1.594-.606,2.052,2.052,0,0,0-2.174,2.174,2.032,2.032,0,0,0,.579,1.535,2.586,2.586,0,0,0,3.217,0A2.032,2.032,0,0,0,364.883,233.765Zm-2.19-7.3A1.875,1.875,0,0,0,361.3,227a2.195,2.195,0,0,0-.008,2.858,2.08,2.08,0,0,0,2.8,0,2.155,2.155,0,0,0-.021-2.839A1.852,1.852,0,0,0,362.693,226.464Z" fill="#60bb7d"/>
              <path id="Path_93459" data-name="Path 93459" d="M375.579,226.243l-4.749,10.648H369.3l4.733-10.27h-6.206v-1.2h7.75Z" fill="#60bb7d"/>
              <path id="Path_93460" data-name="Path 93460" d="M381.32,232.237a12.137,12.137,0,0,1,.477-3.419,9.915,9.915,0,0,1,1.421-2.976,6.04,6.04,0,0,1,1.961-1.89l.3.96a6.283,6.283,0,0,0-1.886,2.694,11.673,11.673,0,0,0-.807,4.056l-.008.669a11.728,11.728,0,0,0,1.111,5.277,6.3,6.3,0,0,0,1.59,2.1l-.3.89a6.232,6.232,0,0,1-2-1.953A10.942,10.942,0,0,1,381.32,232.237Z" fill="#60bb7d"/>
              <path id="Path_93461" data-name="Path 93461" d="M391.061,230.74h3.2v1.379h-3.2v3.622H389.6v-3.622h-3.2V230.74h3.2v-3.347h1.464Z" fill="#60bb7d"/>
              <path id="Path_93462" data-name="Path 93462" d="M400.67,236.891H399.2v-9.71l-2.937,1.078v-1.323l4.173-1.567h.229Z" fill="#60bb7d"/>
              <path id="Path_93463" data-name="Path 93463" d="M405.042,239.175l-.827-.567a3.8,3.8,0,0,0,.771-2.127v-1.314h1.426v1.141a3.583,3.583,0,0,1-.39,1.591A3.713,3.713,0,0,1,405.042,239.175Z" fill="#60bb7d"/>
              <path id="Path_93464" data-name="Path 93464" d="M412.893,236.891h-1.465v-9.71l-2.938,1.078v-1.323l4.174-1.567h.229Z" fill="#60bb7d"/>
              <path id="Path_93465" data-name="Path 93465" d="M419.28,230.449h1.1A2.408,2.408,0,0,0,422,229.9a1.812,1.812,0,0,0,.59-1.425,1.778,1.778,0,0,0-2.008-2.016,2.09,2.09,0,0,0-1.508.539,1.887,1.887,0,0,0-.563,1.43h-1.457a2.927,2.927,0,0,1,1-2.265,3.629,3.629,0,0,1,2.532-.9,3.588,3.588,0,0,1,2.544.858,3.1,3.1,0,0,1,.921,2.386,2.509,2.509,0,0,1-.485,1.449,2.916,2.916,0,0,1-1.318,1.048A2.827,2.827,0,0,1,423.7,232a2.751,2.751,0,0,1,.516,1.692,3.126,3.126,0,0,1-1.009,2.45,3.773,3.773,0,0,1-2.622.906,3.877,3.877,0,0,1-2.627-.875,2.9,2.9,0,0,1-1.012-2.307h1.465a1.873,1.873,0,0,0,.591,1.449,2.247,2.247,0,0,0,1.583.543,2.2,2.2,0,0,0,1.614-.551,2.124,2.124,0,0,0,.56-1.583,1.925,1.925,0,0,0-.615-1.535,2.674,2.674,0,0,0-1.772-.552h-1.1Z" fill="#60bb7d"/>
              <path id="Path_93466" data-name="Path 93466" d="M426.093,227.629a2.323,2.323,0,0,1,.657-1.7,2.473,2.473,0,0,1,3.387,0,2.408,2.408,0,0,1,.649,1.745v.559a2.3,2.3,0,0,1-.657,1.7,2.266,2.266,0,0,1-1.674.658,2.313,2.313,0,0,1-1.693-.658,2.341,2.341,0,0,1-.669-1.752Zm1.087.6a1.491,1.491,0,0,0,.346,1.015,1.167,1.167,0,0,0,.929.4,1.145,1.145,0,0,0,.9-.386,1.542,1.542,0,0,0,.342-1.058v-.577a1.527,1.527,0,0,0-.338-1.018,1.257,1.257,0,0,0-1.843,0,1.577,1.577,0,0,0-.338,1.05Zm1.606,7.793-.827-.52,5.6-8.963.827.521Zm2.891-1.945a2.313,2.313,0,0,1,.657-1.7,2.274,2.274,0,0,1,1.689-.665,2.3,2.3,0,0,1,1.694.661,2.379,2.379,0,0,1,.661,1.757v.559a2.314,2.314,0,0,1-.657,1.7,2.263,2.263,0,0,1-1.682.666,2.317,2.317,0,0,1-1.693-.658,2.343,2.343,0,0,1-.669-1.753Zm1.087.61a1.508,1.508,0,0,0,.345,1.023,1.17,1.17,0,0,0,.93.4,1.137,1.137,0,0,0,.9-.39,1.562,1.562,0,0,0,.339-1.062v-.584a1.493,1.493,0,0,0-.343-1.018,1.149,1.149,0,0,0-.917-.4,1.166,1.166,0,0,0-.91.391,1.521,1.521,0,0,0-.349,1.053Z" fill="#60bb7d"/>
              <path id="Path_93467" data-name="Path 93467" d="M441.545,232.315a12.191,12.191,0,0,1-.461,3.367,9.962,9.962,0,0,1-1.41,2.973,6.175,6.175,0,0,1-1.989,1.938l-.307-.89a6.331,6.331,0,0,0,1.949-2.887,12.491,12.491,0,0,0,.753-4.343v-.252a12.97,12.97,0,0,0-.347-3.076,10.392,10.392,0,0,0-.964-2.547,5.906,5.906,0,0,0-1.391-1.757l.307-.889a6.132,6.132,0,0,1,1.981,1.921,9.961,9.961,0,0,1,1.41,2.969A12.446,12.446,0,0,1,441.545,232.315Z" fill="#60bb7d"/>
            </g>
          </g>
        </g>
        <g id="Group_15754" data-name="Group 15754">
          <g id="Group_15745" data-name="Group 15745">
            <path id="Path_93468" data-name="Path 93468" d="M355.119,145V134.335h3.486a4.049,4.049,0,0,1,2.611.718,2.587,2.587,0,0,1,.876,2.124,2.168,2.168,0,0,1-.426,1.322,2.752,2.752,0,0,1-1.156.89,2.476,2.476,0,0,1,1.365.919,2.636,2.636,0,0,1,.5,1.615,2.856,2.856,0,0,1-.93,2.256,3.849,3.849,0,0,1-2.63.82Zm1.406-6.115h2.123a2.225,2.225,0,0,0,1.477-.463,1.55,1.55,0,0,0,.553-1.254,1.526,1.526,0,0,0-.513-1.282,2.523,2.523,0,0,0-1.56-.4h-2.08Zm0,1.128v3.838h2.322a2.228,2.228,0,0,0,1.548-.51,1.782,1.782,0,0,0,.568-1.4q0-1.926-2.094-1.926Z" fill="#656572"/>
            <path id="Path_93469" data-name="Path 93469" d="M371.627,135.485H368.2V145h-1.4v-9.514h-3.42v-1.15h8.246Z" fill="#656572"/>
            <path id="Path_93470" data-name="Path 93470" d="M380.849,141.616a3.923,3.923,0,0,1-1.249,2.611,4.092,4.092,0,0,1-2.794.919,3.759,3.759,0,0,1-3.029-1.355,5.452,5.452,0,0,1-1.139-3.625V139.14a6.078,6.078,0,0,1,.531-2.615,3.958,3.958,0,0,1,1.506-1.732,4.183,4.183,0,0,1,2.256-.6,3.857,3.857,0,0,1,2.724.948,3.979,3.979,0,0,1,1.194,2.626h-1.414a3.073,3.073,0,0,0-.794-1.851,2.407,2.407,0,0,0-1.71-.573,2.515,2.515,0,0,0-2.114,1,4.579,4.579,0,0,0-.765,2.837v1.033a4.714,4.714,0,0,0,.724,2.764,2.346,2.346,0,0,0,2.03,1.026,2.7,2.7,0,0,0,1.8-.531,2.944,2.944,0,0,0,.832-1.849Z" fill="#656572"/>
            <path id="Path_93471" data-name="Path 93471" d="M385.375,141.023H381.8v-1.106h3.574Z" fill="#656572"/>
            <path id="Path_93472" data-name="Path 93472" d="M394.413,134.335v7.251a3.405,3.405,0,0,1-.948,2.469,3.827,3.827,0,0,1-2.553,1.076l-.373.015a3.99,3.99,0,0,1-2.791-.945,3.381,3.381,0,0,1-1.055-2.6v-7.266h1.392v7.222A2.225,2.225,0,0,0,390.539,144a2.466,2.466,0,0,0,1.827-.637,2.436,2.436,0,0,0,.634-1.794v-7.23Z" fill="#656572"/>
            <path id="Path_93473" data-name="Path 93473" d="M399.774,140.246a6.607,6.607,0,0,1-2.632-1.278,2.441,2.441,0,0,1-.825-1.871,2.58,2.58,0,0,1,1.007-2.084,4,4,0,0,1,2.619-.824,4.37,4.37,0,0,1,1.959.425,3.219,3.219,0,0,1,1.333,1.172,2.994,2.994,0,0,1,.472,1.633h-1.413a1.95,1.95,0,0,0-.615-1.525,2.5,2.5,0,0,0-1.736-.555,2.568,2.568,0,0,0-1.623.458,1.534,1.534,0,0,0-.582,1.273,1.379,1.379,0,0,0,.553,1.1,5.43,5.43,0,0,0,1.883.826,8.74,8.74,0,0,1,2.08.824,3.172,3.172,0,0,1,1.113,1.051,2.689,2.689,0,0,1,.362,1.414,2.49,2.49,0,0,1-1.01,2.076,4.311,4.311,0,0,1-2.7.78,5.025,5.025,0,0,1-2.051-.421,3.444,3.444,0,0,1-1.468-1.154,2.808,2.808,0,0,1-.517-1.662h1.414a1.838,1.838,0,0,0,.714,1.527,3.01,3.01,0,0,0,1.908.56,2.765,2.765,0,0,0,1.707-.454,1.476,1.476,0,0,0,.593-1.238,1.448,1.448,0,0,0-.549-1.212A6.331,6.331,0,0,0,399.774,140.246Z" fill="#656572"/>
            <path id="Path_93474" data-name="Path 93474" d="M405.531,145V134.335h3.01a4.848,4.848,0,0,1,2.461.616,4.149,4.149,0,0,1,1.651,1.75,5.691,5.691,0,0,1,.59,2.608v.681a5.72,5.72,0,0,1-.582,2.644A4.094,4.094,0,0,1,411,144.377a5.149,5.149,0,0,1-2.516.622Zm1.406-9.514v8.365h1.479a3.218,3.218,0,0,0,2.531-1.012,4.18,4.18,0,0,0,.9-2.881v-.623a4.245,4.245,0,0,0-.854-2.826,3.036,3.036,0,0,0-2.42-1.023Z" fill="#656572"/>
          </g>
          <g id="Group_15749" data-name="Group 15749">
            <g id="Group_15746" data-name="Group 15746">
              <path id="Path_93475" data-name="Path 93475" d="M505.01,135.5H491.26a.5.5,0,0,1,0-1h13.75a.5.5,0,0,1,0,1Z" fill="#b5b5c6"/>
            </g>
            <g id="Group_15747" data-name="Group 15747">
              <path id="Path_93476" data-name="Path 93476" d="M505.01,145.5H491.26a.5.5,0,0,1,0-1h13.75a.5.5,0,0,1,0,1Z" fill="#b5b5c6"/>
            </g>
            <g id="Group_15748" data-name="Group 15748">
              <path id="Path_93477" data-name="Path 93477" d="M505.01,140.5H491.26a.5.5,0,0,1,0-1h13.75a.5.5,0,0,1,0,1Z" fill="#b5b5c6"/>
            </g>
          </g>
          <g id="Group_15753" data-name="Group 15753">
            <g id="Group_15750" data-name="Group 15750">
              <path id="Path_93478" data-name="Path 93478" d="M278.256,140.5h-15a.5.5,0,0,1,0-1h15a.5.5,0,0,1,0,1Z" fill="#b5b5c6"/>
            </g>
            <g id="Group_15751" data-name="Group 15751">
              <path id="Path_93479" data-name="Path 93479" d="M263.256,140.5a.5.5,0,0,1-.346-.861l7.5-7.167a.5.5,0,0,1,.692.723l-7.5,7.166A.5.5,0,0,1,263.256,140.5Z" fill="#b5b5c6"/>
            </g>
            <g id="Group_15752" data-name="Group 15752">
              <path id="Path_93480" data-name="Path 93480" d="M270.756,147.667a.5.5,0,0,1-.346-.139l-7.5-7.167a.5.5,0,1,1,.692-.722l7.5,7.166a.5.5,0,0,1-.346.862Z" fill="#b5b5c6"/>
            </g>
          </g>
        </g>
        <g id="Group_15755" data-name="Group 15755">
          <circle id="Ellipse_490" data-name="Ellipse 490" cx="2" cy="2" r="2" transform="translate(382 500)" fill="#656572"/>
          <circle id="Ellipse_491" data-name="Ellipse 491" cx="2" cy="2" r="2" transform="translate(375.484 500)" fill="#e6e4ea"/>
          <circle id="Ellipse_492" data-name="Ellipse 492" cx="2" cy="2" r="2" transform="translate(388.516 500)" fill="#e6e4ea"/>
        </g>
        <g id="Group_15761" data-name="Group 15761">
          <g id="Group_15756" data-name="Group 15756">
            <rect id="Rectangle_7340" data-name="Rectangle 7340" width="1" height="33.75" transform="translate(333.423 513.625)" fill="#e6e4ea"/>
          </g>
          <g id="Group_15757" data-name="Group 15757">
            <rect id="Rectangle_7341" data-name="Rectangle 7341" width="1" height="33.75" transform="translate(433.59 513.625)" fill="#e6e4ea"/>
          </g>
          <g id="Group_15758" data-name="Group 15758">
            <path id="Path_93481" data-name="Path 93481" d="M266.309,525.51a5.279,5.279,0,0,1-.422,2.188,3.2,3.2,0,0,1-1.2,1.427,3.3,3.3,0,0,1-4.8-1.415,5.05,5.05,0,0,1-.443-2.124v-.615a5.216,5.216,0,0,1,.428-2.174,3.164,3.164,0,0,1,3-1.945,3.31,3.31,0,0,1,1.808.495,3.2,3.2,0,0,1,1.2,1.435,5.31,5.31,0,0,1,.422,2.189Zm-1.12-.551a3.826,3.826,0,0,0-.609-2.329,2.01,2.01,0,0,0-1.7-.812,1.989,1.989,0,0,0-1.679.812,3.75,3.75,0,0,0-.63,2.253v.627a3.823,3.823,0,0,0,.619,2.311,2.165,2.165,0,0,0,3.389.047,3.8,3.8,0,0,0,.615-2.276Z" fill="#b5b5c6"/>
            <path id="Path_93482" data-name="Path 93482" d="M273.182,526.4a3.79,3.79,0,0,1-.663,2.332,2.121,2.121,0,0,1-1.792.885,2.327,2.327,0,0,1-1.817-.732v3.053h-1.084V523.16h.99l.053.7a2.232,2.232,0,0,1,1.84-.82,2.163,2.163,0,0,1,1.808.861,3.84,3.84,0,0,1,.665,2.4Zm-1.084-.123a2.806,2.806,0,0,0-.457-1.693,1.473,1.473,0,0,0-1.254-.621,1.593,1.593,0,0,0-1.477.873v3.029a1.6,1.6,0,0,0,1.488.867,1.467,1.467,0,0,0,1.24-.618A3.061,3.061,0,0,0,272.1,526.277Z" fill="#b5b5c6"/>
            <path id="Path_93483" data-name="Path 93483" d="M277.189,529.617a2.77,2.77,0,0,1-2.1-.846,3.145,3.145,0,0,1-.809-2.265v-.2a3.8,3.8,0,0,1,.361-1.685,2.811,2.811,0,0,1,1.007-1.16,2.539,2.539,0,0,1,1.4-.419,2.379,2.379,0,0,1,1.922.814,3.529,3.529,0,0,1,.685,2.333v.451h-4.295a2.25,2.25,0,0,0,.548,1.514,1.722,1.722,0,0,0,1.333.577,1.892,1.892,0,0,0,.973-.234,2.442,2.442,0,0,0,.7-.621l.662.516A2.662,2.662,0,0,1,277.189,529.617Zm-.134-5.683a1.447,1.447,0,0,0-1.1.477,2.325,2.325,0,0,0-.551,1.339h3.176v-.082a2.064,2.064,0,0,0-.445-1.28A1.361,1.361,0,0,0,277.055,523.934Z" fill="#b5b5c6"/>
            <path id="Path_93484" data-name="Path 93484" d="M281.941,523.16l.036.8a2.31,2.31,0,0,1,1.9-.914q2.01,0,2.027,2.267v4.19h-1.084v-4.2a1.462,1.462,0,0,0-.313-1.014,1.256,1.256,0,0,0-.958-.328,1.568,1.568,0,0,0-.926.281,1.91,1.91,0,0,0-.621.738V529.5h-1.084v-6.34Z" fill="#b5b5c6"/>
            <path id="Path_93485" data-name="Path 93485" d="M259.963,539.622l.433-4.254h4.372v1h-3.452l-.257,2.326a2.752,2.752,0,0,1,1.423-.369,2.353,2.353,0,0,1,1.852.771,3.019,3.019,0,0,1,.685,2.083,2.917,2.917,0,0,1-.711,2.077,2.6,2.6,0,0,1-1.99.759,2.694,2.694,0,0,1-1.845-.627,2.5,2.5,0,0,1-.815-1.735h1.026a1.72,1.72,0,0,0,.521,1.1,1.62,1.62,0,0,0,1.113.372,1.463,1.463,0,0,0,1.187-.516,2.156,2.156,0,0,0,.43-1.424,1.982,1.982,0,0,0-.465-1.374,1.588,1.588,0,0,0-1.24-.518,1.789,1.789,0,0,0-1.113.31l-.287.235Z" fill="#656572"/>
            <path id="Path_93486" data-name="Path 93486" d="M274.348,537.595a1.983,1.983,0,0,1-.337,1.136,2.3,2.3,0,0,1-.911.78,2.438,2.438,0,0,1,1.057.838,2.106,2.106,0,0,1,.39,1.248,2.228,2.228,0,0,1-.747,1.763,3.273,3.273,0,0,1-3.938,0,2.238,2.238,0,0,1-.741-1.76,2.171,2.171,0,0,1,.378-1.248,2.353,2.353,0,0,1,1.046-.844,2.242,2.242,0,0,1-.9-.779,2.015,2.015,0,0,1-.328-1.131,2.205,2.205,0,0,1,.692-1.711,2.934,2.934,0,0,1,3.641,0A2.2,2.2,0,0,1,274.348,537.595Zm-.885,3.978a1.576,1.576,0,0,0-.454-1.166,1.612,1.612,0,0,0-1.187-.451,1.524,1.524,0,0,0-1.617,1.617,1.514,1.514,0,0,0,.431,1.143,1.923,1.923,0,0,0,2.393,0A1.511,1.511,0,0,0,273.463,541.573Zm-1.629-5.431a1.4,1.4,0,0,0-1.034.395,1.635,1.635,0,0,0-.006,2.127,1.549,1.549,0,0,0,2.08,0,1.6,1.6,0,0,0-.015-2.112A1.375,1.375,0,0,0,271.834,536.142Z" fill="#656572"/>
            <path id="Path_93487" data-name="Path 93487" d="M281.5,543.9h-5.59v-.779l2.953-3.281a6.961,6.961,0,0,0,.9-1.21,2.022,2.022,0,0,0,.249-.964,1.529,1.529,0,0,0-.4-1.1,1.413,1.413,0,0,0-1.078-.427,1.673,1.673,0,0,0-1.257.46,1.754,1.754,0,0,0-.448,1.28h-1.084a2.515,2.515,0,0,1,.759-1.9,2.809,2.809,0,0,1,2.03-.727,2.7,2.7,0,0,1,1.881.624,2.128,2.128,0,0,1,.691,1.661,4.88,4.88,0,0,1-1.605,3l-2.285,2.479H281.5Z" fill="#656572"/>
            <path id="Path_93488" data-name="Path 93488" d="M283.148,539.622l.434-4.254h4.371v1H284.5l-.258,2.326a2.756,2.756,0,0,1,1.424-.369,2.352,2.352,0,0,1,1.851.771,3.014,3.014,0,0,1,.686,2.083,2.913,2.913,0,0,1-.712,2.077,2.594,2.594,0,0,1-1.989.759,2.7,2.7,0,0,1-1.846-.627,2.5,2.5,0,0,1-.814-1.735h1.025a1.716,1.716,0,0,0,.522,1.1,1.62,1.62,0,0,0,1.113.372,1.461,1.461,0,0,0,1.186-.516,2.156,2.156,0,0,0,.431-1.424,1.977,1.977,0,0,0-.466-1.374,1.585,1.585,0,0,0-1.239-.518,1.785,1.785,0,0,0-1.113.31l-.287.235Z" fill="#656572"/>
            <path id="Path_93489" data-name="Path 93489" d="M289.465,545.6l-.615-.422a2.832,2.832,0,0,0,.574-1.582v-.979h1.06v.85a2.658,2.658,0,0,1-.29,1.183A2.771,2.771,0,0,1,289.465,545.6Z" fill="#656572"/>
            <path id="Path_93490" data-name="Path 93490" d="M297.334,543.9h-5.59v-.779l2.953-3.281a6.961,6.961,0,0,0,.9-1.21,2.011,2.011,0,0,0,.25-.964,1.53,1.53,0,0,0-.4-1.1,1.413,1.413,0,0,0-1.078-.427,1.673,1.673,0,0,0-1.257.46,1.754,1.754,0,0,0-.448,1.28H291.58a2.515,2.515,0,0,1,.759-1.9,2.809,2.809,0,0,1,2.03-.727,2.7,2.7,0,0,1,1.881.624,2.128,2.128,0,0,1,.691,1.661,4.88,4.88,0,0,1-1.605,3l-2.285,2.479h4.283Z" fill="#656572"/>
            <path id="Path_93491" data-name="Path 93491" d="M303.059,541.034h1.183v.885h-1.183v1.98h-1.09v-1.98h-3.885v-.639l3.82-5.912h1.155Zm-3.745,0h2.655v-4.183l-.129.234Z" fill="#656572"/>
          </g>
          <g id="Group_15759" data-name="Group 15759">
            <path id="Path_93492" data-name="Path 93492" d="M373.714,529.5h-1.131v-3.943h-4.3V529.5h-1.125v-8.531h1.125v3.668h4.3v-3.668h1.131Z" fill="#b5b5c6"/>
            <path id="Path_93493" data-name="Path 93493" d="M375.548,521.478a.649.649,0,0,1,.161-.445.6.6,0,0,1,.477-.181.615.615,0,0,1,.481.181.642.642,0,0,1,.164.445.671.671,0,0,1-1.122.44A.628.628,0,0,1,375.548,521.478Zm1.172,8.022h-1.084v-6.34h1.084Z" fill="#b5b5c6"/>
            <path id="Path_93494" data-name="Path 93494" d="M378.2,526.277a3.726,3.726,0,0,1,.686-2.358,2.364,2.364,0,0,1,3.627-.056l.052-.7h.991v6.188a2.575,2.575,0,0,1-.73,1.939,2.689,2.689,0,0,1-1.96.709,3.268,3.268,0,0,1-1.342-.293,2.3,2.3,0,0,1-1-.8l.562-.65a2.12,2.12,0,0,0,1.705.861,1.658,1.658,0,0,0,1.233-.445,1.7,1.7,0,0,0,.443-1.254v-.545a2.23,2.23,0,0,1-1.776.75,2.166,2.166,0,0,1-1.8-.9A3.919,3.919,0,0,1,378.2,526.277Zm1.09.123a2.843,2.843,0,0,0,.44,1.685,1.428,1.428,0,0,0,1.23.612,1.587,1.587,0,0,0,1.506-.931v-2.9a1.607,1.607,0,0,0-1.494-.908,1.442,1.442,0,0,0-1.237.615A3.1,3.1,0,0,0,379.286,526.4Z" fill="#b5b5c6"/>
            <path id="Path_93495" data-name="Path 93495" d="M386.27,523.928a2.306,2.306,0,0,1,1.875-.885q2.01,0,2.028,2.267v4.19h-1.084v-4.2a1.462,1.462,0,0,0-.314-1.014,1.254,1.254,0,0,0-.958-.328,1.565,1.565,0,0,0-.925.281,1.921,1.921,0,0,0-.622.738V529.5h-1.084v-9h1.084Z" fill="#b5b5c6"/>
            <path id="Path_93496" data-name="Path 93496" d="M367.374,539.622l.434-4.254h4.371v1h-3.452l-.257,2.326a2.753,2.753,0,0,1,1.424-.369,2.352,2.352,0,0,1,1.851.771,3.019,3.019,0,0,1,.686,2.083,2.917,2.917,0,0,1-.712,2.077,2.6,2.6,0,0,1-1.99.759,2.7,2.7,0,0,1-1.845-.627,2.5,2.5,0,0,1-.815-1.735H368.1a1.72,1.72,0,0,0,.521,1.1,1.622,1.622,0,0,0,1.113.372,1.463,1.463,0,0,0,1.187-.516,2.156,2.156,0,0,0,.431-1.424,1.982,1.982,0,0,0-.466-1.374,1.588,1.588,0,0,0-1.239-.518,1.79,1.79,0,0,0-1.114.31l-.287.235Z" fill="#656572"/>
            <path id="Path_93497" data-name="Path 93497" d="M381.759,537.595a1.983,1.983,0,0,1-.337,1.136,2.291,2.291,0,0,1-.911.78,2.433,2.433,0,0,1,1.057.838,2.106,2.106,0,0,1,.39,1.248,2.228,2.228,0,0,1-.747,1.763,3.273,3.273,0,0,1-3.938,0,2.238,2.238,0,0,1-.741-1.76,2.17,2.17,0,0,1,.378-1.248,2.353,2.353,0,0,1,1.046-.844,2.232,2.232,0,0,1-.9-.779,2.008,2.008,0,0,1-.329-1.131,2.205,2.205,0,0,1,.692-1.711,2.934,2.934,0,0,1,3.641,0A2.2,2.2,0,0,1,381.759,537.595Zm-.885,3.978a1.573,1.573,0,0,0-.454-1.166,1.61,1.61,0,0,0-1.187-.451,1.526,1.526,0,0,0-1.617,1.617,1.514,1.514,0,0,0,.431,1.143,1.923,1.923,0,0,0,2.393,0A1.511,1.511,0,0,0,380.874,541.573Zm-1.629-5.431a1.4,1.4,0,0,0-1.034.395,1.635,1.635,0,0,0-.006,2.127,1.549,1.549,0,0,0,2.08,0,1.6,1.6,0,0,0-.015-2.112A1.375,1.375,0,0,0,379.245,536.142Z" fill="#656572"/>
            <path id="Path_93498" data-name="Path 93498" d="M387.477,540.149a2.642,2.642,0,0,1-.811.651,2.2,2.2,0,0,1-1.034.246,2.274,2.274,0,0,1-1.286-.363,2.359,2.359,0,0,1-.847-1.023,3.488,3.488,0,0,1-.3-1.456,3.563,3.563,0,0,1,.325-1.541,2.393,2.393,0,0,1,.923-1.049,2.634,2.634,0,0,1,1.395-.363,2.382,2.382,0,0,1,2,.946,4.131,4.131,0,0,1,.729,2.581v.317a5.513,5.513,0,0,1-.984,3.635,3.78,3.78,0,0,1-2.971,1.175H384.4v-.92h.229a2.58,2.58,0,0,0,2.847-2.836Zm-1.669,0a1.668,1.668,0,0,0,1-.334,1.958,1.958,0,0,0,.671-.826v-.433a2.983,2.983,0,0,0-.463-1.735,1.415,1.415,0,0,0-2.32-.12,2.261,2.261,0,0,0-.433,1.445,2.352,2.352,0,0,0,.418,1.438A1.328,1.328,0,0,0,385.808,540.149Z" fill="#656572"/>
            <path id="Path_93499" data-name="Path 93499" d="M395.411,540.261a4.963,4.963,0,0,1-.65,2.83,2.7,2.7,0,0,1-4.055.02,4.711,4.711,0,0,1-.68-2.7V538.96a4.843,4.843,0,0,1,.651-2.8,2.75,2.75,0,0,1,4.066-.032,4.676,4.676,0,0,1,.668,2.721Zm-1.084-1.483a3.964,3.964,0,0,0-.387-2.006,1.33,1.33,0,0,0-1.224-.63,1.314,1.314,0,0,0-1.213.627,3.874,3.874,0,0,0-.393,1.927v1.735a4.031,4.031,0,0,0,.4,2.042,1.328,1.328,0,0,0,1.215.659,1.311,1.311,0,0,0,1.193-.621,3.892,3.892,0,0,0,.407-1.957Z" fill="#656572"/>
            <path id="Path_93500" data-name="Path 93500" d="M396.876,545.6l-.615-.422a2.832,2.832,0,0,0,.574-1.582v-.979h1.06v.85a2.658,2.658,0,0,1-.29,1.183A2.771,2.771,0,0,1,396.876,545.6Z" fill="#656572"/>
            <path id="Path_93501" data-name="Path 93501" d="M403.731,541.034h1.184v.885h-1.184v1.98h-1.089v-1.98h-3.885v-.639l3.82-5.912h1.154Zm-3.744,0h2.655v-4.183l-.129.234Z" fill="#656572"/>
            <path id="Path_93502" data-name="Path 93502" d="M410.147,535.362v.92h-.2a2.855,2.855,0,0,0-2.015.75,3.127,3.127,0,0,0-.868,2.045,2.314,2.314,0,0,1,1.84-.773,2.213,2.213,0,0,1,1.779.785,3.441,3.441,0,0,1-.053,4.137,2.474,2.474,0,0,1-1.925.791,2.434,2.434,0,0,1-1.986-.941,3.725,3.725,0,0,1-.762-2.423v-.416a5.614,5.614,0,0,1,1.005-3.6,3.693,3.693,0,0,1,2.991-1.275Zm-1.423,3.844a1.821,1.821,0,0,0-1.676,1.172v.4a2.8,2.8,0,0,0,.474,1.7,1.424,1.424,0,0,0,1.184.644,1.378,1.378,0,0,0,1.151-.539,2.591,2.591,0,0,0-.005-2.833A1.365,1.365,0,0,0,408.724,539.206Z" fill="#656572"/>
          </g>
          <g id="Group_15760" data-name="Group 15760">
            <path id="Path_93503" data-name="Path 93503" d="M464.555,528.58H468.6v.92h-5.174v-8.531h1.131Z" fill="#b5b5c6"/>
            <path id="Path_93504" data-name="Path 93504" d="M469.424,526.272a3.744,3.744,0,0,1,.366-1.676,2.733,2.733,0,0,1,1.02-1.149,2.776,2.776,0,0,1,1.491-.4,2.671,2.671,0,0,1,2.094.9,3.442,3.442,0,0,1,.8,2.384v.076a3.778,3.778,0,0,1-.354,1.661,2.687,2.687,0,0,1-1.014,1.146,2.809,2.809,0,0,1-1.515.41,2.667,2.667,0,0,1-2.088-.9,3.429,3.429,0,0,1-.8-2.373Zm1.09.128a2.716,2.716,0,0,0,.489,1.694,1.659,1.659,0,0,0,2.622-.009,2.967,2.967,0,0,0,.486-1.813,2.709,2.709,0,0,0-.495-1.691,1.647,1.647,0,0,0-2.61-.009A2.945,2.945,0,0,0,470.514,526.4Z" fill="#b5b5c6"/>
            <path id="Path_93505" data-name="Path 93505" d="M482.168,528.006l1.219-4.846h1.084l-1.846,6.34h-.879l-1.541-4.8-1.5,4.8h-.879l-1.84-6.34h1.078l1.248,4.746,1.477-4.746h.873Z" fill="#b5b5c6"/>
            <path id="Path_93506" data-name="Path 93506" d="M463.641,539.622l.433-4.254h4.371v1h-3.451l-.258,2.326a2.756,2.756,0,0,1,1.424-.369,2.354,2.354,0,0,1,1.852.771,3.019,3.019,0,0,1,.685,2.083,2.913,2.913,0,0,1-.712,2.077,2.592,2.592,0,0,1-1.989.759,2.7,2.7,0,0,1-1.846-.627,2.5,2.5,0,0,1-.814-1.735h1.025a1.726,1.726,0,0,0,.522,1.1,1.62,1.62,0,0,0,1.113.372,1.464,1.464,0,0,0,1.187-.516,2.156,2.156,0,0,0,.43-1.424,1.977,1.977,0,0,0-.466-1.374,1.585,1.585,0,0,0-1.239-.518,1.785,1.785,0,0,0-1.113.31l-.287.235Z" fill="#656572"/>
            <path id="Path_93507" data-name="Path 93507" d="M478.025,537.595a1.976,1.976,0,0,1-.337,1.136,2.284,2.284,0,0,1-.911.78,2.435,2.435,0,0,1,1.058.838,2.106,2.106,0,0,1,.39,1.248,2.225,2.225,0,0,1-.748,1.763,3.271,3.271,0,0,1-3.937,0,2.238,2.238,0,0,1-.741-1.76,2.17,2.17,0,0,1,.378-1.248,2.347,2.347,0,0,1,1.046-.844,2.242,2.242,0,0,1-.9-.779,2.007,2.007,0,0,1-.328-1.131,2.2,2.2,0,0,1,.691-1.711,2.936,2.936,0,0,1,3.642,0A2.2,2.2,0,0,1,478.025,537.595Zm-.884,3.978a1.573,1.573,0,0,0-.455-1.166,1.608,1.608,0,0,0-1.186-.451,1.524,1.524,0,0,0-1.617,1.617,1.514,1.514,0,0,0,.43,1.143,1.925,1.925,0,0,0,2.394,0A1.511,1.511,0,0,0,477.141,541.573Zm-1.629-5.431a1.4,1.4,0,0,0-1.035.395,1.637,1.637,0,0,0-.005,2.127,1.549,1.549,0,0,0,2.08,0,1.6,1.6,0,0,0-.015-2.112A1.375,1.375,0,0,0,475.512,536.142Z" fill="#656572"/>
            <path id="Path_93508" data-name="Path 93508" d="M484.939,540.261a4.955,4.955,0,0,1-.65,2.83,2.7,2.7,0,0,1-4.055.02,4.7,4.7,0,0,1-.679-2.7V538.96a4.844,4.844,0,0,1,.65-2.8,2.75,2.75,0,0,1,4.066-.032,4.668,4.668,0,0,1,.668,2.721Zm-1.084-1.483a3.965,3.965,0,0,0-.386-2.006,1.331,1.331,0,0,0-1.225-.63,1.313,1.313,0,0,0-1.213.627,3.864,3.864,0,0,0-.392,1.927v1.735a4.033,4.033,0,0,0,.4,2.042,1.33,1.33,0,0,0,1.216.659,1.31,1.31,0,0,0,1.192-.621,3.881,3.881,0,0,0,.407-1.957Z" fill="#656572"/>
            <path id="Path_93509" data-name="Path 93509" d="M486.826,539.622l.434-4.254h4.371v1H488.18l-.258,2.326a2.753,2.753,0,0,1,1.424-.369,2.352,2.352,0,0,1,1.851.771,3.019,3.019,0,0,1,.686,2.083,2.917,2.917,0,0,1-.712,2.077,2.6,2.6,0,0,1-1.989.759,2.7,2.7,0,0,1-1.846-.627,2.5,2.5,0,0,1-.815-1.735h1.026a1.72,1.72,0,0,0,.521,1.1,1.625,1.625,0,0,0,1.114.372,1.462,1.462,0,0,0,1.186-.516,2.156,2.156,0,0,0,.431-1.424,1.977,1.977,0,0,0-.466-1.374,1.588,1.588,0,0,0-1.239-.518,1.79,1.79,0,0,0-1.114.31l-.287.235Z" fill="#656572"/>
            <path id="Path_93510" data-name="Path 93510" d="M493.143,545.6l-.616-.422a2.833,2.833,0,0,0,.575-1.582v-.979h1.06v.85a2.671,2.671,0,0,1-.29,1.183A2.783,2.783,0,0,1,493.143,545.6Z" fill="#656572"/>
            <path id="Path_93511" data-name="Path 93511" d="M499.576,540.149a2.642,2.642,0,0,1-.811.651,2.207,2.207,0,0,1-1.035.246,2.276,2.276,0,0,1-1.286-.363,2.364,2.364,0,0,1-.846-1.023,3.473,3.473,0,0,1-.3-1.456,3.549,3.549,0,0,1,.325-1.541,2.387,2.387,0,0,1,.923-1.049,2.631,2.631,0,0,1,1.394-.363,2.381,2.381,0,0,1,1.995.946,4.125,4.125,0,0,1,.73,2.581v.317a5.513,5.513,0,0,1-.984,3.635,3.781,3.781,0,0,1-2.971,1.175H496.5v-.92h.228a2.581,2.581,0,0,0,2.848-2.836Zm-1.67,0a1.673,1.673,0,0,0,1.005-.334,1.965,1.965,0,0,0,.671-.826v-.433a2.983,2.983,0,0,0-.463-1.735,1.415,1.415,0,0,0-2.32-.12,2.261,2.261,0,0,0-.434,1.445,2.353,2.353,0,0,0,.419,1.438A1.325,1.325,0,0,0,497.906,540.149Z" fill="#656572"/>
            <path id="Path_93512" data-name="Path 93512" d="M507.51,540.261a4.955,4.955,0,0,1-.651,2.83,2.7,2.7,0,0,1-4.054.02,4.7,4.7,0,0,1-.68-2.7V538.96a4.852,4.852,0,0,1,.65-2.8,2.752,2.752,0,0,1,4.067-.032,4.684,4.684,0,0,1,.668,2.721Zm-1.084-1.483a3.964,3.964,0,0,0-.387-2.006,1.331,1.331,0,0,0-1.225-.63,1.312,1.312,0,0,0-1.212.627,3.873,3.873,0,0,0-.393,1.927v1.735a4.043,4.043,0,0,0,.4,2.042,1.33,1.33,0,0,0,1.216.659,1.312,1.312,0,0,0,1.193-.621,3.9,3.9,0,0,0,.407-1.957Z" fill="#656572"/>
          </g>
        </g>
      </g>
    </g>
    <g id="Group_15767" data-name="Group 15767" transform="translate(10549.998 6416.438)">
      <g transform="matrix(1, 0, 0, 1, -9480, -6220.44)" filter="url(#Rectangle_7343)">
        <rect id="Rectangle_7343-2" data-name="Rectangle 7343" width="511" height="87" transform="translate(9 395)" fill="#fff"/>
      </g>
      <g id="Group_15761-2" data-name="Group 15761" transform="translate(-9451.861 -5813.517)">
        <g id="Group_15756-2" data-name="Group 15756" transform="translate(141.58 0)">
          <rect id="Rectangle_7340-2" data-name="Rectangle 7340" width="1.914" height="64.593" fill="#e6e4ea"/>
        </g>
        <g id="Group_15757-2" data-name="Group 15757" transform="translate(333.287 0)">
          <rect id="Rectangle_7341-2" data-name="Rectangle 7341" width="1.914" height="64.593" fill="#e6e4ea"/>
        </g>
        <g id="Group_15758-2" data-name="Group 15758" transform="translate(0 13.832)">
          <path id="Path_93481-2" data-name="Path 93481" d="M272.58,529.767a10.1,10.1,0,0,1-.808,4.188,6.123,6.123,0,0,1-2.289,2.731,6.312,6.312,0,0,1-9.189-2.708,9.665,9.665,0,0,1-.848-4.065v-1.177a9.984,9.984,0,0,1,.819-4.161,6.056,6.056,0,0,1,5.742-3.722,6.335,6.335,0,0,1,3.46.947,6.115,6.115,0,0,1,2.3,2.746,10.162,10.162,0,0,1,.808,4.189Zm-2.144-1.055a7.322,7.322,0,0,0-1.166-4.457,3.848,3.848,0,0,0-3.263-1.554,3.806,3.806,0,0,0-3.213,1.554,7.177,7.177,0,0,0-1.206,4.312v1.2a7.316,7.316,0,0,0,1.185,4.423,4.144,4.144,0,0,0,6.486.09,7.27,7.27,0,0,0,1.177-4.356Z" transform="translate(-259.447 -520.852)" fill="#b5b5c6"/>
          <path id="Path_93482-2" data-name="Path 93482" d="M278.077,529.468a7.254,7.254,0,0,1-1.269,4.463,4.059,4.059,0,0,1-3.43,1.694,4.454,4.454,0,0,1-3.477-1.4v5.843h-2.075v-16.8h1.895l.1,1.345a4.273,4.273,0,0,1,3.522-1.569,4.14,4.14,0,0,1,3.46,1.648,7.35,7.35,0,0,1,1.273,4.588ZM276,529.232a5.37,5.37,0,0,0-.875-3.24,2.819,2.819,0,0,0-2.4-1.188,3.049,3.049,0,0,0-2.827,1.671v5.8a3.055,3.055,0,0,0,2.848,1.659,2.807,2.807,0,0,0,2.373-1.183A5.859,5.859,0,0,0,276,529.232Z" transform="translate(-251.79 -518.85)" fill="#b5b5c6"/>
          <path id="Path_93483-2" data-name="Path 93483" d="M279.845,535.625a5.3,5.3,0,0,1-4.013-1.619,6.02,6.02,0,0,1-1.548-4.335v-.381a7.263,7.263,0,0,1,.691-3.225,5.379,5.379,0,0,1,1.927-2.22,4.86,4.86,0,0,1,2.687-.8,4.553,4.553,0,0,1,3.678,1.558,6.754,6.754,0,0,1,1.311,4.465v.863h-8.22a4.307,4.307,0,0,0,1.049,2.9,3.3,3.3,0,0,0,2.551,1.1,3.621,3.621,0,0,0,1.862-.448,4.674,4.674,0,0,0,1.334-1.188l1.267.988A5.1,5.1,0,0,1,279.845,535.625Zm-.256-10.876a2.769,2.769,0,0,0-2.109.913,4.449,4.449,0,0,0-1.055,2.563H282.5v-.157a3.95,3.95,0,0,0-.852-2.45A2.6,2.6,0,0,0,279.588,524.748Z" transform="translate(-245.889 -518.85)" fill="#b5b5c6"/>
          <path id="Path_93484-2" data-name="Path 93484" d="M282.878,523.267l.069,1.525a4.422,4.422,0,0,1,3.633-1.749q3.847,0,3.879,4.339V535.4h-2.075v-8.029a2.8,2.8,0,0,0-.6-1.941,2.4,2.4,0,0,0-1.833-.628,3,3,0,0,0-1.772.538,3.657,3.657,0,0,0-1.188,1.412V535.4h-2.075V523.267Z" transform="translate(-239.827 -518.85)" fill="#b5b5c6"/>
          <path id="Path_93485-2" data-name="Path 93485" d="M260.242,543.51l.829-8.142h8.367v1.918h-6.607l-.492,4.452a5.266,5.266,0,0,1,2.723-.706,4.5,4.5,0,0,1,3.545,1.476,5.777,5.777,0,0,1,1.311,3.987,5.582,5.582,0,0,1-1.361,3.975,4.969,4.969,0,0,1-3.809,1.453,5.156,5.156,0,0,1-3.531-1.2,4.792,4.792,0,0,1-1.56-3.321h1.964a3.292,3.292,0,0,0,1,2.115,3.1,3.1,0,0,0,2.13.712,2.8,2.8,0,0,0,2.272-.988,4.127,4.127,0,0,0,.823-2.725,3.793,3.793,0,0,0-.89-2.63,3.04,3.04,0,0,0-2.373-.991,3.423,3.423,0,0,0-2.13.593l-.549.45Z" transform="translate(-259.254 -507.586)" fill="#656572"/>
          <path id="Path_93486-2" data-name="Path 93486" d="M279.125,539.737a3.8,3.8,0,0,1-.645,2.174,4.4,4.4,0,0,1-1.744,1.493,4.666,4.666,0,0,1,2.023,1.6,4.031,4.031,0,0,1,.746,2.388,4.263,4.263,0,0,1-1.43,3.374,6.264,6.264,0,0,1-7.537-.006,4.284,4.284,0,0,1-1.418-3.368,4.154,4.154,0,0,1,.723-2.388,4.5,4.5,0,0,1,2-1.615,4.29,4.29,0,0,1-1.717-1.491,3.857,3.857,0,0,1-.628-2.165,4.221,4.221,0,0,1,1.324-3.275,5.616,5.616,0,0,1,6.968,0A4.212,4.212,0,0,1,279.125,539.737Zm-1.694,7.613a3.017,3.017,0,0,0-.869-2.232,3.084,3.084,0,0,0-2.272-.863,2.918,2.918,0,0,0-3.095,3.095,2.9,2.9,0,0,0,.825,2.188,3.681,3.681,0,0,0,4.58-.006A2.892,2.892,0,0,0,277.431,547.351Zm-3.118-10.394a2.67,2.67,0,0,0-1.979.756,3.13,3.13,0,0,0-.011,4.071,2.965,2.965,0,0,0,3.981,0,3.065,3.065,0,0,0-.029-4.042A2.632,2.632,0,0,0,274.313,536.956Z" transform="translate(-250.606 -507.693)" fill="#656572"/>
          <path id="Path_93487-2" data-name="Path 93487" d="M286.76,551.8h-10.7v-1.491l5.652-6.28a13.318,13.318,0,0,0,1.732-2.316,3.869,3.869,0,0,0,.477-1.845,2.927,2.927,0,0,0-.773-2.1,2.7,2.7,0,0,0-2.063-.817,3.2,3.2,0,0,0-2.406.88,3.358,3.358,0,0,0-.857,2.45h-2.075a4.813,4.813,0,0,1,1.453-3.644,5.377,5.377,0,0,1,3.885-1.391,5.174,5.174,0,0,1,3.6,1.194,4.074,4.074,0,0,1,1.323,3.179q0,2.411-3.072,5.742l-4.373,4.745h8.2Z" transform="translate(-244.55 -507.693)" fill="#656572"/>
          <path id="Path_93488-2" data-name="Path 93488" d="M283.426,543.51l.831-8.142h8.366v1.918h-6.6l-.494,4.452a5.273,5.273,0,0,1,2.725-.706,4.5,4.5,0,0,1,3.543,1.476,5.769,5.769,0,0,1,1.313,3.987,5.575,5.575,0,0,1-1.363,3.975,4.964,4.964,0,0,1-3.807,1.453,5.164,5.164,0,0,1-3.533-1.2,4.79,4.79,0,0,1-1.558-3.321h1.962a3.284,3.284,0,0,0,1,2.115,3.1,3.1,0,0,0,2.13.712,2.8,2.8,0,0,0,2.27-.988,4.127,4.127,0,0,0,.825-2.725,3.785,3.785,0,0,0-.892-2.63,3.033,3.033,0,0,0-2.371-.991,3.416,3.416,0,0,0-2.13.593l-.549.45Z" transform="translate(-238.065 -507.586)" fill="#656572"/>
          <path id="Path_93489-2" data-name="Path 93489" d="M290.027,548.325l-1.177-.808a5.42,5.42,0,0,0,1.1-3.028v-1.874h2.029v1.627a5.087,5.087,0,0,1-.555,2.264A5.3,5.3,0,0,1,290.027,548.325Z" transform="translate(-232.576 -500.962)" fill="#656572"/>
          <path id="Path_93490-2" data-name="Path 93490" d="M302.592,551.8h-10.7v-1.491l5.652-6.28a13.325,13.325,0,0,0,1.732-2.316,3.849,3.849,0,0,0,.478-1.845,2.928,2.928,0,0,0-.775-2.1,2.7,2.7,0,0,0-2.063-.817,3.2,3.2,0,0,0-2.406.88,3.358,3.358,0,0,0-.857,2.45H291.58a4.813,4.813,0,0,1,1.453-3.644,5.377,5.377,0,0,1,3.885-1.391,5.174,5.174,0,0,1,3.6,1.194,4.073,4.073,0,0,1,1.323,3.179q0,2.411-3.072,5.742L294.4,550.11h8.2Z" transform="translate(-230.082 -507.693)" fill="#656572"/>
          <path id="Path_93491-2" data-name="Path 93491" d="M307.605,546.212h2.264v1.694h-2.264V551.7h-2.086v-3.789h-7.435v-1.223l7.311-11.315h2.211Zm-7.167,0h5.081v-8.006l-.247.448Z" transform="translate(-224.138 -507.586)" fill="#656572"/>
        </g>
        <g id="Group_15759-2" data-name="Group 15759" transform="translate(205.975 13.158)">
          <path id="Path_93492-2" data-name="Path 93492" d="M379.706,537.3h-2.165V529.75H369.31V537.3h-2.153V520.969h2.153v7.02h8.232v-7.02h2.165Z" transform="translate(-366.989 -520.071)" fill="#b5b5c6"/>
          <path id="Path_93493-2" data-name="Path 93493" d="M375.548,522.05a1.242,1.242,0,0,1,.308-.852,1.157,1.157,0,0,1,.913-.346,1.176,1.176,0,0,1,.921.346,1.229,1.229,0,0,1,.314.852,1.284,1.284,0,0,1-2.147.842A1.2,1.2,0,0,1,375.548,522.05Zm2.243,15.353h-2.075V525.269h2.075Z" transform="translate(-359.32 -520.178)" fill="#b5b5c6"/>
          <path id="Path_93494-2" data-name="Path 93494" d="M378.2,529.232a7.13,7.13,0,0,1,1.313-4.513,4.524,4.524,0,0,1,6.942-.107l.1-1.345h1.9V535.11a4.928,4.928,0,0,1-1.4,3.711,5.146,5.146,0,0,1-3.751,1.357,6.256,6.256,0,0,1-2.568-.561,4.411,4.411,0,0,1-1.916-1.537l1.076-1.244a4.057,4.057,0,0,0,3.263,1.648,3.174,3.174,0,0,0,2.36-.852,3.258,3.258,0,0,0,.848-2.4v-1.043a4.267,4.267,0,0,1-3.4,1.435,4.145,4.145,0,0,1-3.447-1.715A7.5,7.5,0,0,1,378.2,529.232Zm2.086.235a5.441,5.441,0,0,0,.842,3.225,2.732,2.732,0,0,0,2.354,1.171,3.037,3.037,0,0,0,2.882-1.782v-5.541A3.075,3.075,0,0,0,383.5,524.8a2.759,2.759,0,0,0-2.367,1.177A5.938,5.938,0,0,0,380.282,529.468Z" transform="translate(-356.9 -518.176)" fill="#b5b5c6"/>
          <path id="Path_93495-2" data-name="Path 93495" d="M387.261,527.061a4.413,4.413,0,0,1,3.589-1.694q3.847,0,3.881,4.339v8.019h-2.075V529.7a2.8,2.8,0,0,0-.6-1.941,2.4,2.4,0,0,0-1.833-.628,3,3,0,0,0-1.77.538,3.677,3.677,0,0,0-1.19,1.412v8.647h-2.075V520.5h2.075Z" transform="translate(-350.512 -520.5)" fill="#b5b5c6"/>
          <path id="Path_93496-2" data-name="Path 93496" d="M367.653,543.51l.831-8.142h8.365v1.918h-6.607l-.492,4.452a5.268,5.268,0,0,1,2.725-.706,4.5,4.5,0,0,1,3.543,1.476,5.778,5.778,0,0,1,1.313,3.987,5.583,5.583,0,0,1-1.363,3.975,4.969,4.969,0,0,1-3.809,1.453,5.159,5.159,0,0,1-3.531-1.2,4.792,4.792,0,0,1-1.56-3.321h1.964a3.292,3.292,0,0,0,1,2.115,3.1,3.1,0,0,0,2.13.712,2.8,2.8,0,0,0,2.272-.988,4.127,4.127,0,0,0,.825-2.725,3.794,3.794,0,0,0-.892-2.63,3.038,3.038,0,0,0-2.371-.991,3.425,3.425,0,0,0-2.132.593l-.549.45Z" transform="translate(-367.069 -506.913)" fill="#656572"/>
          <path id="Path_93497-2" data-name="Path 93497" d="M386.536,539.737a3.8,3.8,0,0,1-.645,2.174,4.384,4.384,0,0,1-1.744,1.493,4.655,4.655,0,0,1,2.023,1.6,4.031,4.031,0,0,1,.746,2.388,4.263,4.263,0,0,1-1.43,3.374,6.264,6.264,0,0,1-7.537-.006,4.284,4.284,0,0,1-1.418-3.368,4.153,4.153,0,0,1,.723-2.388,4.5,4.5,0,0,1,2-1.615,4.271,4.271,0,0,1-1.715-1.491,3.844,3.844,0,0,1-.63-2.165,4.221,4.221,0,0,1,1.324-3.275,5.616,5.616,0,0,1,6.968,0A4.212,4.212,0,0,1,386.536,539.737Zm-1.694,7.613a3.01,3.01,0,0,0-.869-2.232,3.081,3.081,0,0,0-2.272-.863,2.92,2.92,0,0,0-3.095,3.095,2.9,2.9,0,0,0,.825,2.188,3.681,3.681,0,0,0,4.58-.006A2.891,2.891,0,0,0,384.842,547.351Zm-3.118-10.394a2.673,2.673,0,0,0-1.979.756,3.13,3.13,0,0,0-.012,4.071,2.965,2.965,0,0,0,3.981,0,3.065,3.065,0,0,0-.029-4.042A2.632,2.632,0,0,0,381.724,536.956Z" transform="translate(-358.421 -507.02)" fill="#656572"/>
          <path id="Path_93498-2" data-name="Path 93498" d="M391.386,544.625a5.057,5.057,0,0,1-1.552,1.246,4.21,4.21,0,0,1-1.979.471,4.352,4.352,0,0,1-2.461-.695,4.515,4.515,0,0,1-1.621-1.958,6.676,6.676,0,0,1-.572-2.787,6.82,6.82,0,0,1,.622-2.949,4.58,4.58,0,0,1,1.767-2.008,5.042,5.042,0,0,1,2.67-.695,4.559,4.559,0,0,1,3.818,1.811,7.907,7.907,0,0,1,1.4,4.94v.607q0,4.766-1.883,6.957a7.234,7.234,0,0,1-5.686,2.249h-.4v-1.761h.438a4.939,4.939,0,0,0,5.449-5.428Zm-3.194,0a3.193,3.193,0,0,0,1.922-.639,3.747,3.747,0,0,0,1.284-1.581v-.829a5.71,5.71,0,0,0-.886-3.321,2.707,2.707,0,0,0-4.44-.23,4.327,4.327,0,0,0-.829,2.766,4.5,4.5,0,0,0,.8,2.752A2.542,2.542,0,0,0,388.191,544.625Z" transform="translate(-352.327 -507.02)" fill="#656572"/>
          <path id="Path_93499-2" data-name="Path 93499" d="M400.332,544.84a9.5,9.5,0,0,1-1.244,5.416,5.171,5.171,0,0,1-7.761.038,9.017,9.017,0,0,1-1.3-5.175V542.35A9.269,9.269,0,0,1,391.272,537a5.264,5.264,0,0,1,7.782-.061,8.95,8.95,0,0,1,1.278,5.208ZM398.258,542a7.586,7.586,0,0,0-.741-3.839,2.545,2.545,0,0,0-2.343-1.206,2.514,2.514,0,0,0-2.322,1.2,7.413,7.413,0,0,0-.752,3.688v3.321a7.716,7.716,0,0,0,.769,3.908,2.543,2.543,0,0,0,2.325,1.261,2.509,2.509,0,0,0,2.283-1.189,7.448,7.448,0,0,0,.779-3.745Z" transform="translate(-346.089 -507.02)" fill="#656572"/>
          <path id="Path_93500-2" data-name="Path 93500" d="M397.438,548.325l-1.177-.808a5.42,5.42,0,0,0,1.1-3.028v-1.874h2.029v1.627a5.087,5.087,0,0,1-.555,2.264A5.3,5.3,0,0,1,397.438,548.325Z" transform="translate(-340.391 -500.289)" fill="#656572"/>
          <path id="Path_93501-2" data-name="Path 93501" d="M408.277,546.212h2.266v1.694h-2.266V551.7h-2.084v-3.789h-7.435v-1.223l7.311-11.315h2.209Zm-7.166,0h5.081v-8.006l-.247.448Z" transform="translate(-338.11 -506.913)" fill="#656572"/>
          <path id="Path_93502-2" data-name="Path 93502" d="M413.975,535.362v1.761h-.381a5.464,5.464,0,0,0-3.856,1.435,5.985,5.985,0,0,0-1.661,3.914,4.429,4.429,0,0,1,3.522-1.479,4.235,4.235,0,0,1,3.4,1.5,6.586,6.586,0,0,1-.1,7.918,4.734,4.734,0,0,1-3.684,1.514,4.659,4.659,0,0,1-3.8-1.8,7.13,7.13,0,0,1-1.458-4.637v-.8q0-4.507,1.923-6.89a7.067,7.067,0,0,1,5.724-2.44Zm-2.723,7.357a3.484,3.484,0,0,0-3.208,2.243v.762a5.368,5.368,0,0,0,.907,3.254,2.726,2.726,0,0,0,2.266,1.233,2.638,2.638,0,0,0,2.2-1.032,4.959,4.959,0,0,0-.01-5.422A2.612,2.612,0,0,0,411.252,542.719Z" transform="translate(-331.529 -506.918)" fill="#656572"/>
        </g>
        <g id="Group_15760-2" data-name="Group 15760" transform="translate(390.218 14.055)">
          <path id="Path_93503-2" data-name="Path 93503" d="M465.589,535.536h7.738V537.3h-9.9V520.969h2.165Z" transform="translate(-463.256 -520.969)" fill="#b5b5c6"/>
          <path id="Path_93504-2" data-name="Path 93504" d="M469.424,529.223a7.166,7.166,0,0,1,.7-3.208,5.231,5.231,0,0,1,1.952-2.2,5.314,5.314,0,0,1,2.854-.773,5.113,5.113,0,0,1,4.008,1.717,6.589,6.589,0,0,1,1.531,4.563v.146a7.23,7.23,0,0,1-.677,3.179,5.143,5.143,0,0,1-1.941,2.193,5.377,5.377,0,0,1-2.9.785,5.1,5.1,0,0,1-4-1.715,6.563,6.563,0,0,1-1.531-4.542Zm2.086.245a5.2,5.2,0,0,0,.936,3.242,3.175,3.175,0,0,0,5.018-.017,5.679,5.679,0,0,0,.93-3.47,5.184,5.184,0,0,0-.947-3.236,3.151,3.151,0,0,0-5-.017A5.635,5.635,0,0,0,471.51,529.468Z" transform="translate(-457.772 -519.074)" fill="#b5b5c6"/>
          <path id="Path_93505-2" data-name="Path 93505" d="M487.818,532.435l2.333-9.275h2.075l-3.533,12.134H487.01l-2.949-9.2-2.871,9.2h-1.682l-3.521-12.134h2.063l2.389,9.083,2.827-9.083h1.671Z" transform="translate(-451.776 -518.967)" fill="#b5b5c6"/>
          <path id="Path_93506-2" data-name="Path 93506" d="M463.92,543.51l.829-8.142h8.366v1.918h-6.6l-.494,4.452a5.273,5.273,0,0,1,2.725-.706,4.506,4.506,0,0,1,3.544,1.476,5.777,5.777,0,0,1,1.311,3.987,5.574,5.574,0,0,1-1.363,3.975,4.961,4.961,0,0,1-3.807,1.453,5.164,5.164,0,0,1-3.533-1.2,4.79,4.79,0,0,1-1.558-3.321H465.3a3.3,3.3,0,0,0,1,2.115,3.1,3.1,0,0,0,2.13.712,2.8,2.8,0,0,0,2.272-.988,4.127,4.127,0,0,0,.823-2.725,3.785,3.785,0,0,0-.892-2.63,3.033,3.033,0,0,0-2.371-.991,3.416,3.416,0,0,0-2.13.593l-.549.45Z" transform="translate(-463.336 -507.81)" fill="#656572"/>
          <path id="Path_93507-2" data-name="Path 93507" d="M482.8,539.737a3.781,3.781,0,0,1-.645,2.174,4.372,4.372,0,0,1-1.743,1.493,4.661,4.661,0,0,1,2.025,1.6,4.031,4.031,0,0,1,.746,2.388,4.259,4.259,0,0,1-1.432,3.374,6.261,6.261,0,0,1-7.535-.006A4.284,4.284,0,0,1,472.8,547.4a4.153,4.153,0,0,1,.723-2.388,4.491,4.491,0,0,1,2-1.615,4.291,4.291,0,0,1-1.717-1.491,3.843,3.843,0,0,1-.628-2.165,4.22,4.22,0,0,1,1.323-3.275,5.619,5.619,0,0,1,6.97,0A4.21,4.21,0,0,1,482.8,539.737Zm-1.692,7.613a3.011,3.011,0,0,0-.871-2.232,3.077,3.077,0,0,0-2.27-.863,2.918,2.918,0,0,0-3.095,3.095,2.9,2.9,0,0,0,.823,2.188,3.684,3.684,0,0,0,4.582-.006A2.891,2.891,0,0,0,481.109,547.351Zm-3.118-10.394a2.678,2.678,0,0,0-1.981.756,3.133,3.133,0,0,0-.01,4.071,2.965,2.965,0,0,0,3.981,0,3.071,3.071,0,0,0-.029-4.042A2.631,2.631,0,0,0,477.991,536.956Z" transform="translate(-454.688 -507.917)" fill="#656572"/>
          <path id="Path_93508-2" data-name="Path 93508" d="M489.859,544.84a9.484,9.484,0,0,1-1.244,5.416,5.171,5.171,0,0,1-7.761.038,9,9,0,0,1-1.3-5.175V542.35A9.271,9.271,0,0,1,480.8,537a5.264,5.264,0,0,1,7.782-.061,8.935,8.935,0,0,1,1.278,5.208ZM487.785,542a7.59,7.59,0,0,0-.739-3.839,2.548,2.548,0,0,0-2.345-1.206,2.514,2.514,0,0,0-2.321,1.2,7.394,7.394,0,0,0-.75,3.688v3.321a7.718,7.718,0,0,0,.767,3.908,2.546,2.546,0,0,0,2.327,1.261,2.508,2.508,0,0,0,2.281-1.189,7.428,7.428,0,0,0,.779-3.745Z" transform="translate(-448.514 -507.917)" fill="#656572"/>
          <path id="Path_93509-2" data-name="Path 93509" d="M487.1,543.51l.831-8.142H496.3v1.918h-6.6l-.494,4.452a5.268,5.268,0,0,1,2.725-.706,4.5,4.5,0,0,1,3.543,1.476,5.778,5.778,0,0,1,1.313,3.987,5.583,5.583,0,0,1-1.363,3.975,4.967,4.967,0,0,1-3.807,1.453,5.161,5.161,0,0,1-3.533-1.2,4.792,4.792,0,0,1-1.56-3.321h1.964a3.292,3.292,0,0,0,1,2.115,3.11,3.11,0,0,0,2.132.712,2.8,2.8,0,0,0,2.27-.988,4.127,4.127,0,0,0,.825-2.725,3.785,3.785,0,0,0-.892-2.63,3.039,3.039,0,0,0-2.371-.991,3.425,3.425,0,0,0-2.132.593l-.549.45Z" transform="translate(-442.148 -507.81)" fill="#656572"/>
          <path id="Path_93510-2" data-name="Path 93510" d="M493.706,548.325l-1.179-.808a5.423,5.423,0,0,0,1.1-3.028v-1.874h2.029v1.627a5.113,5.113,0,0,1-.555,2.264A5.327,5.327,0,0,1,493.706,548.325Z" transform="translate(-436.659 -501.186)" fill="#656572"/>
          <path id="Path_93511-2" data-name="Path 93511" d="M503.485,544.625a5.057,5.057,0,0,1-1.552,1.246,4.223,4.223,0,0,1-1.981.471,4.357,4.357,0,0,1-2.461-.695,4.524,4.524,0,0,1-1.619-1.958,6.647,6.647,0,0,1-.572-2.787,6.794,6.794,0,0,1,.622-2.949,4.569,4.569,0,0,1,1.767-2.008,5.035,5.035,0,0,1,2.668-.695,4.557,4.557,0,0,1,3.818,1.811,7.9,7.9,0,0,1,1.4,4.94v.607q0,4.766-1.883,6.957A7.237,7.237,0,0,1,498,551.814h-.4v-1.761h.436a4.939,4.939,0,0,0,5.451-5.428Zm-3.2,0a3.2,3.2,0,0,0,1.923-.639,3.761,3.761,0,0,0,1.284-1.581v-.829a5.71,5.71,0,0,0-.886-3.321,2.707,2.707,0,0,0-4.44-.23,4.328,4.328,0,0,0-.831,2.766,4.5,4.5,0,0,0,.8,2.752A2.536,2.536,0,0,0,500.288,544.625Z" transform="translate(-434.126 -507.917)" fill="#656572"/>
          <path id="Path_93512-2" data-name="Path 93512" d="M512.431,544.84a9.483,9.483,0,0,1-1.246,5.416,5.169,5.169,0,0,1-7.759.038,9,9,0,0,1-1.3-5.175V542.35A9.285,9.285,0,0,1,503.369,537a5.266,5.266,0,0,1,7.784-.061,8.965,8.965,0,0,1,1.278,5.208ZM510.357,542a7.586,7.586,0,0,0-.741-3.839,2.548,2.548,0,0,0-2.345-1.206,2.511,2.511,0,0,0-2.32,1.2,7.413,7.413,0,0,0-.752,3.688v3.321a7.739,7.739,0,0,0,.767,3.908,2.546,2.546,0,0,0,2.327,1.261,2.511,2.511,0,0,0,2.283-1.189,7.47,7.47,0,0,0,.779-3.745Z" transform="translate(-427.888 -507.917)" fill="#656572"/>
        </g>
      </g>
    </g>
  </g>
</svg>
