<?xml version="1.0" encoding="UTF-8"?> <!-- Generator: Adobe Illustrator 25.4.1, SVG Export Plug-In . SVG Version: 6.00 Build 0) --> <svg xmlns="http://www.w3.org/2000/svg" xmlns:xlink="http://www.w3.org/1999/xlink" version="1.1" id="Layer_1" x="0px" y="0px" viewBox="0 0 30 19" style="enable-background:new 0 0 30 19;" xml:space="preserve"> <style type="text/css"> .st0{fill:#FFFFFF;} .st1{fill:#BC172E;} .st2{fill:#B52436;} .st3{fill:#313269;} .st4{fill:none;stroke:#FFFFFF;stroke-width:0.2;stroke-miterlimit:10;} .st5{display:none;} .st6{display:inline;fill:#FFFFFF;} .st7{display:inline;fill:#B52436;} .st8{display:inline;fill:#313269;} .st9{display:inline;fill:none;stroke:#FFFFFF;stroke-width:0.2;stroke-miterlimit:10;} </style> <g> <g id="XMLID_1531_"> <rect id="XMLID_1534_" x="0" class="st0" width="17.9" height="11.3"></rect> <path id="XMLID_1533_" class="st1" d="M12.3,5.7c0,1.9-1.5,3.4-3.4,3.4S5.5,7.5,5.5,5.7c0-1.9,1.5-3.4,3.4-3.4 C10.8,2.3,12.3,3.8,12.3,5.7z"></path> </g> </g> <g> <rect x="12.1" y="7.2" class="st0" width="17.9" height="11.8"></rect> <rect x="12.1" y="7.2" class="st2" width="17.9" height="1"></rect> <rect x="12.1" y="9" class="st2" width="17.9" height="1"></rect> <rect x="12.1" y="10.8" class="st2" width="17.9" height="1"></rect> <rect x="12.1" y="12.6" class="st2" width="17.9" height="1"></rect> <rect x="12.1" y="14.4" class="st2" width="17.9" height="1"></rect> <rect x="12.1" y="16.2" class="st2" width="17.9" height="1"></rect> <rect x="12.1" y="18" class="st2" width="17.9" height="1"></rect> <rect x="12.1" y="7.2" class="st3" width="7.9" height="6.4"></rect> <polygon class="st0" points="13.4,8.2 13.4,8.3 13.6,8.4 13.5,8.5 13.5,8.7 13.4,8.6 13.2,8.7 13.2,8.5 13.1,8.4 13.3,8.3 "></polygon> <polygon class="st0" points="14.7,8.2 14.8,8.3 14.9,8.4 14.8,8.5 14.9,8.7 14.7,8.6 14.6,8.7 14.6,8.5 14.5,8.4 14.6,8.3 "></polygon> <polygon class="st0" points="16.1,8.2 16.1,8.3 16.3,8.4 16.2,8.5 16.2,8.7 16.1,8.6 15.9,8.7 15.9,8.5 15.8,8.4 16,8.3 "></polygon> <polygon class="st0" points="17.4,8.2 17.5,8.3 17.7,8.4 17.5,8.5 17.6,8.7 17.4,8.6 17.3,8.7 17.3,8.5 17.2,8.4 17.4,8.3 "></polygon> <polygon class="st0" points="18.8,8.2 18.9,8.3 19,8.4 18.9,8.5 18.9,8.7 18.8,8.6 18.6,8.7 18.7,8.5 18.5,8.4 18.7,8.3 "></polygon> <polygon class="st0" points="13.4,9.5 13.4,9.6 13.6,9.7 13.5,9.8 13.5,10 13.4,9.9 13.2,10 13.2,9.8 13.1,9.7 13.3,9.6 "></polygon> <polygon class="st0" points="14.7,9.5 14.8,9.6 14.9,9.7 14.8,9.8 14.9,10 14.7,9.9 14.6,10 14.6,9.8 14.5,9.7 14.6,9.6 "></polygon> <polygon class="st0" points="16.1,9.5 16.1,9.6 16.3,9.7 16.2,9.8 16.2,10 16.1,9.9 15.9,10 15.9,9.8 15.8,9.7 16,9.6 "></polygon> <polygon class="st0" points="17.4,9.5 17.5,9.6 17.7,9.7 17.5,9.8 17.6,10 17.4,9.9 17.3,10 17.3,9.8 17.2,9.7 17.4,9.6 "></polygon> <polygon class="st0" points="18.8,9.5 18.9,9.6 19,9.7 18.9,9.8 18.9,10 18.8,9.9 18.6,10 18.7,9.8 18.5,9.7 18.7,9.6 "></polygon> <polygon class="st0" points="13.4,10.8 13.4,10.9 13.6,11 13.5,11.1 13.5,11.3 13.4,11.2 13.2,11.3 13.2,11.1 13.1,11 13.3,10.9 "></polygon> <polygon class="st0" points="14.7,10.8 14.8,10.9 14.9,11 14.8,11.1 14.9,11.3 14.7,11.2 14.6,11.3 14.6,11.1 14.5,11 14.6,10.9 "></polygon> <polygon class="st0" points="16.1,10.8 16.1,10.9 16.3,11 16.2,11.1 16.2,11.3 16.1,11.2 15.9,11.3 15.9,11.1 15.8,11 16,10.9 "></polygon> <polygon class="st0" points="17.4,10.8 17.5,10.9 17.7,11 17.5,11.1 17.6,11.3 17.4,11.2 17.3,11.3 17.3,11.1 17.2,11 17.4,10.9 "></polygon> <polygon class="st0" points="18.8,10.8 18.9,10.9 19,11 18.9,11.1 18.9,11.3 18.8,11.2 18.6,11.3 18.7,11.1 18.5,11 18.7,10.9 "></polygon> <polygon class="st0" points="13.4,12.1 13.4,12.2 13.6,12.3 13.5,12.4 13.5,12.6 13.4,12.5 13.2,12.6 13.2,12.4 13.1,12.3 13.3,12.2 "></polygon> <polygon class="st0" points="14.7,12.1 14.8,12.2 14.9,12.3 14.8,12.4 14.9,12.6 14.7,12.5 14.6,12.6 14.6,12.4 14.5,12.3 14.6,12.2 "></polygon> <polygon class="st0" points="16.1,12.1 16.1,12.2 16.3,12.3 16.2,12.4 16.2,12.6 16.1,12.5 15.9,12.6 15.9,12.4 15.8,12.3 16,12.2 "></polygon> <polygon class="st0" points="17.4,12.1 17.5,12.2 17.7,12.3 17.5,12.4 17.6,12.6 17.4,12.5 17.3,12.6 17.3,12.4 17.2,12.3 17.4,12.2 "></polygon> <polygon class="st0" points="18.8,12.1 18.9,12.2 19,12.3 18.9,12.4 18.9,12.6 18.8,12.5 18.6,12.6 18.7,12.4 18.5,12.3 18.7,12.2 "></polygon> <polygon class="st0" points="15.4,7.5 15.5,7.7 15.6,7.7 15.5,7.8 15.5,8 15.4,7.9 15.2,8 15.3,7.8 15.1,7.7 15.3,7.7 "></polygon> <polygon class="st0" points="16.7,7.5 16.8,7.7 17,7.7 16.9,7.8 16.9,8 16.7,7.9 16.6,8 16.6,7.8 16.5,7.7 16.7,7.7 "></polygon> <polygon class="st0" points="12.7,7.5 12.7,7.7 12.9,7.7 12.8,7.8 12.8,8 12.7,7.9 12.5,8 12.5,7.8 12.4,7.7 12.6,7.7 "></polygon> <polygon class="st0" points="14,7.5 14.1,7.7 14.3,7.7 14.1,7.8 14.2,8 14,7.9 13.9,8 13.9,7.8 13.8,7.7 13.9,7.7 "></polygon> <polygon class="st0" points="12.7,8.8 12.7,9 12.9,9 12.8,9.1 12.8,9.3 12.7,9.2 12.5,9.3 12.5,9.1 12.4,9 12.6,9 "></polygon> <polygon class="st0" points="14,8.8 14.1,9 14.3,9 14.1,9.1 14.2,9.3 14,9.2 13.9,9.3 13.9,9.1 13.8,9 13.9,9 "></polygon> <polygon class="st0" points="15.4,8.8 15.5,9 15.6,9 15.5,9.1 15.5,9.3 15.4,9.2 15.2,9.3 15.3,9.1 15.1,9 15.3,9 "></polygon> <polygon class="st0" points="16.7,8.8 16.8,9 17,9 16.9,9.1 16.9,9.3 16.7,9.2 16.6,9.3 16.6,9.1 16.5,9 16.7,9 "></polygon> <polygon class="st0" points="18.1,7.5 18.2,7.7 18.3,7.7 18.2,7.8 18.2,8 18.1,7.9 18,8 18,7.8 17.9,7.7 18,7.7 "></polygon> <polygon class="st0" points="19.5,7.5 19.5,7.7 19.7,7.7 19.6,7.8 19.6,8 19.5,7.9 19.3,8 19.3,7.8 19.2,7.7 19.4,7.7 "></polygon> <polygon class="st0" points="18.1,8.8 18.2,9 18.3,9 18.2,9.1 18.2,9.3 18.1,9.2 18,9.3 18,9.1 17.9,9 18,9 "></polygon> <polygon class="st0" points="19.5,8.8 19.5,9 19.7,9 19.6,9.1 19.6,9.3 19.5,9.2 19.3,9.3 19.3,9.1 19.2,9 19.4,9 "></polygon> <polygon class="st0" points="12.7,10.1 12.7,10.3 12.9,10.3 12.8,10.4 12.8,10.6 12.7,10.5 12.5,10.6 12.5,10.4 12.4,10.3 12.6,10.3 "></polygon> <polygon class="st0" points="14,10.1 14.1,10.3 14.3,10.3 14.1,10.4 14.2,10.6 14,10.5 13.9,10.6 13.9,10.4 13.8,10.3 13.9,10.3 "></polygon> <polygon class="st0" points="15.4,10.1 15.5,10.3 15.6,10.3 15.5,10.4 15.5,10.6 15.4,10.5 15.2,10.6 15.3,10.4 15.1,10.3 15.3,10.3 "></polygon> <polygon class="st0" points="16.7,10.1 16.8,10.3 17,10.3 16.9,10.4 16.9,10.6 16.7,10.5 16.6,10.6 16.6,10.4 16.5,10.3 16.7,10.3 "></polygon> <polygon class="st0" points="18.1,10.1 18.2,10.3 18.3,10.3 18.2,10.4 18.2,10.6 18.1,10.5 18,10.6 18,10.4 17.9,10.3 18,10.3 "></polygon> <polygon class="st0" points="19.5,10.1 19.5,10.3 19.7,10.3 19.6,10.4 19.6,10.6 19.5,10.5 19.3,10.6 19.3,10.4 19.2,10.3 19.4,10.3 "></polygon> <polygon class="st0" points="12.7,11.4 12.7,11.6 12.9,11.6 12.8,11.7 12.8,11.9 12.7,11.8 12.5,11.9 12.5,11.7 12.4,11.6 12.6,11.6 "></polygon> <polygon class="st0" points="14,11.4 14.1,11.6 14.3,11.6 14.1,11.7 14.2,11.9 14,11.8 13.9,11.9 13.9,11.7 13.8,11.6 13.9,11.6 "></polygon> <polygon class="st0" points="15.4,11.4 15.5,11.6 15.6,11.6 15.5,11.7 15.5,11.9 15.4,11.8 15.2,11.9 15.3,11.7 15.1,11.6 15.3,11.6 "></polygon> <polygon class="st0" points="16.7,11.4 16.8,11.6 17,11.6 16.9,11.7 16.9,11.9 16.7,11.8 16.6,11.9 16.6,11.7 16.5,11.6 16.7,11.6 "></polygon> <polygon class="st0" points="18.1,11.4 18.2,11.6 18.3,11.6 18.2,11.7 18.2,11.9 18.1,11.8 18,11.9 18,11.7 17.9,11.6 18,11.6 "></polygon> <polygon class="st0" points="19.5,11.4 19.5,11.6 19.7,11.6 19.6,11.7 19.6,11.9 19.5,11.8 19.3,11.9 19.3,11.7 19.2,11.6 19.4,11.6 "></polygon> <polygon class="st0" points="12.7,12.7 12.7,12.9 12.9,12.9 12.8,13 12.8,13.2 12.7,13.1 12.5,13.2 12.5,13 12.4,12.9 12.6,12.9 "></polygon> <polygon class="st0" points="14,12.7 14.1,12.9 14.3,12.9 14.1,13 14.2,13.2 14,13.1 13.9,13.2 13.9,13 13.8,12.9 13.9,12.9 "></polygon> <polygon class="st0" points="15.4,12.7 15.5,12.9 15.6,12.9 15.5,13 15.5,13.2 15.4,13.1 15.2,13.2 15.3,13 15.1,12.9 15.3,12.9 "></polygon> <polygon class="st0" points="16.7,12.7 16.8,12.9 17,12.9 16.9,13 16.9,13.2 16.7,13.1 16.6,13.2 16.6,13 16.5,12.9 16.7,12.9 "></polygon> <polygon class="st0" points="18.1,12.7 18.2,12.9 18.3,12.9 18.2,13 18.2,13.2 18.1,13.1 18,13.2 18,13 17.9,12.9 18,12.9 "></polygon> <polygon class="st0" points="19.5,12.7 19.5,12.9 19.7,12.9 19.6,13 19.6,13.2 19.5,13.1 19.3,13.2 19.3,13 19.2,12.9 19.4,12.9 "></polygon> <rect x="12.1" y="7.2" class="st4" width="17.9" height="11.8"></rect> </g> <g class="st5"> <rect class="st6" width="17.9" height="11.8"></rect> <rect class="st7" width="17.9" height="1"></rect> <rect y="1.8" class="st7" width="17.9" height="1"></rect> <rect y="3.6" class="st7" width="17.9" height="1"></rect> <rect y="5.5" class="st7" width="17.9" height="1"></rect> <rect y="7.3" class="st7" width="17.9" height="1"></rect> <rect y="9.1" class="st7" width="17.9" height="1"></rect> <rect y="10.9" class="st7" width="17.9" height="1"></rect> <rect class="st8" width="7.9" height="6.4"></rect> <polygon class="st6" points="1.3,1 1.3,1.2 1.5,1.2 1.4,1.3 1.4,1.5 1.3,1.4 1.1,1.5 1.1,1.3 1,1.2 1.2,1.2 "></polygon> <polygon class="st6" points="2.6,1 2.7,1.2 2.9,1.2 2.7,1.3 2.8,1.5 2.6,1.4 2.5,1.5 2.5,1.3 2.4,1.2 2.5,1.2 "></polygon> <polygon class="st6" points="4,1 4,1.2 4.2,1.2 4.1,1.3 4.1,1.5 4,1.4 3.8,1.5 3.8,1.3 3.7,1.2 3.9,1.2 "></polygon> <polygon class="st6" points="5.3,1 5.4,1.2 5.6,1.2 5.4,1.3 5.5,1.5 5.3,1.4 5.2,1.5 5.2,1.3 5.1,1.2 5.3,1.2 "></polygon> <polygon class="st6" points="6.7,1 6.8,1.2 6.9,1.2 6.8,1.3 6.8,1.5 6.7,1.4 6.5,1.5 6.6,1.3 6.4,1.2 6.6,1.2 "></polygon> <polygon class="st6" points="1.3,2.3 1.3,2.5 1.5,2.5 1.4,2.6 1.4,2.8 1.3,2.7 1.1,2.8 1.1,2.6 1,2.5 1.2,2.5 "></polygon> <polygon class="st6" points="2.6,2.3 2.7,2.5 2.9,2.5 2.7,2.6 2.8,2.8 2.6,2.7 2.5,2.8 2.5,2.6 2.4,2.5 2.5,2.5 "></polygon> <polygon class="st6" points="4,2.3 4,2.5 4.2,2.5 4.1,2.6 4.1,2.8 4,2.7 3.8,2.8 3.8,2.6 3.7,2.5 3.9,2.5 "></polygon> <polygon class="st6" points="5.3,2.3 5.4,2.5 5.6,2.5 5.4,2.6 5.5,2.8 5.3,2.7 5.2,2.8 5.2,2.6 5.1,2.5 5.3,2.5 "></polygon> <polygon class="st6" points="6.7,2.3 6.8,2.5 6.9,2.5 6.8,2.6 6.8,2.8 6.7,2.7 6.5,2.8 6.6,2.6 6.4,2.5 6.6,2.5 "></polygon> <polygon class="st6" points="1.3,3.6 1.3,3.8 1.5,3.8 1.4,3.9 1.4,4.1 1.3,4 1.1,4.1 1.1,3.9 1,3.8 1.2,3.8 "></polygon> <polygon class="st6" points="2.6,3.6 2.7,3.8 2.9,3.8 2.7,3.9 2.8,4.1 2.6,4 2.5,4.1 2.5,3.9 2.4,3.8 2.5,3.8 "></polygon> <polygon class="st6" points="4,3.6 4,3.8 4.2,3.8 4.1,3.9 4.1,4.1 4,4 3.8,4.1 3.8,3.9 3.7,3.8 3.9,3.8 "></polygon> <polygon class="st6" points="5.3,3.6 5.4,3.8 5.6,3.8 5.4,3.9 5.5,4.1 5.3,4 5.2,4.1 5.2,3.9 5.1,3.8 5.3,3.8 "></polygon> <polygon class="st6" points="6.7,3.6 6.8,3.8 6.9,3.8 6.8,3.9 6.8,4.1 6.7,4 6.5,4.1 6.6,3.9 6.4,3.8 6.6,3.8 "></polygon> <polygon class="st6" points="1.3,4.9 1.3,5.1 1.5,5.1 1.4,5.2 1.4,5.4 1.3,5.3 1.1,5.4 1.1,5.2 1,5.1 1.2,5.1 "></polygon> <polygon class="st6" points="2.6,4.9 2.7,5.1 2.9,5.1 2.7,5.2 2.8,5.4 2.6,5.3 2.5,5.4 2.5,5.2 2.4,5.1 2.5,5.1 "></polygon> <polygon class="st6" points="4,4.9 4,5.1 4.2,5.1 4.1,5.2 4.1,5.4 4,5.3 3.8,5.4 3.8,5.2 3.7,5.1 3.9,5.1 "></polygon> <polygon class="st6" points="5.3,4.9 5.4,5.1 5.6,5.1 5.4,5.2 5.5,5.4 5.3,5.3 5.2,5.4 5.2,5.2 5.1,5.1 5.3,5.1 "></polygon> <polygon class="st6" points="6.7,4.9 6.8,5.1 6.9,5.1 6.8,5.2 6.8,5.4 6.7,5.3 6.5,5.4 6.6,5.2 6.4,5.1 6.6,5.1 "></polygon> <polygon class="st6" points="3.3,0.4 3.4,0.5 3.5,0.6 3.4,0.7 3.4,0.9 3.3,0.8 3.1,0.9 3.2,0.7 3,0.6 3.2,0.5 "></polygon> <polygon class="st6" points="4.6,0.4 4.7,0.5 4.9,0.6 4.8,0.7 4.8,0.9 4.6,0.8 4.5,0.9 4.5,0.7 4.4,0.6 4.6,0.5 "></polygon> <polygon class="st6" points="0.6,0.4 0.6,0.5 0.8,0.6 0.7,0.7 0.7,0.9 0.6,0.8 0.4,0.9 0.4,0.7 0.3,0.6 0.5,0.5 "></polygon> <polygon class="st6" points="1.9,0.4 2,0.5 2.2,0.6 2.1,0.7 2.1,0.9 1.9,0.8 1.8,0.9 1.8,0.7 1.7,0.6 1.9,0.5 "></polygon> <polygon class="st6" points="0.6,1.7 0.6,1.8 0.8,1.9 0.7,2 0.7,2.2 0.6,2.1 0.4,2.2 0.4,2 0.3,1.9 0.5,1.8 "></polygon> <polygon class="st6" points="1.9,1.7 2,1.8 2.2,1.9 2.1,2 2.1,2.2 1.9,2.1 1.8,2.2 1.8,2 1.7,1.9 1.9,1.8 "></polygon> <polygon class="st6" points="3.3,1.7 3.4,1.8 3.5,1.9 3.4,2 3.4,2.2 3.3,2.1 3.1,2.2 3.2,2 3,1.9 3.2,1.8 "></polygon> <polygon class="st6" points="4.6,1.7 4.7,1.8 4.9,1.9 4.8,2 4.8,2.2 4.6,2.1 4.5,2.2 4.5,2 4.4,1.9 4.6,1.8 "></polygon> <polygon class="st6" points="6,0.4 6.1,0.5 6.2,0.6 6.1,0.7 6.2,0.9 6,0.8 5.9,0.9 5.9,0.7 5.8,0.6 5.9,0.5 "></polygon> <polygon class="st6" points="7.4,0.4 7.4,0.5 7.6,0.6 7.5,0.7 7.5,0.9 7.4,0.8 7.2,0.9 7.2,0.7 7.1,0.6 7.3,0.5 "></polygon> <polygon class="st6" points="6,1.7 6.1,1.8 6.2,1.9 6.1,2 6.2,2.2 6,2.1 5.9,2.2 5.9,2 5.8,1.9 5.9,1.8 "></polygon> <polygon class="st6" points="7.4,1.7 7.4,1.8 7.6,1.9 7.5,2 7.5,2.2 7.4,2.1 7.2,2.2 7.2,2 7.1,1.9 7.3,1.8 "></polygon> <polygon class="st6" points="0.6,3 0.6,3.1 0.8,3.2 0.7,3.3 0.7,3.5 0.6,3.4 0.4,3.5 0.4,3.3 0.3,3.2 0.5,3.1 "></polygon> <polygon class="st6" points="1.9,3 2,3.1 2.2,3.2 2.1,3.3 2.1,3.5 1.9,3.4 1.8,3.5 1.8,3.3 1.7,3.2 1.9,3.1 "></polygon> <polygon class="st6" points="3.3,3 3.4,3.1 3.5,3.2 3.4,3.3 3.4,3.5 3.3,3.4 3.1,3.5 3.2,3.3 3,3.2 3.2,3.1 "></polygon> <polygon class="st6" points="4.6,3 4.7,3.1 4.9,3.2 4.8,3.3 4.8,3.5 4.6,3.4 4.5,3.5 4.5,3.3 4.4,3.2 4.6,3.1 "></polygon> <polygon class="st6" points="6,3 6.1,3.1 6.2,3.2 6.1,3.3 6.2,3.5 6,3.4 5.9,3.5 5.9,3.3 5.8,3.2 5.9,3.1 "></polygon> <polygon class="st6" points="7.4,3 7.4,3.1 7.6,3.2 7.5,3.3 7.5,3.5 7.4,3.4 7.2,3.5 7.2,3.3 7.1,3.2 7.3,3.1 "></polygon> <polygon class="st6" points="0.6,4.3 0.6,4.4 0.8,4.5 0.7,4.6 0.7,4.8 0.6,4.7 0.4,4.8 0.4,4.6 0.3,4.5 0.5,4.4 "></polygon> <polygon class="st6" points="1.9,4.3 2,4.4 2.2,4.5 2.1,4.6 2.1,4.8 1.9,4.7 1.8,4.8 1.8,4.6 1.7,4.5 1.9,4.4 "></polygon> <polygon class="st6" points="3.3,4.3 3.4,4.4 3.5,4.5 3.4,4.6 3.4,4.8 3.3,4.7 3.1,4.8 3.2,4.6 3,4.5 3.2,4.4 "></polygon> <polygon class="st6" points="4.6,4.3 4.7,4.4 4.9,4.5 4.8,4.6 4.8,4.8 4.6,4.7 4.5,4.8 4.5,4.6 4.4,4.5 4.6,4.4 "></polygon> <polygon class="st6" points="6,4.3 6.1,4.4 6.2,4.5 6.1,4.6 6.2,4.8 6,4.7 5.9,4.8 5.9,4.6 5.8,4.5 5.9,4.4 "></polygon> <polygon class="st6" points="7.4,4.3 7.4,4.4 7.6,4.5 7.5,4.6 7.5,4.8 7.4,4.7 7.2,4.8 7.2,4.6 7.1,4.5 7.3,4.4 "></polygon> <polygon class="st6" points="0.6,5.6 0.6,5.7 0.8,5.8 0.7,5.9 0.7,6.1 0.6,6 0.4,6.1 0.4,5.9 0.3,5.8 0.5,5.7 "></polygon> <polygon class="st6" points="1.9,5.6 2,5.7 2.2,5.8 2.1,5.9 2.1,6.1 1.9,6 1.8,6.1 1.8,5.9 1.7,5.8 1.9,5.7 "></polygon> <polygon class="st6" points="3.3,5.6 3.4,5.7 3.5,5.8 3.4,5.9 3.4,6.1 3.3,6 3.1,6.1 3.2,5.9 3,5.8 3.2,5.7 "></polygon> <polygon class="st6" points="4.6,5.6 4.7,5.7 4.9,5.8 4.8,5.9 4.8,6.1 4.6,6 4.5,6.1 4.5,5.9 4.4,5.8 4.6,5.7 "></polygon> <polygon class="st6" points="6,5.6 6.1,5.7 6.2,5.8 6.1,5.9 6.2,6.1 6,6 5.9,6.1 5.9,5.9 5.8,5.8 5.9,5.7 "></polygon> <polygon class="st6" points="7.4,5.6 7.4,5.7 7.6,5.8 7.5,5.9 7.5,6.1 7.4,6 7.2,6.1 7.2,5.9 7.1,5.8 7.3,5.7 "></polygon> <rect class="st9" width="17.9" height="11.8"></rect> </g> </svg> 