<?xml version="1.0" encoding="UTF-8"?> <svg xmlns="http://www.w3.org/2000/svg" xmlns:xlink="http://www.w3.org/1999/xlink" id="Layer_1" data-name="Layer 1" viewBox="0 0 30 19"><defs><style>.cls-1{fill:url(#_ÂÁ_Ï_ÌÌ_È_ËÂÌÚ_228);}.cls-2{fill:#010101;}.cls-3{fill:#fff;}.cls-4{fill:#b32335;}.cls-5{fill:#323269;}.cls-6{fill:none;stroke:#fff;stroke-miterlimit:10;stroke-width:0.2px;}</style><linearGradient id="_ÂÁ_Ï_ÌÌ_È_ËÂÌÚ_228" y1="5.7" x2="17.89" y2="5.7" gradientUnits="userSpaceOnUse"><stop offset="0" stop-color="#d3a007"></stop><stop offset="0.52" stop-color="#ffd224"></stop><stop offset="1" stop-color="#d3a007"></stop></linearGradient></defs><rect class="cls-1" width="17.89" height="11.4"></rect><polygon class="cls-2" points="5.46 5.47 4.97 5.7 5.31 5.78 5.46 5.47"></polygon><polygon class="cls-2" points="4.65 5.88 4.04 7.15 6.43 7.84 6.29 6.33 4.65 5.88"></polygon><polygon class="cls-2" points="6.56 6.4 6.64 7.36 6.69 7.82 6.74 7.79 7.32 6.6 6.56 6.4"></polygon><polygon class="cls-2" points="8.59 6.66 8.9 6.74 9.1 6.79 9.29 6.84 9.32 6.84 13.15 5.21 12.45 4.93 8.59 6.66"></polygon><polygon class="cls-2" points="8.93 7.01 8.74 6.96 8.54 6.92 7.57 6.67 7.12 7.61 7.03 7.79 6.96 7.94 7 7.95 9.35 8.63 9.21 7.08 8.93 7.01"></polygon><polygon class="cls-2" points="13.3 5.42 9.47 7.06 9.56 8.14 9.61 8.61 13.86 6.59 13.3 5.42"></polygon><polygon class="cls-2" points="7.11 4.57 7.14 4.58 7.31 4.62 7.92 4.78 9.15 4.25 9.32 4.18 9.5 4.1 10.04 3.87 11.47 3.26 10.09 2.77 6.49 4.42 6.91 4.52 7.11 4.57"></polygon><polygon class="cls-2" points="6.76 6.18 7.51 6.38 7.7 6.43 7.9 6.48 8.05 6.52 8.04 6.42 8.02 6.29 8 6.16 7.92 5.68 7.92 5.68 7.9 5.55 7.88 5.42 7.82 5.01 6.93 4.79 6.73 4.75 6.65 4.72 6.53 4.7 6.17 4.61 6.01 4.93 5.92 5.12 5.84 5.3 5.57 5.84 5.56 5.87 6.35 6.08 6.52 6.12 6.55 6.13 6.76 6.18 6.76 6.18"></polygon><polygon class="cls-2" points="9.68 4.3 9.55 4.36 9.51 4.38 8.07 4.99 8.13 5.32 8.13 5.32 8.15 5.45 8.17 5.58 8.24 6.04 8.26 6.18 8.28 6.31 8.31 6.51 12.22 4.78 11.66 3.46 9.86 4.23 9.68 4.3"></polygon><rect class="cls-3" x="12.11" y="7.18" width="17.89" height="11.82"></rect><rect class="cls-4" x="12.11" y="7.18" width="17.89" height="0.96"></rect><rect class="cls-4" x="12.11" y="8.99" width="17.89" height="0.96"></rect><rect class="cls-4" x="12.11" y="10.8" width="17.89" height="0.96"></rect><rect class="cls-4" x="12.11" y="12.61" width="17.89" height="0.96"></rect><rect class="cls-4" x="12.11" y="14.42" width="17.89" height="0.96"></rect><rect class="cls-4" x="12.11" y="16.23" width="17.89" height="0.96"></rect><rect class="cls-4" x="12.11" y="18.04" width="17.89" height="0.96"></rect><rect class="cls-5" x="12.13" y="7.18" width="7.87" height="6.39"></rect><polygon class="cls-3" points="13.35 8.16 13.42 8.33 13.59 8.36 13.47 8.49 13.5 8.68 13.35 8.59 13.2 8.68 13.22 8.49 13.1 8.36 13.27 8.33 13.35 8.16"></polygon><polygon class="cls-3" points="14.7 8.16 14.78 8.33 14.95 8.36 14.82 8.49 14.85 8.68 14.7 8.59 14.55 8.68 14.58 8.49 14.46 8.36 14.63 8.33 14.7 8.16"></polygon><polygon class="cls-3" points="16.06 8.16 16.14 8.33 16.3 8.36 16.18 8.49 16.21 8.68 16.06 8.59 15.91 8.68 15.94 8.49 15.82 8.36 15.99 8.33 16.06 8.16"></polygon><polygon class="cls-3" points="17.42 8.16 17.5 8.33 17.66 8.36 17.54 8.49 17.57 8.68 17.42 8.59 17.27 8.68 17.3 8.49 17.18 8.36 17.35 8.33 17.42 8.16"></polygon><polygon class="cls-3" points="18.78 8.16 18.86 8.33 19.02 8.36 18.9 8.49 18.93 8.68 18.78 8.59 18.63 8.68 18.66 8.49 18.54 8.36 18.7 8.33 18.78 8.16"></polygon><polygon class="cls-3" points="13.35 9.46 13.42 9.63 13.59 9.66 13.47 9.79 13.5 9.98 13.35 9.89 13.2 9.98 13.22 9.79 13.1 9.66 13.27 9.63 13.35 9.46"></polygon><polygon class="cls-3" points="14.7 9.46 14.78 9.63 14.95 9.66 14.82 9.79 14.85 9.98 14.7 9.89 14.55 9.98 14.58 9.79 14.46 9.66 14.63 9.63 14.7 9.46"></polygon><polygon class="cls-3" points="16.06 9.46 16.14 9.63 16.3 9.66 16.18 9.79 16.21 9.98 16.06 9.89 15.91 9.98 15.94 9.79 15.82 9.66 15.99 9.63 16.06 9.46"></polygon><polygon class="cls-3" points="17.42 9.46 17.5 9.63 17.66 9.66 17.54 9.79 17.57 9.98 17.42 9.89 17.27 9.98 17.3 9.79 17.18 9.66 17.35 9.63 17.42 9.46"></polygon><polygon class="cls-3" points="18.78 9.46 18.86 9.63 19.02 9.66 18.9 9.79 18.93 9.98 18.78 9.89 18.63 9.98 18.66 9.79 18.54 9.66 18.7 9.63 18.78 9.46"></polygon><polygon class="cls-3" points="13.35 10.76 13.42 10.93 13.59 10.96 13.47 11.09 13.5 11.28 13.35 11.19 13.2 11.28 13.22 11.09 13.1 10.96 13.27 10.93 13.35 10.76"></polygon><polygon class="cls-3" points="14.7 10.76 14.78 10.93 14.95 10.96 14.82 11.09 14.85 11.28 14.7 11.19 14.55 11.28 14.58 11.09 14.46 10.96 14.63 10.93 14.7 10.76"></polygon><polygon class="cls-3" points="16.06 10.76 16.14 10.93 16.3 10.96 16.18 11.09 16.21 11.28 16.06 11.19 15.91 11.28 15.94 11.09 15.82 10.96 15.99 10.93 16.06 10.76"></polygon><polygon class="cls-3" points="17.42 10.76 17.5 10.93 17.66 10.96 17.54 11.09 17.57 11.28 17.42 11.19 17.27 11.28 17.3 11.09 17.18 10.96 17.35 10.93 17.42 10.76"></polygon><polygon class="cls-3" points="18.78 10.76 18.86 10.93 19.02 10.96 18.9 11.09 18.93 11.28 18.78 11.19 18.63 11.28 18.66 11.09 18.54 10.96 18.7 10.93 18.78 10.76"></polygon><polygon class="cls-3" points="13.35 12.06 13.42 12.23 13.59 12.26 13.47 12.39 13.5 12.58 13.35 12.49 13.2 12.58 13.22 12.39 13.1 12.26 13.27 12.23 13.35 12.06"></polygon><polygon class="cls-3" points="14.7 12.06 14.78 12.23 14.95 12.26 14.82 12.39 14.85 12.58 14.7 12.49 14.55 12.58 14.58 12.39 14.46 12.26 14.63 12.23 14.7 12.06"></polygon><polygon class="cls-3" points="16.06 12.06 16.14 12.23 16.3 12.26 16.18 12.39 16.21 12.58 16.06 12.49 15.91 12.58 15.94 12.39 15.82 12.26 15.99 12.23 16.06 12.06"></polygon><polygon class="cls-3" points="17.42 12.06 17.5 12.23 17.66 12.26 17.54 12.39 17.57 12.58 17.42 12.49 17.27 12.58 17.3 12.39 17.18 12.26 17.35 12.23 17.42 12.06"></polygon><polygon class="cls-3" points="18.78 12.06 18.86 12.23 19.02 12.26 18.9 12.39 18.93 12.58 18.78 12.49 18.63 12.58 18.66 12.39 18.54 12.26 18.7 12.23 18.78 12.06"></polygon><polygon class="cls-3" points="15.38 7.51 15.46 7.68 15.63 7.71 15.51 7.84 15.53 8.03 15.38 7.95 15.23 8.03 15.26 7.84 15.14 7.71 15.31 7.68 15.38 7.51"></polygon><polygon class="cls-3" points="16.74 7.51 16.82 7.68 16.98 7.71 16.86 7.84 16.89 8.03 16.74 7.95 16.59 8.03 16.62 7.84 16.5 7.71 16.67 7.68 16.74 7.51"></polygon><polygon class="cls-3" points="12.67 7.51 12.74 7.68 12.91 7.71 12.79 7.84 12.82 8.03 12.67 7.95 12.52 8.03 12.54 7.84 12.42 7.71 12.59 7.68 12.67 7.51"></polygon><polygon class="cls-3" points="14.03 7.51 14.1 7.68 14.27 7.71 14.15 7.84 14.18 8.03 14.03 7.95 13.88 8.03 13.9 7.84 13.78 7.71 13.95 7.68 14.03 7.51"></polygon><polygon class="cls-3" points="12.67 8.81 12.74 8.98 12.91 9.01 12.79 9.14 12.82 9.33 12.67 9.24 12.52 9.33 12.54 9.14 12.42 9.01 12.59 8.98 12.67 8.81"></polygon><polygon class="cls-3" points="14.03 8.81 14.1 8.98 14.27 9.01 14.15 9.14 14.18 9.33 14.03 9.24 13.88 9.33 13.9 9.14 13.78 9.01 13.95 8.98 14.03 8.81"></polygon><polygon class="cls-3" points="15.38 8.81 15.46 8.98 15.63 9.01 15.51 9.14 15.53 9.33 15.38 9.24 15.23 9.33 15.26 9.14 15.14 9.01 15.31 8.98 15.38 8.81"></polygon><polygon class="cls-3" points="16.74 8.81 16.82 8.98 16.98 9.01 16.86 9.14 16.89 9.33 16.74 9.24 16.59 9.33 16.62 9.14 16.5 9.01 16.67 8.98 16.74 8.81"></polygon><polygon class="cls-3" points="18.1 7.51 18.18 7.68 18.34 7.71 18.22 7.84 18.25 8.03 18.1 7.95 17.95 8.03 17.98 7.84 17.86 7.71 18.03 7.68 18.1 7.51"></polygon><polygon class="cls-3" points="19.46 7.51 19.53 7.68 19.7 7.71 19.58 7.84 19.61 8.03 19.46 7.95 19.31 8.03 19.34 7.84 19.22 7.71 19.38 7.68 19.46 7.51"></polygon><polygon class="cls-3" points="18.1 8.81 18.18 8.98 18.34 9.01 18.22 9.14 18.25 9.33 18.1 9.24 17.95 9.33 17.98 9.14 17.86 9.01 18.03 8.98 18.1 8.81"></polygon><polygon class="cls-3" points="19.46 8.81 19.53 8.98 19.7 9.01 19.58 9.14 19.61 9.33 19.46 9.24 19.31 9.33 19.34 9.14 19.22 9.01 19.38 8.98 19.46 8.81"></polygon><polygon class="cls-3" points="12.67 10.11 12.74 10.28 12.91 10.31 12.79 10.44 12.82 10.63 12.67 10.54 12.52 10.63 12.54 10.44 12.42 10.31 12.59 10.28 12.67 10.11"></polygon><polygon class="cls-3" points="14.03 10.11 14.1 10.28 14.27 10.31 14.15 10.44 14.18 10.63 14.03 10.54 13.88 10.63 13.9 10.44 13.78 10.31 13.95 10.28 14.03 10.11"></polygon><polygon class="cls-3" points="15.38 10.11 15.46 10.28 15.63 10.31 15.51 10.44 15.53 10.63 15.38 10.54 15.23 10.63 15.26 10.44 15.14 10.31 15.31 10.28 15.38 10.11"></polygon><polygon class="cls-3" points="16.74 10.11 16.82 10.28 16.98 10.31 16.86 10.44 16.89 10.63 16.74 10.54 16.59 10.63 16.62 10.44 16.5 10.31 16.67 10.28 16.74 10.11"></polygon><polygon class="cls-3" points="18.1 10.11 18.18 10.28 18.34 10.31 18.22 10.44 18.25 10.63 18.1 10.54 17.95 10.63 17.98 10.44 17.86 10.31 18.03 10.28 18.1 10.11"></polygon><polygon class="cls-3" points="19.46 10.11 19.53 10.28 19.7 10.31 19.58 10.44 19.61 10.63 19.46 10.54 19.31 10.63 19.34 10.44 19.22 10.31 19.38 10.28 19.46 10.11"></polygon><polygon class="cls-3" points="12.67 11.41 12.74 11.58 12.91 11.61 12.79 11.74 12.82 11.93 12.67 11.84 12.52 11.93 12.54 11.74 12.42 11.61 12.59 11.58 12.67 11.41"></polygon><polygon class="cls-3" points="14.03 11.41 14.1 11.58 14.27 11.61 14.15 11.74 14.18 11.93 14.03 11.84 13.88 11.93 13.9 11.74 13.78 11.61 13.95 11.58 14.03 11.41"></polygon><polygon class="cls-3" points="15.38 11.41 15.46 11.58 15.63 11.61 15.51 11.74 15.53 11.93 15.38 11.84 15.23 11.93 15.26 11.74 15.14 11.61 15.31 11.58 15.38 11.41"></polygon><polygon class="cls-3" points="16.74 11.41 16.82 11.58 16.98 11.61 16.86 11.74 16.89 11.93 16.74 11.84 16.59 11.93 16.62 11.74 16.5 11.61 16.67 11.58 16.74 11.41"></polygon><polygon class="cls-3" points="18.1 11.41 18.18 11.58 18.34 11.61 18.22 11.74 18.25 11.93 18.1 11.84 17.95 11.93 17.98 11.74 17.86 11.61 18.03 11.58 18.1 11.41"></polygon><polygon class="cls-3" points="19.46 11.41 19.53 11.58 19.7 11.61 19.58 11.74 19.61 11.93 19.46 11.84 19.31 11.93 19.34 11.74 19.22 11.61 19.38 11.58 19.46 11.41"></polygon><polygon class="cls-3" points="12.67 12.71 12.74 12.88 12.91 12.91 12.79 13.04 12.82 13.23 12.67 13.14 12.52 13.23 12.54 13.04 12.42 12.91 12.59 12.88 12.67 12.71"></polygon><polygon class="cls-3" points="14.03 12.71 14.1 12.88 14.27 12.91 14.15 13.04 14.18 13.23 14.03 13.14 13.88 13.23 13.9 13.04 13.78 12.91 13.95 12.88 14.03 12.71"></polygon><polygon class="cls-3" points="15.38 12.71 15.46 12.88 15.63 12.91 15.51 13.04 15.53 13.23 15.38 13.14 15.23 13.23 15.26 13.04 15.14 12.91 15.31 12.88 15.38 12.71"></polygon><polygon class="cls-3" points="16.74 12.71 16.82 12.88 16.98 12.91 16.86 13.04 16.89 13.23 16.74 13.14 16.59 13.23 16.62 13.04 16.5 12.91 16.67 12.88 16.74 12.71"></polygon><polygon class="cls-3" points="18.1 12.71 18.18 12.88 18.34 12.91 18.22 13.04 18.25 13.23 18.1 13.14 17.95 13.23 17.98 13.04 17.86 12.91 18.03 12.88 18.1 12.71"></polygon><polygon class="cls-3" points="19.46 12.71 19.53 12.88 19.7 12.91 19.58 13.04 19.61 13.23 19.46 13.14 19.31 13.23 19.34 13.04 19.22 12.91 19.38 12.88 19.46 12.71"></polygon><rect class="cls-6" x="12.11" y="7.18" width="17.89" height="11.82"></rect></svg> 