<svg xmlns="http://www.w3.org/2000/svg" width="176.139" height="39.597" viewBox="0 0 176.139 39.597">
  <g id="Group_20102" data-name="Group 20102" transform="translate(-60 -478.606)">
    <g id="Group_13406" data-name="Group 13406" transform="translate(60 478.606)">
      <path id="Path_13074" data-name="Path 13074" d="M80.572,478.606H79.8A19.8,19.8,0,0,0,60,498.4h0a19.87,19.87,0,0,0,.443,4.177l6.55-6.55a2.976,2.976,0,0,1,4.209,0h0a2.976,2.976,0,0,1,0,4.209l-8.37,8.37a19.851,19.851,0,0,0,1.72,2.422l8.721-8.722a2.976,2.976,0,0,1,4.209,0h0a2.976,2.976,0,0,1,0,4.209L69,515a19.749,19.749,0,0,0,2.6,1.431l7.669-7.669a2.976,2.976,0,0,1,4.209,4.209l-5.175,5.175q.738.055,1.491.056h.774a19.8,19.8,0,0,0,19.8-19.8h0A19.8,19.8,0,0,0,80.572,478.606Z" transform="translate(-60 -478.606)" fill="#23a5d6"/>
      <path id="Path_13075" data-name="Path 13075" d="M73.475,580.981h0a2.976,2.976,0,0,0-4.209,0l-6.55,6.55a19.675,19.675,0,0,0,2.388,6.03l8.37-8.37A2.976,2.976,0,0,0,73.475,580.981Z" transform="translate(-62.273 -563.555)" fill="#fff"/>
      <path id="Path_13076" data-name="Path 13076" d="M100.836,619.488h0a2.976,2.976,0,0,0-4.209,0l-8.721,8.721a19.9,19.9,0,0,0,4.45,3.967l8.48-8.48A2.976,2.976,0,0,0,100.836,619.488Z" transform="translate(-83.355 -595.782)" fill="#fff"/>
      <path id="Path_13077" data-name="Path 13077" d="M143.03,659.043a2.976,2.976,0,0,0-4.209,0l-7.669,7.669a19.678,19.678,0,0,0,6.7,1.715l5.175-5.175A2.976,2.976,0,0,0,143.03,659.043Z" transform="translate(-119.548 -628.886)" fill="#fff"/>
    </g>
    <g id="Group_13407" data-name="Group 13407" transform="translate(110.5 489.789)">
      <path id="Path_13078" data-name="Path 13078" d="M380.4,560.858v2.286H369.641v-14.68h10.472v2.286H372.3v3.817h6.927v2.244H372.3v4.047Z" transform="translate(-369.641 -548.254)" fill="#171d24"/>
      <path id="Path_13079" data-name="Path 13079" d="M455.258,548.464l-6.251,14.68h-2.623l-6.271-14.68H443l4.774,11.325,4.816-11.325Z" transform="translate(-428.62 -548.254)" fill="#171d24"/>
      <path id="Path_13080" data-name="Path 13080" d="M553.012,560.858v2.286H542.254v-14.68h10.472v2.286h-7.808v3.817h6.927v2.244h-6.927v4.047Z" transform="translate(-514.102 -548.254)" fill="#171d24"/>
      <path id="Path_13081" data-name="Path 13081" d="M635.811,563.144l-2.931-4.3a4.715,4.715,0,0,1-.553.022H629.09v4.278h-2.664v-14.68h5.9c3.771,0,6.107,1.971,6.107,5.221a4.692,4.692,0,0,1-3.053,4.635l3.3,4.824ZM632.2,550.771H629.09v5.851H632.2c2.336,0,3.546-1.091,3.546-2.937S634.54,550.771,632.2,550.771Z" transform="translate(-584.547 -548.254)" fill="#171d24"/>
      <path id="Path_13082" data-name="Path 13082" d="M729.015,560.858v2.286H718.257v-14.68h10.471v2.286h-7.808v3.817h6.927v2.244h-6.927v4.047Z" transform="translate(-661.401 -548.254)" fill="#171d24"/>
      <path id="Path_13083" data-name="Path 13083" d="M795.011,560.516l.923-2.119a7.824,7.824,0,0,0,4.734,1.615c2.233,0,3.176-.818,3.176-1.908,0-3.167-8.525-1.091-8.525-6.544,0-2.37,1.845-4.383,5.779-4.383a8.911,8.911,0,0,1,4.774,1.3l-.84,2.119a7.832,7.832,0,0,0-3.955-1.153c-2.214,0-3.115.88-3.115,1.992,0,3.125,8.5,1.091,8.5,6.481,0,2.349-1.864,4.362-5.8,4.362A9.1,9.1,0,0,1,795.011,560.516Z" transform="translate(-725.637 -547.178)" fill="#171d24"/>
      <path id="Path_13084" data-name="Path 13084" d="M873.634,550.771h-4.755v-2.307h12.173v2.307H876.3v12.374h-2.664Z" transform="translate(-787.458 -548.254)" fill="#171d24"/>
      <path id="Path_13085" data-name="Path 13085" d="M950.534,555.16a7.283,7.283,0,0,1,7.521-7.466,6.866,6.866,0,0,1,5.246,2.138l-.963.986a5.616,5.616,0,0,0-4.241-1.741,6.082,6.082,0,0,0,0,12.164,5.56,5.56,0,0,0,4.241-1.762l.963.985a6.894,6.894,0,0,1-5.267,2.16A7.278,7.278,0,0,1,950.534,555.16Z" transform="translate(-855.795 -547.61)" fill="#23a5d6"/>
      <path id="Path_13086" data-name="Path 13086" d="M1063.552,548.464v14.68H1062.1V551.4l-5.635,9.878h-.717l-5.636-9.815v11.681h-1.455v-14.68h1.25l6.229,10.884,6.169-10.884Z" transform="translate(-937.913 -548.254)" fill="#23a5d6"/>
    </g>
  </g>
</svg>
