<svg id="Group_13580" data-name="Group 13580" xmlns="http://www.w3.org/2000/svg" width="15.942" height="15.942" viewBox="0 0 15.942 15.942">
  <g id="Group_13579" data-name="Group 13579" transform="translate(0 0)">
    <path id="Path_12945" data-name="Path 12945" d="M632.853,118.537c2.128,0,2.38.008,3.221.047a4.416,4.416,0,0,1,1.48.275,2.634,2.634,0,0,1,1.513,1.513,4.416,4.416,0,0,1,.275,1.48c.038.84.047,1.092.047,3.221s-.008,2.38-.047,3.221a4.416,4.416,0,0,1-.275,1.48,2.634,2.634,0,0,1-1.513,1.513,4.416,4.416,0,0,1-1.48.275c-.841.038-1.092.046-3.221.046s-2.38-.008-3.221-.046a4.42,4.42,0,0,1-1.48-.275,2.64,2.64,0,0,1-1.513-1.513,4.4,4.4,0,0,1-.274-1.48c-.038-.84-.047-1.092-.047-3.221s.008-2.38.047-3.221a4.4,4.4,0,0,1,.274-1.48,2.64,2.64,0,0,1,1.513-1.513,4.421,4.421,0,0,1,1.48-.275c.84-.038,1.092-.047,3.221-.047m0-1.436c-2.165,0-2.436.01-3.286.048a5.856,5.856,0,0,0-1.935.37,4.076,4.076,0,0,0-2.331,2.331,5.837,5.837,0,0,0-.371,1.935c-.039.85-.048,1.121-.048,3.286s.009,2.436.048,3.286a5.837,5.837,0,0,0,.371,1.935,4.076,4.076,0,0,0,2.331,2.331,5.876,5.876,0,0,0,1.935.37c.85.038,1.121.047,3.286.047s2.436-.009,3.286-.047a5.876,5.876,0,0,0,1.935-.37,4.08,4.08,0,0,0,2.331-2.331,5.855,5.855,0,0,0,.37-1.935c.039-.85.048-1.121.048-3.286s-.009-2.436-.048-3.286a5.854,5.854,0,0,0-.37-1.935,4.08,4.08,0,0,0-2.331-2.331,5.856,5.856,0,0,0-1.935-.37c-.85-.038-1.121-.048-3.286-.048" transform="translate(-624.882 -117.101)" fill="#909090"/>
    <path id="Path_12946" data-name="Path 12946" d="M634.051,122.178a4.093,4.093,0,1,0,4.093,4.093,4.093,4.093,0,0,0-4.093-4.093m0,6.75a2.657,2.657,0,1,1,2.657-2.657,2.657,2.657,0,0,1-2.657,2.657" transform="translate(-626.081 -118.3)" fill="#909090"/>
    <path id="Path_12947" data-name="Path 12947" d="M641.547,121.67a.956.956,0,1,1-.956-.956.956.956,0,0,1,.956.956" transform="translate(-628.365 -117.954)" fill="#909090"/>
  </g>
</svg>
