<svg id="Group_13575" data-name="Group 13575" xmlns="http://www.w3.org/2000/svg" width="14.741" height="14.749" viewBox="0 0 14.741 14.749">
  <g id="Group_13574" data-name="Group 13574" transform="translate(0 0)">
    <g id="Group_13573" data-name="Group 13573">
      <rect id="Rectangle_37" data-name="Rectangle 37" width="3.043" height="9.832" transform="translate(0.293 4.916)" fill="#909090"/>
      <path id="Path_12940" data-name="Path 12940" d="M762.1,120.56a1.814,1.814,0,1,0-1.8-1.814A1.807,1.807,0,0,0,762.1,120.56Z" transform="translate(-760.3 -116.931)" fill="#909090"/>
    </g>
    <path id="Path_12941" data-name="Path 12941" d="M770.054,127.876c0-1.382.636-2.205,1.854-2.205,1.119,0,1.657.79,1.657,2.205v5.161h3.029v-6.225c0-2.633-1.493-3.907-3.577-3.907a3.429,3.429,0,0,0-2.963,1.624V123.2h-2.919v9.832h2.919Z" transform="translate(-761.853 -118.289)" fill="#909090"/>
  </g>
</svg>
