<svg id="Group_13571" data-name="Group 13571" xmlns="http://www.w3.org/2000/svg" width="15.758" height="12.806" viewBox="0 0 15.758 12.806">
  <path id="Path_12938" data-name="Path 12938" d="M669.841,130.649a9.195,9.195,0,0,0,14.145-8.164,6.569,6.569,0,0,0,1.613-1.674,6.459,6.459,0,0,1-1.857.509,3.235,3.235,0,0,0,1.421-1.789,6.463,6.463,0,0,1-2.052.785,3.235,3.235,0,0,0-5.509,2.949,9.175,9.175,0,0,1-6.663-3.378,3.237,3.237,0,0,0,1,4.316,3.222,3.222,0,0,1-1.465-.4,3.238,3.238,0,0,0,2.593,3.212,3.236,3.236,0,0,1-1.459.054,3.235,3.235,0,0,0,3.02,2.246A6.5,6.5,0,0,1,669.841,130.649Z" transform="translate(-669.841 -119.296)" fill="#909090"/>
</svg>
