<svg id="Group_13569" data-name="Group 13569" xmlns="http://www.w3.org/2000/svg" width="18.734" height="13.198" viewBox="0 0 18.734 13.198">
  <path id="Path_12936" data-name="Path 12936" d="M731.631,121.6a2.352,2.352,0,0,0-1.656-1.667,68.116,68.116,0,0,0-14.637,0,2.354,2.354,0,0,0-1.656,1.667,26.484,26.484,0,0,0,0,9.077,2.352,2.352,0,0,0,1.656,1.666,68.12,68.12,0,0,0,14.637,0,2.351,2.351,0,0,0,1.656-1.666,26.476,26.476,0,0,0,0-9.077Zm-10.891,7.324V123.35l4.9,2.785Z" transform="translate(-713.289 -119.536)" fill="#909090"/>
</svg>
