<svg xmlns="http://www.w3.org/2000/svg" width="533.112" height="573.692" viewBox="0 0 533.112 573.692">
  <path id="Path_94057" data-name="Path 94057" d="M547.512,598.319l-65.247-60.472c23.871-35.806,40.58-78.773,50.924-126.515L433.729,380.3c-6.366,32.623-15.914,62.064-27.849,86.73L304.031,372.343c75.591-41.376,109.01-83.547,109.01-140.837,0-78.773-63.655-128.106-159.934-128.106-105.031,0-173.46,55.7-173.46,136.859,0,39.785,16.709,75.591,57.29,117.762C51.8,405.762,14.4,454.3,14.4,524.32c0,89.117,89.913,152.772,212.449,152.772,71.612,0,135.267-22.279,186.191-62.064l66.838,62.064ZM253.107,187.743c35.806,0,54.9,19.1,54.9,46.15,0,25.462-17.505,46.15-72.408,75.591-34.215-33.419-42.967-49.333-42.967-70.816C192.635,209.227,214.914,187.743,253.107,187.743ZM235.6,580.018c-61.268,0-99.461-28.645-99.461-69.225,0-34.215,18.3-59.677,69.225-89.117L339.837,547.395C309.6,568.878,273.795,580.018,235.6,580.018Z" transform="translate(-14.4 -103.4)" fill="#c8ecfa"/>
</svg>
