<svg id="Autochartist" xmlns="http://www.w3.org/2000/svg" width="60.842" height="47.084" viewBox="0 0 60.842 47.084">
  <path id="Path_12834" data-name="Path 12834" d="M1465.985-582.057c-.021.081-.04.162-.062.242a1.466,1.466,0,0,1-1.382,1.086c-.52.008-1.04.009-1.559,0a1.462,1.462,0,0,1-1.426-1.38c0-.02,0-.04,0-.059,0-2.321-.005-4.642,0-6.963a1.437,1.437,0,0,1,1.013-1.375c.088-.029.179-.051.268-.076h1.842a.631.631,0,0,0,.082.029,1.454,1.454,0,0,1,1.18,1.123c.017.061.03.123.045.185Z" transform="translate(-1405.143 590.583)" fill="#23a5d6"/>
  <path id="Path_12835" data-name="Path 12835" d="M1187.729-458.648q0-2.94,0-5.88a1.458,1.458,0,0,1,1.152-1.476.531.531,0,0,1,.117-.019c.618,0,1.238-.032,1.854,0a1.434,1.434,0,0,1,1.3,1.4c0,.045,0,.089,0,.134q0,5.835,0,11.671a1.468,1.468,0,0,1-1.546,1.547h-1.366a1.457,1.457,0,0,1-1.511-1.5Q1187.725-455.708,1187.729-458.648Z" transform="translate(-1180.605 488.453)" fill="#23a5d6"/>
  <path id="Path_12836" data-name="Path 12836" d="M1265.976-527.577q0-2.933,0-5.865a1.454,1.454,0,0,1,1.512-1.515c.48,0,.96,0,1.441,0a1.459,1.459,0,0,1,1.468,1.458q0,5.924,0,11.849a1.439,1.439,0,0,1-1.361,1.454,16.6,16.6,0,0,1-1.707,0,1.431,1.431,0,0,1-1.354-1.456Q1265.974-524.615,1265.976-527.577Z" transform="translate(-1244.769 544.97)" fill="#23a5d6"/>
  <path id="Path_12837" data-name="Path 12837" d="M1226.82-490.425c0-1.123.017-2.247-.006-3.371a1.5,1.5,0,0,1,1.553-1.547c.465.016.93,0,1.4,0a1.466,1.466,0,0,1,1.48,1.465q.007,3.46,0,6.92a1.465,1.465,0,0,1-1.453,1.463c-.5.008-1,.006-1.5,0a1.461,1.461,0,0,1-1.469-1.475C1226.816-488.119,1226.82-489.272,1226.82-490.425Z" transform="translate(-1212.656 512.486)" fill="#23a5d6"/>
  <path id="Path_12838" data-name="Path 12838" d="M1344.207-548.564q0-1.7,0-3.4a1.455,1.455,0,0,1,1.519-1.524c.47,0,.941,0,1.411,0a1.463,1.463,0,0,1,1.493,1.494q0,3.43,0,6.86a1.463,1.463,0,0,1-1.486,1.485q-.72,0-1.44,0a1.452,1.452,0,0,1-1.5-1.5Q1344.205-546.857,1344.207-548.564Z" transform="translate(-1308.92 560.165)" fill="#23a5d6"/>
  <path id="Path_12839" data-name="Path 12839" d="M1387.747-533c0,1.143,0,2.287,0,3.43a1.468,1.468,0,0,1-1.169,1.451.541.541,0,0,1-.117.018c-.618,0-1.238.026-1.855-.006a1.431,1.431,0,0,1-1.278-1.314c0-.044-.005-.089-.006-.133q0-3.452,0-6.9a1.446,1.446,0,0,1,1.215-1.452,1.437,1.437,0,0,1,.266-.019q.727,0,1.455,0a1.464,1.464,0,0,1,1.487,1.486C1387.75-535.3,1387.747-534.148,1387.747-533Z" transform="translate(-1340.994 547.408)" fill="#23a5d6"/>
  <path id="Path_12840" data-name="Path 12840" d="M1422.436-538.153q0-1.084,0-2.168a1.465,1.465,0,0,1,1.524-1.525c.539,0,1.081-.019,1.617.024a1.428,1.428,0,0,1,1.282,1.42q.01,2.249,0,4.5a1.46,1.46,0,0,1-1.444,1.439c-.5.005-1.01,0-1.515,0a1.459,1.459,0,0,1-1.464-1.463v-2.227Z" transform="translate(-1373.068 550.621)" fill="#23a5d6"/>
  <path id="Path_12841" data-name="Path 12841" d="M1305.089-510.361c0-.48,0-.96,0-1.44a1.466,1.466,0,0,1,1.507-1.511q.7,0,1.411,0a1.471,1.471,0,0,1,1.506,1.5q.006,1.455,0,2.91a1.463,1.463,0,0,1-1.5,1.492c-.485,0-.97,0-1.455,0a1.456,1.456,0,0,1-1.472-1.467C1305.086-509.371,1305.089-509.866,1305.089-510.361Z" transform="translate(-1276.842 527.221)" fill="#23a5d6"/>
  <path id="Path_12842" data-name="Path 12842" d="M1148.609-413.834c0-.485,0-.97,0-1.455a1.464,1.464,0,0,1,1.472-1.486q.735-.008,1.47,0a1.467,1.467,0,0,1,1.48,1.481q.008,1.47,0,2.94a1.462,1.462,0,0,1-1.49,1.483c-.49,0-.98,0-1.47,0a1.458,1.458,0,0,1-1.462-1.448C1148.6-412.824,1148.609-413.329,1148.609-413.834Z" transform="translate(-1148.525 448.061)" fill="#23a5d6"/>
  <path id="Path_12843" data-name="Path 12843" d="M1152.206-348.559c0-.331.014-.613,0-.893a.526.526,0,0,0-.46-.511,5.339,5.339,0,0,0-.839-.082c-.554-.012-1.109,0-1.663,0h-.2l-.026-.485a.509.509,0,0,1,.092-.018c.777.007,1.554.009,2.33.026a2.433,2.433,0,0,1,.555.088,1,1,0,0,1,.833,1.016c.02.87.006,1.742.005,2.613a.141.141,0,0,1-.013.037h-.6v-.333c-.032.016-.05.018-.055.028a.62.62,0,0,1-.561.334c-.86.017-1.722.046-2.58.008-.565-.025-.8-.3-.859-.856a3.5,3.5,0,0,1,.01-.71.651.651,0,0,1,.507-.592,2.316,2.316,0,0,1,.6-.105c.722-.008,1.444,0,2.166.013A.864.864,0,0,1,1152.206-348.559Zm-1.708,1.33v.023c.178,0,.357.01.534,0,.261-.019.522-.045.78-.088a.41.41,0,0,0,.366-.268c.114-.444.055-.815-.474-.89a11.466,11.466,0,0,0-2.3-.035c-.549.033-.686.234-.633.774,0,.039.012.078.02.117a.36.36,0,0,0,.233.286,1,1,0,0,0,.314.079C1149.726-347.223,1150.112-347.229,1150.5-347.229Z" transform="translate(-1148.152 393.753)" fill="#23a5d6"/>
  <path id="Path_12844" data-name="Path 12844" d="M1342.244-346.77h-.613v-.323a.834.834,0,0,1-.777.367c-.816.007-1.633.024-2.447-.012a.807.807,0,0,1-.82-.861,5,5,0,0,1,0-.652.664.664,0,0,1,.5-.635,2.28,2.28,0,0,1,.624-.113c.722-.008,1.444,0,2.166.015a.834.834,0,0,1,.729.391l.05-.012c-.021-.335-.022-.672-.072-1a.461.461,0,0,0-.416-.356,5.969,5.969,0,0,0-.839-.082c-.559-.012-1.118,0-1.677,0h-.19v-.487a.39.39,0,0,1,.079-.016c.782.007,1.564.007,2.345.028a2.443,2.443,0,0,1,.652.124.926.926,0,0,1,.7.9C1342.261-348.6,1342.244-347.693,1342.244-346.77Zm-2.321-.459v.022c.183,0,.367.013.549,0a8.172,8.172,0,0,0,.835-.113.389.389,0,0,0,.321-.332c.087-.5-.068-.722-.568-.815a.783.783,0,0,0-.132-.017c-.658-.009-1.316-.021-1.974-.021a1.754,1.754,0,0,0-.451.076.389.389,0,0,0-.3.4c-.006.252-.076.533.2.7a.8.8,0,0,0,.365.105C1339.151-347.22,1339.537-347.229,1339.923-347.229Z" transform="translate(-1303.484 393.753)" fill="#23a5d6"/>
  <path id="Path_12845" data-name="Path 12845" d="M1241.741-346.71c-.462-.04-.93-.046-1.384-.129a1.253,1.253,0,0,1-1.12-1.363q-.007-.467,0-.935a1.28,1.28,0,0,1,1.138-1.369,3.42,3.42,0,0,1,.6-.073,9.981,9.981,0,0,1,2.117.069,1.287,1.287,0,0,1,1.162,1.408c0,.327.005.653,0,.98a1.212,1.212,0,0,1-.979,1.249,7.444,7.444,0,0,1-1.071.126c-.152.014-.307,0-.46,0Zm.01-.56h0c.351,0,.7.021,1.052-.005a.791.791,0,0,0,.815-.769,6.994,6.994,0,0,0,0-1.245.727.727,0,0,0-.73-.745,20.834,20.834,0,0,0-2.279,0,.728.728,0,0,0-.735.755,6.587,6.587,0,0,0,0,1.229.793.793,0,0,0,.824.776C1241.048-347.25,1241.4-347.27,1241.751-347.27Z" transform="translate(-1222.84 393.794)" fill="#23a5d6"/>
  <path id="Path_12846" data-name="Path 12846" d="M1436.265-350.333v.51c-.067,0-.129.009-.191.009l-2.436.02a1,1,0,0,0-.1.006c-.324.037-.421.143-.426.469,0,.069,0,.138.009.208a.333.333,0,0,0,.27.331,2.141,2.141,0,0,0,.468.06c.639.007,1.278,0,1.916.009a3.515,3.515,0,0,1,.733.093.713.713,0,0,1,.577.609,2.332,2.332,0,0,1,.008.719.83.83,0,0,1-.695.67,3.034,3.034,0,0,1-.674.091c-1.044.01-2.089,0-3.134,0-.024,0-.049,0-.085-.006v-.492h.173c.955,0,1.911,0,2.867,0a3.445,3.445,0,0,0,.589-.057.4.4,0,0,0,.369-.4,1.493,1.493,0,0,0,0-.31.375.375,0,0,0-.319-.361,2.455,2.455,0,0,0-.484-.058c-.673-.006-1.347,0-2.02-.007a2.783,2.783,0,0,1-.643-.088.675.675,0,0,1-.519-.619,4.137,4.137,0,0,1-.011-.651.558.558,0,0,1,.387-.531,2.4,2.4,0,0,1,.688-.163C1434.468-350.307,1435.359-350.315,1436.265-350.333Z" transform="translate(-1381.318 393.575)" fill="#23a5d6"/>
  <path id="Path_12847" data-name="Path 12847" d="M1306.118-356.769a1.082,1.082,0,0,1,1.073-.638,14.528,14.528,0,0,1,1.851.038,1.1,1.1,0,0,1,1.022,1.21c0,.792,0,1.584,0,2.376v.129h-.618v-.17q0-1.04,0-2.079c0-.681-.167-.9-.837-.985a5.025,5.025,0,0,0-1.83.068.805.805,0,0,0-.691.858c-.012.708-.005,1.416-.007,2.124v.186h-.608v-5.288c.181,0,.358-.006.534.006.027,0,.07.082.071.127.005.5,0,1.01,0,1.515v.513Z" transform="translate(-1277.158 400.635)" fill="#23a5d6"/>
  <path id="Path_12848" data-name="Path 12848" d="M1181.47-350.181h.619v2.292c0,.636.18.862.809.949a5.39,5.39,0,0,0,1.7-.033.892.892,0,0,0,.853-1.034c0-.668,0-1.337,0-2.005v-.169h.609v3.71h-.562v-.581c-.03.005-.045,0-.047.008a1.166,1.166,0,0,1-1.142.631,16.294,16.294,0,0,1-1.691-.022,1.15,1.15,0,0,1-1.151-1.279q0-1.151,0-2.3Z" transform="translate(-1175.473 393.45)" fill="#23a5d6"/>
  <path id="Path_12849" data-name="Path 12849" d="M1277.853-350.553v.484c-.066,0-.127.011-.189.011-.871,0-1.743,0-2.614,0-.134,0-.267.007-.4.02a.745.745,0,0,0-.762.71,7.278,7.278,0,0,0-.009,1.318.82.82,0,0,0,.84.768,5.085,5.085,0,0,0,.518.028c.807,0,1.614,0,2.421,0h.191v.5h-.151c-.99,0-1.98,0-2.971,0a2.191,2.191,0,0,1-.541-.076,1.125,1.125,0,0,1-.9-1.019,8.2,8.2,0,0,1-.01-1.583,1.164,1.164,0,0,1,1.108-1.108,4.4,4.4,0,0,1,.635-.055c.906-.006,1.812,0,2.718,0C1277.766-350.56,1277.8-350.556,1277.853-350.553Z" transform="translate(-1250.723 393.761)" fill="#23a5d6"/>
  <path id="Path_12850" data-name="Path 12850" d="M1464.28-353.721c0,.069-.007.113-.007.156,0,.584,0,1.168,0,1.751,0,.643.233.875.879.883.47.006.94,0,1.41,0h.168v.491c-.049,0-.092.007-.135.007-.534,0-1.069.012-1.6-.005a2.416,2.416,0,0,1-.667-.117.915.915,0,0,1-.664-.9c-.017-.549-.006-1.1-.01-1.647,0-.2-.012-.393-.019-.589l-.587-.024c-.064,0-.128,0-.2,0v-.5h.8v-.874h.623v.868h2.491v.506Z" transform="translate(-1406.201 397.479)" fill="#23a5d6"/>
  <path id="Path_12851" data-name="Path 12851" d="M1212.081-353.737v-.48h.809v-.877h.622v.872h2.5v.506h-2.484c0,.064-.008.108-.008.152,0,.579,0,1.158,0,1.737,0,.662.231.893.894.9.465,0,.93,0,1.4,0h.169v.491c-.048,0-.091.007-.134.007-.534,0-1.069.011-1.6,0a2.392,2.392,0,0,1-.653-.112.931.931,0,0,1-.681-.924c-.011-.663,0-1.326-.007-1.989,0-.29.037-.254-.264-.257l-.5,0A.173.173,0,0,1,1212.081-353.737Z" transform="translate(-1200.575 397.479)" fill="#23a5d6"/>
  <path id="Path_12852" data-name="Path 12852" d="M1396.925-354.225v.506h-2.491v.256c0,.554,0,1.109,0,1.663a1.767,1.767,0,0,0,.027.295.579.579,0,0,0,.572.544c.429.03.86.024,1.29.031.187,0,.374,0,.569,0v.491c-.043,0-.081.007-.119.007-.54,0-1.079.008-1.618,0a2.374,2.374,0,0,1-.584-.088.962.962,0,0,1-.753-.979c-.009-.534,0-1.069-.006-1.6,0-.2-.012-.393-.018-.589l-.588-.024c-.067,0-.135,0-.21,0v-.5h.81v-.882h.622v.872Z" transform="translate(-1348.929 397.481)" fill="#23a5d6"/>
  <path id="Path_12853" data-name="Path 12853" d="M1371.81-346.783h-.61v-3.723c.17,0,.332,0,.493,0,.027,0,.07.062.072.1.009.131,0,.262,0,.416.033-.026.047-.032.053-.042a1.143,1.143,0,0,1,1.046-.533c.465-.011.93,0,1.4,0,.088,0,.127.024.123.117-.006.122,0,.245,0,.388h-.207c-.509,0-1.02-.011-1.527.018a.857.857,0,0,0-.84.926q0,1.076,0,2.152Z" transform="translate(-1331.055 393.768)" fill="#23a5d6"/>
  <path id="Path_12854" data-name="Path 12854" d="M1422-346.453h-.593v-3.712H1422Z" transform="translate(-1372.228 393.437)" fill="#23a5d6"/>
  <path id="Path_12855" data-name="Path 12855" d="M1422-358.219h-.6v-.66h.6Z" transform="translate(-1372.221 400.582)" fill="#23a5d6"/>
</svg>
