<svg id="Group_20086" data-name="Group 20086" xmlns="http://www.w3.org/2000/svg" width="50.599" height="50.599" viewBox="0 0 50.599 50.599">
  <path id="Path_12869" data-name="Path 12869" d="M200.928,77.3H171.553a10.612,10.612,0,0,0-10.612,10.612v29.376A10.612,10.612,0,0,0,171.553,127.9h29.376a10.612,10.612,0,0,0,10.612-10.612V87.916A10.612,10.612,0,0,0,200.928,77.3Zm8.6,10.612V101.6H187.247V79.316h13.682A8.6,8.6,0,0,1,209.528,87.916Zm-37.975-8.6h13.682V101.6H162.953V87.916A8.6,8.6,0,0,1,171.553,79.316Zm-8.6,37.975V103.61h22.281v22.281H171.553A8.6,8.6,0,0,1,162.953,117.291Zm37.975,8.6H187.247V103.61h22.281v13.682A8.6,8.6,0,0,1,200.928,125.891Z" transform="translate(-160.941 -77.304)" fill="#23a5d6"/>
  <path id="Path_12870" data-name="Path 12870" d="M207.467,131.826h4.327v4.327a.489.489,0,0,0,.489.489h1.035a.489.489,0,0,0,.489-.489v-4.327h4.327a.489.489,0,0,0,.489-.489V130.3a.489.489,0,0,0-.489-.489h-4.327v-4.327a.489.489,0,0,0-.489-.489h-1.035a.489.489,0,0,0-.489.489v4.327h-4.327a.489.489,0,0,0-.489.489v1.035A.489.489,0,0,0,207.467,131.826Z" transform="translate(-199.258 -117)" fill="#23a5d6"/>
  <rect id="Rectangle_32" data-name="Rectangle 32" width="11.643" height="2.012" rx="1.006" transform="translate(31.755 12.813)" fill="#23a5d6"/>
  <path id="Path_12871" data-name="Path 12871" d="M220.159,282.268l3.06-3.059a.489.489,0,0,0,0-.691l-.732-.732a.489.489,0,0,0-.691,0l-3.06,3.06-3.059-3.06a.489.489,0,0,0-.691,0l-.732.732a.489.489,0,0,0,0,.691l3.06,3.059-3.06,3.06a.489.489,0,0,0,0,.691l.732.732a.489.489,0,0,0,.691,0l3.059-3.06,3.06,3.06a.489.489,0,0,0,.691,0l.732-.732a.489.489,0,0,0,0-.691Z" transform="translate(-205.194 -244.048)" fill="#23a5d6"/>
  <path id="Rectangle_33" data-name="Rectangle 33" d="M1.006,0h9.631a1.006,1.006,0,0,1,1.006,1.006v0a1.006,1.006,0,0,1-1.006,1.006H1.006A1.006,1.006,0,0,1,0,1.006v0A1.006,1.006,0,0,1,1.006,0Z" transform="translate(31.755 33.098)" fill="#23a5d6"/>
  <rect id="Rectangle_34" data-name="Rectangle 34" width="11.643" height="2.012" rx="1.006" transform="translate(31.755 41.331)" fill="#23a5d6"/>
</svg>
