<svg xmlns="http://www.w3.org/2000/svg" width="58.991" height="72.254" viewBox="0 0 58.991 72.254">
  <g id="Group_19943" data-name="Group 19943" transform="translate(0.25 0.25)">
    <path id="Path_87298" data-name="Path 87298" d="M56.128,93.4a1.257,1.257,0,0,1-.425-.073C38.2,87.08,26.882,70.308,26.882,50.6V34.065A1.266,1.266,0,0,1,28.147,32.8c8.3,0,21.446-4.413,27.032-10.743a1.305,1.305,0,0,1,1.9,0C62.663,28.387,75.806,32.8,84.108,32.8a1.265,1.265,0,0,1,1.265,1.265V50.6c0,19.71-11.312,36.482-28.82,42.73A1.252,1.252,0,0,1,56.128,93.4ZM29.412,35.3V50.6c0,18.466,10.471,34.191,26.716,40.193,16.246-6,26.715-21.726,26.715-40.193V35.3C74.3,34.92,62.322,30.806,56.128,24.729,49.934,30.806,37.958,34.92,29.412,35.3Z" transform="translate(-26.882 -21.648)" fill="#23a5d6" stroke="#fff" stroke-width="0.5"/>
    <path id="Path_87299" data-name="Path 87299" d="M50.274,65.032h-.011a1.266,1.266,0,0,1-.894-.382L37.7,52.67a1.265,1.265,0,1,1,1.813-1.765L50.29,61.971,71.932,40.537a1.265,1.265,0,0,1,1.78,1.8L51.165,64.665A1.264,1.264,0,0,1,50.274,65.032Z" transform="translate(-24.108 -16.738)" fill="#23a5d6" stroke="#fff" stroke-width="0.5"/>
  </g>
</svg>
