<svg xmlns="http://www.w3.org/2000/svg" width="92.103" height="69.42" viewBox="0 0 92.103 69.42">
  <g id="Group_19876" data-name="Group 19876" transform="translate(-923.65 -1832.557)">
    <g id="Group_13487" data-name="Group 13487" transform="translate(924 1832.907)">
      <path id="Path_17" data-name="Path 17" d="M32.711,136.888H46.832a1.339,1.339,0,0,0,0-2.678H32.711a1.339,1.339,0,1,0,0,2.678Z" transform="translate(-25.771 -121.592)" fill="#23a5d6" stroke="#fff" stroke-width="0.7"/>
      <path id="Path_18" data-name="Path 18" d="M83.429,185.317H77.851a1.339,1.339,0,1,0,0,2.678h5.578a1.339,1.339,0,1,0,0-2.678Z" transform="translate(-62.853 -163.575)" fill="#23a5d6" stroke="#fff" stroke-width="0.7"/>
      <path id="Path_19" data-name="Path 19" d="M1.339,225H15a1.339,1.339,0,0,0,0-2.678H1.339a1.339,1.339,0,0,0,0,2.678Z" transform="translate(0 -193.978)" fill="#23a5d6" stroke="#fff" stroke-width="0.7"/>
      <path id="Path_20" data-name="Path 20" d="M48.17,364.128a1.339,1.339,0,0,0-1.339-1.339H32.711a1.339,1.339,0,1,0,0,2.678H46.832A1.339,1.339,0,0,0,48.17,364.128Z" transform="translate(-25.771 -309.365)" fill="#23a5d6" stroke="#fff" stroke-width="0.7"/>
      <path id="Path_21" data-name="Path 21" d="M83.429,311.683H77.851a1.339,1.339,0,0,0,0,2.678h5.578a1.339,1.339,0,0,0,0-2.678Z" transform="translate(-62.853 -267.382)" fill="#23a5d6" stroke="#fff" stroke-width="0.7"/>
      <path id="Path_22" data-name="Path 22" d="M16.337,276.012A1.339,1.339,0,0,0,15,274.673H1.339a1.339,1.339,0,0,0,0,2.678H15A1.339,1.339,0,0,0,16.337,276.012Z" transform="translate(0 -236.979)" fill="#23a5d6" stroke="#fff" stroke-width="0.7"/>
      <path id="Path_23" data-name="Path 23" d="M313.368,144.1a1.339,1.339,0,0,0,1.339-1.339v-2.044a1.339,1.339,0,1,0-2.678,0v2.044A1.339,1.339,0,0,0,313.368,144.1Z" transform="translate(-256.325 -125.841)" fill="#23a5d6" stroke="#fff" stroke-width="0.7"/>
      <path id="Path_24" data-name="Path 24" d="M384.822,171.734a1.339,1.339,0,0,0-1.894,0l-1.445,1.445a1.339,1.339,0,0,0,1.894,1.894l1.445-1.445A1.339,1.339,0,0,0,384.822,171.734Z" transform="translate(-313.058 -152.095)" fill="#23a5d6" stroke="#fff" stroke-width="0.7"/>
      <path id="Path_25" data-name="Path 25" d="M411.038,248.5a1.339,1.339,0,0,0,0,2.678h2.044a1.339,1.339,0,0,0,0-2.678Z" transform="translate(-336.559 -215.479)" fill="#23a5d6" stroke="#fff" stroke-width="0.7"/>
      <path id="Path_26" data-name="Path 26" d="M383.377,317.955a1.339,1.339,0,1,0-1.894,1.894l1.445,1.445a1.339,1.339,0,1,0,1.894-1.894Z" transform="translate(-313.058 -272.212)" fill="#23a5d6" stroke="#fff" stroke-width="0.7"/>
      <path id="Path_27" data-name="Path 27" d="M312.029,347.509v2.044a1.339,1.339,0,0,0,2.678,0v-2.044a1.339,1.339,0,1,0-2.678,0Z" transform="translate(-256.325 -295.713)" fill="#23a5d6" stroke="#fff" stroke-width="0.7"/>
      <path id="Path_28" data-name="Path 28" d="M236.708,317.955l-1.445,1.445a1.339,1.339,0,1,0,1.893,1.894l1.445-1.445a1.339,1.339,0,1,0-1.893-1.894Z" transform="translate(-192.941 -272.212)" fill="#23a5d6" stroke="#fff" stroke-width="0.7"/>
      <path id="Path_29" data-name="Path 29" d="M204.25,248.5a1.339,1.339,0,0,0,0,2.678h2.044a1.339,1.339,0,0,0,0-2.678Z" transform="translate(-166.687 -215.479)" fill="#23a5d6" stroke="#fff" stroke-width="0.7"/>
      <path id="Path_30" data-name="Path 30" d="M238.6,173.179l-1.445-1.445a1.339,1.339,0,0,0-1.893,1.894l1.445,1.445a1.339,1.339,0,0,0,1.893-1.894Z" transform="translate(-192.942 -152.095)" fill="#23a5d6" stroke="#fff" stroke-width="0.7"/>
      <path id="Path_31" data-name="Path 31" d="M320.568,197.935a1.339,1.339,0,0,0-1.339-1.339h-4.522v-9.941a1.339,1.339,0,1,0-2.678,0v11.28a1.339,1.339,0,0,0,1.339,1.339h5.861A1.339,1.339,0,0,0,320.568,197.935Z" transform="translate(-256.325 -163.574)" fill="#23a5d6" stroke="#fff" stroke-width="0.7"/>
      <path id="Path_32" data-name="Path 32" d="M222.079,132.942a1.339,1.339,0,0,0,1.255-1.417,26.676,26.676,0,1,0-.246,5.633,1.339,1.339,0,0,0-2.648-.4,24.034,24.034,0,1,1,.222-5.073,1.34,1.34,0,0,0,1.418,1.255Z" transform="translate(-139.648 -98.802)" fill="#23a5d6" stroke="#fff" stroke-width="0.7"/>
      <path id="Path_33" data-name="Path 33" d="M142.214,63.529a34.347,34.347,0,0,0-13.571,2.8H105.02a1.339,1.339,0,1,0,0,2.678h18.586a34.324,34.324,0,0,0-6.866,5.821,1.339,1.339,0,0,0,1.985,1.8,31.618,31.618,0,1,1-3.139,4.089,1.339,1.339,0,0,0-2.249-1.453,34.351,34.351,0,0,0,10.279,47.5H105.02a1.339,1.339,0,1,0,0,2.678h23.6a34.359,34.359,0,1,0,13.589-65.916Z" transform="translate(-85.172 -63.529)" fill="#23a5d6" stroke="#fff" stroke-width="0.7"/>
    </g>
  </g>
</svg>
