<svg xmlns="http://www.w3.org/2000/svg" width="83.856" height="72.318" viewBox="0 0 83.856 72.318">
  <g id="Group_13485" data-name="Group 13485" transform="translate(-600.35 -656.712)">
    <path id="Path_14" data-name="Path 14" d="M1148.912,922.382h8.7v18.582h4.115l-8.464,10.613-8.464-10.613h4.115Zm-3.061-3.061V937.9h-7.411l14.821,18.583,14.821-18.583h-7.41V919.321Z" transform="translate(-484.707 -236.371)" fill="#fff" stroke="#23a5d6" stroke-width="0.8" fill-rule="evenodd"/>
    <path id="Path_15" data-name="Path 15" d="M636.509,657.112a35.8,35.8,0,0,1,33.328,22.777h-3.31a32.7,32.7,0,1,0-6.9,36.1q.48-.48.94-.98l1.929,2.418q-.347.367-.7.725a35.758,35.758,0,1,1-25.285-61.043" transform="translate(0 0)" fill="#fff" stroke="#23a5d6" stroke-width="0.8"/>
    <path id="Path_16" data-name="Path 16" d="M861.848,839.983V829.459l-.564.04a5.735,5.735,0,0,0-3.518,1.428,4.929,4.929,0,0,0-1.569,3.793,4.572,4.572,0,0,0,1.4,3.516,7.656,7.656,0,0,0,3.593,1.607Zm2.448,3.725v11.719l.62-.1a7.255,7.255,0,0,0,3.945-1.742,5.37,5.37,0,0,0,1.658-4.082,4.807,4.807,0,0,0-1.491-3.677,9.7,9.7,0,0,0-4.042-1.938ZM861.848,823.3v3.436l-.458.038a9.865,9.865,0,0,0-6.049,2.419,7.588,7.588,0,0,0-2.426,5.848,6.8,6.8,0,0,0,2.238,5.313,12.761,12.761,0,0,0,6.287,2.674l.409.064v12.181l-.592-.055a6.35,6.35,0,0,1-4.038-1.908,6.79,6.79,0,0,1-1.712-4.82.083.083,0,0,0-.082-.082h-3.118a.082.082,0,0,0-.082.082,9.087,9.087,0,0,0,2.326,6.662c1.774,1.745,4.458,2.459,6.864,2.742l.434.051v4.285H864.3V857.9l.437-.05a11.82,11.82,0,0,0,6.736-2.708,7.877,7.877,0,0,0,2.471-6.085,7.3,7.3,0,0,0-2.065-5.578c-1.76-1.625-4.915-2.534-7.216-3.054l-.364-.082v-10.9l.6.082a5.774,5.774,0,0,1,3.262,1.4,5.662,5.662,0,0,1,1.658,3.36.078.078,0,0,0,.081.069h3.161a.081.081,0,0,0,.082-.087,7.079,7.079,0,0,0-2.284-5.1,10.906,10.906,0,0,0-6.125-2.378l-.437-.05V823.3Z" transform="translate(-226.693 -149.814)" fill="#fff" stroke="#23a5d6" stroke-width="0.8" fill-rule="evenodd"/>
  </g>
</svg>
