<svg xmlns="http://www.w3.org/2000/svg" width="103.835" height="85.16" viewBox="0 0 103.835 85.16">
  <g id="Group_19945" data-name="Group 19945" transform="translate(-1307 -2688.799)">
    <g id="Group_12949" data-name="Group 12949" transform="translate(1362.496 2688.799)">
      <path id="Path_10589" data-name="Path 10589" d="M137.67,109c-14.344,0-23.383-13.84-23.59-36.119,0-22.552,9.483-36.555,24.749-36.555,14.991,0,23.59,12.974,23.59,35.6C162.419,95.485,153.4,109,137.67,109Zm1.159-70.793c-14.105,0-22.868,13.283-22.868,34.664.2,21.44,8.315,34.247,21.709,34.247,14.745,0,22.868-12.5,22.868-35.193C160.538,50.5,152.625,38.207,138.829,38.207Zm-.632,63.627c-9.3,0-14.846-10.787-14.846-28.857,0-18.189,5.73-29.489,14.952-29.489,9.573,0,14.846,10.249,14.846,28.857C153.148,91.362,147.838,101.834,138.2,101.834Zm.105-56.465c-8.063,0-13.07,10.58-13.07,27.608,0,16.639,4.968,26.976,12.965,26.976,11.372,0,13.07-17.3,13.07-27.608C151.267,62.269,149.584,45.369,138.3,45.369Z" transform="translate(-114.08 -36.326)" fill="#23a5d6"/>
    </g>
    <g id="Group_12951" data-name="Group 12951" transform="translate(1307 2688.799)">
      <path id="Path_10589-2" data-name="Path 10589" d="M137.67,109c-14.344,0-23.383-13.84-23.59-36.119,0-22.552,9.483-36.555,24.749-36.555,14.991,0,23.59,12.974,23.59,35.6C162.419,95.485,153.4,109,137.67,109Zm1.159-70.793c-14.105,0-22.868,13.283-22.868,34.664.2,21.44,8.315,34.247,21.709,34.247,14.745,0,22.868-12.5,22.868-35.193C160.538,50.5,152.625,38.207,138.829,38.207Zm-.632,63.627c-9.3,0-14.846-10.787-14.846-28.857,0-18.189,5.73-29.489,14.952-29.489,9.573,0,14.846,10.249,14.846,28.857C153.148,91.362,147.838,101.834,138.2,101.834Zm.105-56.465c-8.063,0-13.07,10.58-13.07,27.608,0,16.639,4.968,26.976,12.965,26.976,11.372,0,13.07-17.3,13.07-27.608C151.267,62.269,149.584,45.369,138.3,45.369Z" transform="translate(-114.08 -36.326)" fill="#23a5d6"/>
    </g>
    <g id="Group_12952" data-name="Group 12952" transform="translate(1352.929 2697.958)">
      <text id="_." data-name="." transform="translate(0 60)" fill="#23a5d6" font-size="62" font-family="SegoeUI-Light, Segoe UI" font-weight="300"><tspan x="0" y="0">.</tspan></text>
    </g>
  </g>
</svg>
