<svg xmlns="http://www.w3.org/2000/svg" width="53.561" height="70.521" viewBox="0 0 53.561 70.521">
  <g id="Group_19942" data-name="Group 19942" transform="translate(-1316.364 -2371.099)">
    <path id="Path_10593" data-name="Path 10593" d="M1714.586,1743.11l-3.132,3.132-6.115-6.115.023,25.785,25.785.023-6.115-6.116,25.19-25.19" transform="translate(-380.933 674.783)" fill="none" stroke="#23a5d6" stroke-miterlimit="10" stroke-width="1.8"/>
    <line id="Line_14" data-name="Line 14" x1="17.29" y2="17.29" transform="translate(1335.741 2398.514)" fill="none" stroke="#23a5d6" stroke-miterlimit="10" stroke-width="1.8"/>
    <line id="Line_15" data-name="Line 15" y1="5.976" x2="5.976" transform="translate(1351.995 2401.489)" fill="none" stroke="#23a5d6" stroke-miterlimit="10" stroke-width="1.8"/>
    <line id="Line_16" data-name="Line 16" y1="9.21" x2="9.21" transform="translate(1352.616 2407.254)" fill="none" stroke="#23a5d6" stroke-miterlimit="10" stroke-width="1.8"/>
    <line id="Line_17" data-name="Line 17" y1="10.136" x2="10.136" transform="translate(1339.218 2410.106)" fill="none" stroke="#23a5d6" stroke-miterlimit="10" stroke-width="1.8"/>
    <line id="Line_18" data-name="Line 18" y1="7.315" x2="7.315" transform="translate(1342.254 2419.512)" fill="none" stroke="#23a5d6" stroke-miterlimit="10" stroke-width="1.8"/>
    <path id="Path_10594" data-name="Path 10594" d="M1704.661,1595.119l4.125-4.126,6.115,6.115-.023-25.785-25.785-.024,6.115,6.115-22.2,22.2" transform="translate(-356.01 800.7)" fill="none" stroke="#23a5d6" stroke-miterlimit="10" stroke-width="1.8"/>
    <line id="Line_19" data-name="Line 19" y1="11.455" x2="11.455" transform="translate(1335.15 2397.865)" fill="none" stroke="#23a5d6" stroke-miterlimit="10" stroke-width="1.8"/>
    <line id="Line_20" data-name="Line 20" y1="4.333" x2="4.333" transform="translate(1329.35 2410.787)" fill="none" stroke="#23a5d6" stroke-miterlimit="10" stroke-width="1.8"/>
    <line id="Line_21" data-name="Line 21" y1="7.108" x2="7.108" transform="translate(1319.228 2398.894)" fill="none" stroke="#23a5d6" stroke-miterlimit="10" stroke-width="1.8"/>
    <line id="Line_22" data-name="Line 22" y1="5.841" x2="5.841" transform="translate(1328.306 2391.083)" fill="none" stroke="#23a5d6" stroke-miterlimit="10" stroke-width="1.8"/>
    <line id="Line_23" data-name="Line 23" y1="19.015" x2="19.015" transform="translate(1326.792 2389.043)" fill="none" stroke="#23a5d6" stroke-miterlimit="10" stroke-width="1.8"/>
    <line id="Line_24" data-name="Line 24" y1="4.446" x2="4.446" transform="translate(1335.931 2384.853)" fill="none" stroke="#23a5d6" stroke-miterlimit="10" stroke-width="1.8"/>
  </g>
</svg>
