<svg xmlns="http://www.w3.org/2000/svg" xmlns:xlink="http://www.w3.org/1999/xlink" width="671.811" height="457.061" viewBox="0 0 671.811 457.061">
  <defs>
    <linearGradient id="linear-gradient" x1="0.927" y1="-0.219" x2="0.082" y2="1.082" gradientUnits="objectBoundingBox">
      <stop offset="0" stop-color="#e6e6e6"/>
      <stop offset="1" stop-color="#fff"/>
    </linearGradient>
  </defs>
  <g id="Group_16184" data-name="Group 16184" transform="translate(-646.471 -7604.051)">
    <path id="Path_94063" data-name="Path 94063" d="M-14289.4-2259.272h-396.847v-2.367h395.046l74.609-269.926,1.446,1.916,17.58,23.3,23.1-32.82,19.058-123.779,2.295-.182,19.743,61.37,9.656,7.732,7.626-26.177,13.777,13.7,8.843-11.986,6.236-21.514,2.273.659-6.354,21.92-.126.17-10.6,14.363-.973-.967-11.923-11.855-7.5,25.748-12.974-10.388-.109-.339-18.318-56.941-18.379,119.377-.158.227-25.133,35.7-.978-1.3-17.111-22.677Z" transform="translate(15376.727 10272.85)" fill="url(#linear-gradient)"/>
    <g id="Group_16112" data-name="Group 16112" transform="translate(646.471 7966.693)" opacity="0.5">
      <circle id="Ellipse_508" data-name="Ellipse 508" cx="25.721" cy="25.721" r="25.721" transform="translate(21.488 21.488)" fill="#e6e6e6" opacity="0.3"/>
      <circle id="Ellipse_509" data-name="Ellipse 509" cx="47.209" cy="47.209" r="47.209" transform="translate(0 0)" fill="#e6e6e6" opacity="0.1"/>
      <circle id="Ellipse_507" data-name="Ellipse 507" cx="8.465" cy="8.465" r="8.465" transform="translate(39.07 39.07)" fill="#e6e6e6"/>
    </g>
    <g id="Group_16114" data-name="Group 16114" transform="translate(1265.255 7604.051)">
      <circle id="Ellipse_508-2" data-name="Ellipse 508" cx="14.445" cy="14.445" r="14.445" transform="translate(12.068 12.068)" fill="#e6e6e6" opacity="0.3"/>
      <circle id="Ellipse_509-2" data-name="Ellipse 509" cx="26.514" cy="26.514" r="26.514" transform="translate(0 0)" fill="#e6e6e6" opacity="0.1"/>
      <circle id="Ellipse_507-2" data-name="Ellipse 507" cx="4.754" cy="4.754" r="4.754" transform="translate(21.943 21.943)" fill="#e6e6e6"/>
    </g>
  </g>
</svg>
