<svg xmlns="http://www.w3.org/2000/svg" width="82.88" height="21.197" viewBox="0 0 82.88 21.197">
  <g id="CRYPTOS" transform="translate(-2.797 -7.072)">
    <text id="Cryptos-2" data-name="Cryptos" transform="translate(37.678 23.072)" fill="#909090" font-size="14" font-family="SegoeUI, Segoe UI"><tspan x="0" y="0">Cryptos</tspan></text>
    <path id="Path_98725" data-name="Path 98725" d="M1519.555,1059.655a10.6,10.6,0,0,0,0-20.74v1.316a9.316,9.316,0,0,1,7.077,7.964h-4.841a4.537,4.537,0,1,0,0,2.179h4.841a9.316,9.316,0,0,1-7.077,7.965Zm-2.168-17.351a6.984,6.984,0,0,1,6.637,4.813h1.351a8.283,8.283,0,0,0-6.9-6.036v-2.335a10.71,10.71,0,0,0-1.122-.059q-.535,0-1.058.052v2.342a8.277,8.277,0,0,0,0,16.409v2.342q.522.052,1.058.052a10.71,10.71,0,0,0,1.122-.059v-2.335a8.284,8.284,0,0,0,6.9-6.036h-1.351a6.982,6.982,0,1,1-6.637-9.149Zm-10.63,6.981a10.6,10.6,0,0,0,8.462,10.383v-1.329a9.311,9.311,0,0,1,0-18.108V1038.9A10.6,10.6,0,0,0,1506.756,1049.284Z" transform="translate(-1503.958 -1031.613)" fill="#909090" fill-rule="evenodd"/>
  </g>
</svg>
