<svg xmlns="http://www.w3.org/2000/svg" width="73.154" height="51.794" viewBox="0 0 73.154 51.794">
  <g id="Group_13552" data-name="Group 13552" transform="translate(0.5 0.55)">
    <path id="Path_12886" data-name="Path 12886" d="M376.86,633.163l-36.077-16.638-36.077,16.638v3.3l12.347,5.693a26.2,26.2,0,0,0-2.647,11.509v1.353l26.377,12.2,26.377-12.2v-1.353a26.2,26.2,0,0,0-2.647-11.509l8.12-3.745v21.921h4.228Zm-36.077,29.4-22.111-10.228a22.009,22.009,0,0,1,2.221-8.406l19.89,9.172,19.89-9.172a22.009,22.009,0,0,1,2.221,8.406Zm0-14.117-29.558-13.63,29.558-13.63,29.558,13.63Z" transform="translate(-304.706 -616.525)" fill="#1ca6d4" stroke="#fff" stroke-width="1"/>
  </g>
</svg>
