<svg id="Group_20088" data-name="Group 20088" xmlns="http://www.w3.org/2000/svg" width="58.045" height="54.572" viewBox="0 0 58.045 54.572">
  <path id="Path_12856" data-name="Path 12856" d="M679.548,621.724a21.361,21.361,0,0,0-32.629,27.552l-4.026,3.6a3.7,3.7,0,0,0-4.241.48l-10.478,9.375a3.69,3.69,0,0,0,2.258,6.437c.07,0,.14.006.21.006a3.661,3.661,0,0,0,2.457-.938l10.478-9.374a3.7,3.7,0,0,0,.947-4.161l4.027-3.6a21.2,21.2,0,0,0,13.891,6.2q.608.034,1.212.034a21.363,21.363,0,0,0,15.894-35.608Zm-37.6,35.316-10.478,9.375a1.246,1.246,0,1,1-1.662-1.858l10.478-9.375a1.246,1.246,0,1,1,1.662,1.858Zm40.568-20.022a18.916,18.916,0,0,1-32.981,11.565l0,0,0,0A18.916,18.916,0,0,1,663.6,617.052q.535,0,1.073.03a18.915,18.915,0,0,1,17.837,19.936Z" transform="translate(-626.946 -614.604)" fill="#23a5d6"/>
  <path id="Path_12857" data-name="Path 12857" d="M725.25,699.847a1.223,1.223,0,0,0-1.223,1.224V708.1a1.223,1.223,0,1,0,2.447,0v-7.032A1.223,1.223,0,0,0,725.25,699.847Z" transform="translate(-701.956 -684.939)" fill="#23a5d6"/>
  <path id="Path_12858" data-name="Path 12858" d="M750.693,671.01a1.223,1.223,0,0,0-1.224,1.223v13.523a1.223,1.223,0,0,0,2.447,0V672.233A1.223,1.223,0,0,0,750.693,671.01Z" transform="translate(-721.698 -662.562)" fill="#23a5d6"/>
  <path id="Path_12859" data-name="Path 12859" d="M772.687,699.847a1.223,1.223,0,0,0-1.223,1.224V708.1a1.223,1.223,0,1,0,2.447,0v-7.032A1.223,1.223,0,0,0,772.687,699.847Z" transform="translate(-738.766 -684.939)" fill="#23a5d6"/>
  <path id="Path_12860" data-name="Path 12860" d="M798.13,671.01a1.223,1.223,0,0,0-1.223,1.223v13.523a1.223,1.223,0,0,0,2.447,0V672.233A1.223,1.223,0,0,0,798.13,671.01Z" transform="translate(-758.509 -662.562)" fill="#23a5d6"/>
  <path id="Path_12861" data-name="Path 12861" d="M823.089,699.847a1.223,1.223,0,0,0-1.223,1.224V708.1a1.223,1.223,0,0,0,2.447,0v-7.032A1.223,1.223,0,0,0,823.089,699.847Z" transform="translate(-777.877 -684.939)" fill="#23a5d6"/>
  <path id="Path_12862" data-name="Path 12862" d="M847.309,672.233v13.523a1.223,1.223,0,0,0,2.447,0V672.233a1.223,1.223,0,0,0-2.447,0Z" transform="translate(-797.621 -662.562)" fill="#23a5d6"/>
</svg>
