<svg id="MASTERCARD" xmlns="http://www.w3.org/2000/svg" width="34.595" height="26.894" viewBox="0 0 34.595 26.894">
  <g id="Group_18748" data-name="Group 18748" transform="translate(0 0)">
    <rect id="Rectangle_15141" data-name="Rectangle 15141" width="9.184" height="16.504" transform="translate(12.39 2.244)" fill="#909090"/>
    <path id="Path_98731" data-name="Path 98731" d="M203.625,280.5a10.477,10.477,0,0,1,4.009-8.252,10.5,10.5,0,1,0,0,16.5A10.478,10.478,0,0,1,203.625,280.5Z" transform="translate(-190.652 -270)" fill="#909090"/>
    <path id="Path_98732" data-name="Path 98732" d="M265.88,280.5a10.5,10.5,0,0,1-16.982,8.252,10.5,10.5,0,0,0,0-16.5A10.5,10.5,0,0,1,265.88,280.5Zm-.773,6.945v-.7h.284v-.143h-.723v.143h.284v.7Zm1.4,0v-.849h-.222l-.255.584-.255-.584h-.222v.849h.157v-.64l.239.552h.162l.239-.553v.642Z" transform="translate(-231.916 -270)" fill="#909090"/>
  </g>
  <path id="Path_98733" data-name="Path 98733" d="M196.218,355v-1.774a1.052,1.052,0,0,0-1.112-1.124,1.1,1.1,0,0,0-.994.5,1.038,1.038,0,0,0-.935-.5.935.935,0,0,0-.828.42v-.349h-.615V355h.621v-1.567a.661.661,0,0,1,.692-.751c.408,0,.615.266.615.745V355h.621v-1.567a.667.667,0,0,1,.692-.751c.42,0,.621.266.621.745V355Zm9.192-2.827H204.4v-.858h-.621v.858h-.574v.562h.574v1.29c0,.656.255,1.047.982,1.047a1.444,1.444,0,0,0,.769-.219l-.178-.526a1.136,1.136,0,0,1-.544.16c-.308,0-.408-.189-.408-.473v-1.278h1.006Zm5.247-.071a.834.834,0,0,0-.745.414v-.343H209.3V355h.615v-1.585c0-.467.2-.728.6-.728a1,1,0,0,1,.384.071l.189-.58a1.315,1.315,0,0,0-.438-.077Zm-7.932.3a2.115,2.115,0,0,0-1.153-.3c-.716,0-1.177.343-1.177.9,0,.461.343.745.976.834l.29.042c.337.047.5.136.5.3,0,.219-.225.343-.645.343a1.506,1.506,0,0,1-.941-.3l-.29.479a2.042,2.042,0,0,0,1.225.367c.816,0,1.289-.384,1.289-.923,0-.5-.373-.757-.988-.846l-.29-.042c-.266-.035-.479-.089-.479-.278,0-.207.2-.331.538-.331a1.821,1.821,0,0,1,.881.242Zm16.48-.3a.834.834,0,0,0-.745.414v-.343h-.609V355h.615v-1.585c0-.467.2-.728.6-.728a1,1,0,0,1,.385.071l.189-.58a1.317,1.317,0,0,0-.438-.077Zm-7.927,1.485a1.429,1.429,0,0,0,1.509,1.485,1.482,1.482,0,0,0,1.018-.337l-.3-.5a1.242,1.242,0,0,1-.739.254.907.907,0,0,1,0-1.81,1.242,1.242,0,0,1,.739.254l.3-.5a1.481,1.481,0,0,0-1.018-.337,1.428,1.428,0,0,0-1.509,1.485Zm5.762,0v-1.414h-.615v.343a1.073,1.073,0,0,0-.893-.414,1.486,1.486,0,0,0,0,2.969,1.073,1.073,0,0,0,.893-.414V355h.615Zm-2.289,0a.856.856,0,1,1,.858.9.848.848,0,0,1-.858-.9Zm-7.424-1.485a1.486,1.486,0,0,0,.041,2.969,1.718,1.718,0,0,0,1.159-.4l-.3-.456a1.348,1.348,0,0,1-.822.3.786.786,0,0,1-.846-.692h2.1c.006-.077.012-.154.012-.237a1.356,1.356,0,0,0-1.343-1.485Zm-.012.55a.7.7,0,0,1,.716.686h-1.467a.728.728,0,0,1,.751-.686Zm15.433.935v-2.549h-.615v1.479a1.073,1.073,0,0,0-.893-.414,1.486,1.486,0,0,0,0,2.969,1.073,1.073,0,0,0,.893-.414V355h.615Zm.719,1.153a.183.183,0,0,1,.168.11.172.172,0,0,1,.014.07.169.169,0,0,1-.014.069.176.176,0,0,1-.039.057.185.185,0,0,1-.058.039.18.18,0,0,1-.071.014.187.187,0,0,1-.072-.014.182.182,0,0,1-.058-.039.179.179,0,0,1-.039-.057.169.169,0,0,1-.014-.069.172.172,0,0,1,.014-.07.182.182,0,0,1,.039-.057.177.177,0,0,1,.058-.039A.187.187,0,0,1,223.467,354.74Zm0,.319a.133.133,0,0,0,.054-.011.143.143,0,0,0,.044-.03.137.137,0,0,0,.03-.044.141.141,0,0,0,0-.109.141.141,0,0,0-.03-.045.147.147,0,0,0-.044-.03.138.138,0,0,0-.054-.011.142.142,0,0,0-.055.011.144.144,0,0,0-.045.03.146.146,0,0,0-.03.045.144.144,0,0,0,0,.109.142.142,0,0,0,.03.044.14.14,0,0,0,.045.03A.137.137,0,0,0,223.467,355.059Zm.011-.224a.077.077,0,0,1,.049.014.047.047,0,0,1,.018.039.046.046,0,0,1-.014.034.067.067,0,0,1-.039.016l.055.063H223.5l-.051-.062h-.016V355H223.4v-.167Zm-.041.031v.044h.041a.039.039,0,0,0,.022-.006.021.021,0,0,0,0-.033.041.041,0,0,0-.022-.005Zm-2.978-1.279a.856.856,0,1,1,.858.9.848.848,0,0,1-.858-.9Zm-20.774,0v-1.414h-.615v.343a1.073,1.073,0,0,0-.893-.414,1.486,1.486,0,0,0,0,2.969,1.073,1.073,0,0,0,.893-.414V355h.615Zm-2.289,0a.856.856,0,1,1,.858.9A.848.848,0,0,1,197.395,353.587Z" transform="translate(-190.35 -328.206)" fill="#909090"/>
</svg>
