<svg id="NETELLER" xmlns="http://www.w3.org/2000/svg" width="101.628" height="17.149" viewBox="0 0 101.628 17.149">
  <path id="Path_98726" data-name="Path 98726" d="M98.972,59.191a4.2,4.2,0,0,1-2.419.568H95.48l.823-4.446h.789a3.689,3.689,0,0,1,2.007.438,1.736,1.736,0,0,1,.772,1.551,2.165,2.165,0,0,1-.9,1.889m-64.037,5.58H26.628l.537-2.906h5.211l.592-3.273H27.807l.5-2.876H36.6Zm68.512-11.549a9.8,9.8,0,0,0-5.493-1.259H91.608L89.248,64.771H80.934l.533-2.906h5.009l.6-3.264-5.006.009.536-2.894H87.76l.686-3.754H77.969L75.729,64.114H71.887l2.256-12.151H68.665L66.426,64.114H62.68l2.258-12.151H59.465L57.1,64.771H48.727l.528-2.906h5.031l.593-3.245-5.024,0,.534-2.9H55.6l.683-3.754H23.643L21.785,62.113l-3.7-10.151H12.4L9.344,68.527H14.77L16.62,58.1l3.593,10.43H39.659l2.364-12.811h3.043L42.7,68.527H93.87l1.482-8.088,2.4,8.088h5.429L100.7,61.919l.568-.123a4.864,4.864,0,0,0,2.91-1.71,5.285,5.285,0,0,0,1.026-3.339,3.958,3.958,0,0,0-1.753-3.526" transform="translate(-9.344 -51.962)" fill="#909090"/>
  <path id="Path_98727" data-name="Path 98727" d="M239.2,84.5l.739-.039a1.087,1.087,0,0,0,.367-.068.385.385,0,0,0,.194-.167.417.417,0,0,0,.056-.237.394.394,0,0,0-.149-.3.633.633,0,0,0-.43-.1l-.823.042Zm-.273,1.471-.133-2.606,1.156-.058a1.517,1.517,0,0,1,.531.044.575.575,0,0,1,.3.233.719.719,0,0,1,.127.386.652.652,0,0,1-.155.477.91.91,0,0,1-.541.27.941.941,0,0,1,.214.119,1.764,1.764,0,0,1,.3.333l.486.686-.43.022-.372-.525q-.163-.228-.267-.347a.78.78,0,0,0-.184-.165.53.53,0,0,0-.16-.062,1.068,1.068,0,0,0-.193,0l-.4.02.057,1.158Z" transform="translate(-140.626 -69.894)" fill="#909090"/>
  <path id="Path_98728" data-name="Path 98728" d="M235.912,83.2a2.021,2.021,0,0,1,4.037-.206c0,.034,0,.071,0,.1a2.022,2.022,0,0,1-4.041.1m1.894-2.535a2.436,2.436,0,1,0,2.556,2.309h0a2.437,2.437,0,0,0-2.556-2.307" transform="translate(-138.737 -68.38)" fill="#909090"/>
</svg>
