<svg id="SKRILL" xmlns="http://www.w3.org/2000/svg" xmlns:xlink="http://www.w3.org/1999/xlink" width="61.482" height="21" viewBox="0 0 61.482 21">
  <defs>
    <clipPath id="clip-path">
      <path id="Path_98730" data-name="Path 98730" d="M115.6,197.91h5.119V183.545H115.6Zm-2.884-14.575c-4.73.152-7.132,2.274-7.132,6.493v8.082h5.161v-6.591c0-2.526.331-3.609,3.329-3.712v-4.2a5.731,5.731,0,0,0-1.05-.079c-.182,0-.307,0-.307,0M74,184.51c0,1.66.711,5.566,7.319,6.017.56.034,2.047.12,2.047,1.513,0,1.15-1.217,1.829-3.264,1.829a16.061,16.061,0,0,1-5.741-1.115v4.589a26.774,26.774,0,0,0,6.823.778c5.641,0,8.168-3.18,8.168-6.332,0-3.573-2.827-5.9-7.57-6.213-.647-.043-2.145-.139-2.145-1.488,0-1.627,2.156-1.627,2.965-1.627a17.835,17.835,0,0,1,4.579.814s.734.259,1.358.524l.058.016v-4.456l-.08-.024a18.285,18.285,0,0,0-6.7-1.066c-5.769,0-7.814,3.361-7.814,6.24m16.639-5.2v18.6H95.92v-5.748A19.979,19.979,0,0,1,98.2,197.91h6.326c-.626-2.6-3.363-7.4-3.363-7.4a23.177,23.177,0,0,0,3.707-6.983h-6.04a17.846,17.846,0,0,1-2.916,5V178.269Zm32.253-.128V197.91h5.115v-19.64Zm7.47,0V197.91h5.12v-19.64Zm-14.721.459a2.522,2.522,0,1,0,2.521-2.524,2.522,2.522,0,0,0-2.521,2.524" transform="translate(-74 -177.121)" fill="#909090"/>
    </clipPath>
  </defs>
  <g id="Group_18747" data-name="Group 18747" transform="translate(0 0)" clip-path="url(#clip-path)">
    <path id="Path_98729" data-name="Path 98729" d="M-169.723,106.991l38.4,25.117,73.536-13.116-38.4-25.117Z" transform="translate(144.496 -102.492)" fill="#909090"/>
  </g>
</svg>
