<svg id="VISA" xmlns="http://www.w3.org/2000/svg" width="67.833" height="21.827" viewBox="0 0 67.833 21.827">
  <path id="Path_98734" data-name="Path 98734" d="M-236.832,454.974h-.231c-2.216,0-2.241,0-2.674-2.23-.135-.7-.414-.939-1.139-.917-1.771.055-3.545.047-5.316,0a1.016,1.016,0,0,0-1.165.787c-.865,2.367-.89,2.382-3.368,2.346a10.153,10.153,0,0,1-3.057-.137c.36-.923.7-1.855,1.083-2.768q3.339-7.952,6.7-15.9c.8-1.889,1.434-2.312,3.51-2.322a20.945,20.945,0,0,0,2.425-.02c1.079-.131,1.5.238,1.719,1.333,1.248,6.246,2.577,12.477,3.9,18.708.171.8.1,1.258-.884,1.126A11.416,11.416,0,0,0-236.832,454.974Zm-8.613-7.471c.79,0,1.4.025,2.016-.006.832-.042,1.951.368,2.4-.192.328-.4-.182-1.5-.345-2.289-.36-1.736-.736-3.469-1.156-5.441Z" transform="translate(302.208 -433.494)" fill="#909090"/>
  <path id="Path_98735" data-name="Path 98735" d="M-308.8,432.5a15.734,15.734,0,0,1,4.1.572c.641.179.864.486.726,1.147a28.235,28.235,0,0,0-.46,2.844c-.076.734-.343.786-.966.525a8.995,8.995,0,0,0-4.865-.589,3.093,3.093,0,0,0-1.283.474,1.356,1.356,0,0,0-.188,2.382,12.84,12.84,0,0,0,1.845,1.167c.8.462,1.65.836,2.413,1.347a5.941,5.941,0,0,1,.188,9.99,11.287,11.287,0,0,1-6.982,1.969,17.312,17.312,0,0,1-5.335-.844c-.489-.159-.71-.355-.618-.892.2-1.174.371-2.354.545-3.533.1-.666.461-.422.817-.257a11.275,11.275,0,0,0,5.132,1.144c.193-.006.386,0,.578-.019,1.493-.147,2.557-.815,2.716-1.755.234-1.38-.831-1.861-1.752-2.406-1.058-.625-2.2-1.126-3.2-1.824-3.419-2.374-3.578-6.482-.406-9.207A10.657,10.657,0,0,1-308.8,432.5Z" transform="translate(353.245 -432.498)" fill="#909090"/>
  <path id="Path_98736" data-name="Path 98736" d="M-430.473,444.421l.872,3.914c.925-2.452,1.777-4.7,2.62-6.952.82-2.191,1.663-4.375,2.426-6.586a1.142,1.142,0,0,1,1.338-.892c1.538.056,3.08.017,4.794.017-.755,1.853-1.468,3.61-2.186,5.366-2.032,4.97-4.079,9.935-6.083,14.917a1.108,1.108,0,0,1-1.25.842,35.437,35.437,0,0,0-3.93.007c-.849.059-1.1-.294-1.3-1.033-1.375-5.272-2.788-10.534-4.2-15.8-.117-.438-.285-.862-.429-1.292.525-.1.846.288,1.216.528a19.081,19.081,0,0,1,5.931,6.653l-.015-.022A.291.291,0,0,0-430.473,444.421Z" transform="translate(443.51 -433.577)" fill="#909090"/>
  <path id="Path_98737" data-name="Path 98737" d="M-352.647,433.642c.718.082,1.959-.389,2.37.188.368.516-.147,1.669-.286,2.538-.939,5.841-1.894,11.68-2.8,17.526-.106.679-.331.921-1.014.9-1.27-.045-2.543-.036-3.814,0-.594.016-.827-.117-.718-.776q1.628-9.834,3.208-19.676c.082-.511.28-.736.822-.7C-354.192,433.673-353.5,433.642-352.647,433.642Z" transform="translate(382.955 -433.297)" fill="#909090"/>
  <path id="Path_98738" data-name="Path 98738" d="M-449.616,444.133a19.08,19.08,0,0,0-5.931-6.653c-.37-.24-.691-.629-1.216-.528-.854-1.092-2.185-1.324-3.357-1.83-.761-.328-1.569-.548-2.358-.817.191-.5.548-.356.828-.357,2.579-.01,5.157-.019,7.735,0,1.925.013,2.565.593,2.939,2.512.417,2.146.866,4.285,1.292,6.428A2.543,2.543,0,0,1-449.616,444.133Z" transform="translate(462.477 -433.598)" fill="#909090"/>
  <path id="Path_98739" data-name="Path 98739" d="M-406.823,478.236a.291.291,0,0,1-.19-.33C-406.742,477.9-406.8,478.079-406.823,478.236Z" transform="translate(419.859 -467.392)" fill="#909090"/>
</svg>
