<svg xmlns="http://www.w3.org/2000/svg" width="61.299" height="46.155" viewBox="0 0 61.299 46.155">
  <g id="Group_20085" data-name="Group 20085" transform="translate(-10.737 -30.769)">
    <g id="Group_13538" data-name="Group 13538" transform="translate(11.037 31.068)">
      <g id="Group_13534" data-name="Group 13534" transform="translate(3.354)">
        <path id="Path_12879" data-name="Path 12879" d="M54.146,101.007h-.059a1.673,1.673,0,0,1-1.613-1.73L53.417,72.6a3.558,3.558,0,0,1,3.567-3.444h42.97a3.561,3.561,0,0,1,3.564,3.42l.052,1.257a1.672,1.672,0,0,1-1.6,1.739,1.655,1.655,0,0,1-1.74-1.6l-.052-1.257a.225.225,0,0,0-.224-.216H56.984a.224.224,0,0,0-.226.219L55.816,99.4A1.671,1.671,0,0,1,54.146,101.007Z" transform="translate(-52.473 -69.156)" fill="#23a5d6" stroke="#fff" stroke-width="0.6"/>
      </g>
      <g id="Group_13535" data-name="Group 13535" transform="translate(0 28.048)">
        <path id="Path_12880" data-name="Path 12880" d="M105.711,103.442h-51.8a3.466,3.466,0,0,1-3.44-3.485V99.2a10.827,10.827,0,0,1,.61-3.587l2.828-8.529a1.674,1.674,0,0,1,1.588-1.145h48.631a1.67,1.67,0,0,1,1.586,1.145l2.838,8.554a10.762,10.762,0,0,1,.6,3.562v.761A3.466,3.466,0,0,1,105.711,103.442ZM56.7,89.278l-2.457,7.409A7.531,7.531,0,0,0,53.81,99.2v.761c0,.087.057.142.1.142h51.8c.04,0,.1-.055.1-.142V99.2a7.489,7.489,0,0,0-.421-2.482l-2.467-7.435Z" transform="translate(-50.467 -85.935)" fill="#23a5d6" stroke="#fff" stroke-width="0.6"/>
      </g>
      <g id="Group_13536" data-name="Group 13536" transform="translate(26.298 37.757)">
        <path id="Path_12881" data-name="Path 12881" d="M70.615,95.086H67.871a1.672,1.672,0,0,1,0-3.343h2.745a1.672,1.672,0,1,1,0,3.343Z" transform="translate(-66.199 -91.743)" fill="#23a5d6" stroke="#fff" stroke-width="0.6"/>
      </g>
      <g id="Group_13537" data-name="Group 13537" transform="translate(7.711 33.067)">
        <path id="Path_12882" data-name="Path 12882" d="M96.67,92.28H56.752a1.672,1.672,0,1,1,0-3.343H96.67a1.672,1.672,0,1,1,0,3.343Z" transform="translate(-55.08 -88.937)" fill="#23a5d6" stroke="#fff" stroke-width="0.6"/>
      </g>
    </g>
    <g id="Group_13545" data-name="Group 13545" transform="translate(25.323 39.269)">
      <g id="Group_13541" data-name="Group 13541" transform="translate(17.057 0.001)">
        <g id="Group_13540" data-name="Group 13540">
          <g id="Group_13539" data-name="Group 13539">
            <path id="Path_12883" data-name="Path 12883" d="M70.889,92.385a1.672,1.672,0,0,1-1.672-1.672V75.735a1.672,1.672,0,0,1,1.672-1.672l7.362,0a5.417,5.417,0,1,1,0,10.834H72.56v5.817A1.671,1.671,0,0,1,70.889,92.385ZM72.56,81.553h5.69a2.074,2.074,0,1,0,0-4.147l-5.69,0Z" transform="translate(-69.217 -74.062)" fill="#23a5d6" stroke="#fff" stroke-width="0.6"/>
          </g>
        </g>
      </g>
      <g id="Group_13542" data-name="Group 13542" transform="translate(32.218 0.003)">
        <path id="Path_12884" data-name="Path 12884" d="M87.069,92.384H83.714a5.447,5.447,0,0,1-5.353-4.61,1.672,1.672,0,0,1,3.308-.493,2.08,2.08,0,0,0,2.046,1.76h3.353a2.073,2.073,0,0,0,0-4.146H83.7a5.416,5.416,0,0,1,0-10.832h3.368a5.4,5.4,0,0,1,5.386,4.871,1.672,1.672,0,0,1-3.327.333,2.063,2.063,0,0,0-2.059-1.861H83.7a2.073,2.073,0,0,0,0,4.146h3.37a5.416,5.416,0,0,1,0,10.832Z" transform="translate(-78.286 -74.063)" fill="#23a5d6" stroke="#fff" stroke-width="0.6"/>
      </g>
      <g id="Group_13544" data-name="Group 13544">
        <g id="Group_13543" data-name="Group 13543">
          <path id="Path_12885" data-name="Path 12885" d="M66.935,92.385a1.672,1.672,0,0,1-1.543-1.028l-6.25-14.978a1.672,1.672,0,0,1,3.086-1.289l4.707,11.28,4.7-11.279a1.671,1.671,0,1,1,3.084,1.285l-6.247,14.98A1.671,1.671,0,0,1,66.935,92.385Z" transform="translate(-59.013 -74.061)" fill="#23a5d6" stroke="#fff" stroke-width="0.6"/>
        </g>
      </g>
    </g>
  </g>
</svg>
